<svg id="Layer_1" data-name="Layer 1" xmlns="http://www.w3.org/2000/svg" viewBox="0 0 282 449"><defs><style>.cls-1{fill:#fff;stroke:#000;stroke-linecap:round;stroke-linejoin:round;stroke-width:12px;}.cls-2{font-size:45px;font-family:BerlinSansFBDemi-Bold, Berlin Sans FB Demi;font-weight:700;letter-spacing:0.01em;}.cls-3{letter-spacing:0em;}</style></defs><title>DoN</title><path d="M272.43,297.1c-.26-10.55-3.73-28.45-9.94-45.83-8.85-24.74-21.88-47.39-35.13-69.91-21.7-36.87-43.27-73.81-60.91-112.85-7.19-15.91-13.69-32.13-20.64-48.15-.72-1.67-2.38-2.93-3.6-4.38-1.38,1.46-3.24,2.71-4.05,4.45-2.2,4.65-3.94,9.52-5.87,14.3-20.44,50.62-47.18,98-74.56,145a690.3,690.3,0,0,0-33,63.75,151,151,0,0,0-12.39,82C21.54,397.61,85.89,447.62,158,439.15,224.65,431.31,275.1,372.33,272.43,297.1Z"/><path class="cls-1" d="M272.43,297.1c2.67,75.23-47.78,134.21-114.47,142C85.89,447.62,21.54,397.61,12.31,325.5a151,151,0,0,1,12.39-82,690.3,690.3,0,0,1,33-63.75c27.38-47.07,54.12-94.41,74.56-145,1.93-4.78,3.67-9.65,5.87-14.3.81-1.74,2.67-3,4.05-4.45,1.22,1.45,2.88,2.71,3.6,4.38,6.95,16,13.45,32.24,20.64,48.15,17.64,39,39.21,76,60.91,112.85,13.25,22.52,26.28,45.17,35.13,69.91C268.7,268.65,272.17,286.55,272.43,297.1Z"/><path d="M116.17,358.4l-16.8-3.93c11.07-7.19,20.42-14.6,26.5-26.14l-17-4.07c15-8.41,25.07-19.77,31.9-35.26,6.83,15.31,16.84,26.74,31.95,35.27l-17.19,4.06c6.46,11.08,15.14,19.13,27.14,26l-17.23,4.05c6.4,13.74,16.14,23.79,30.21,31.95l-17.08,4c6.16,11,14.94,18.44,26.43,25.42-20.59,4-39.36,4-58.93-1.45v15.21h-11v-14c-10,1.09-19.4,2.72-28.78,2.93s-18.76-1-28.42-2.44c10-7,18.93-14.61,25.23-25.66L86,390.41C99.78,382.24,109.78,372.35,116.17,358.4Z"/><text class="cls-2" transform="translate(126.33 132.21)">A<tspan class="cls-3"><tspan x="-34.78" y="41">Drop</tspan></tspan><tspan x="-4.34" y="82">of</tspan><tspan class="cls-3"><tspan x="-56.38" y="123">Nature</tspan></tspan></text><path d="M69.21,324.7c0-.78.05-1.32,0-1.86,0-3.81-1-4.51-4.06-4.86-8.16-1-14.12,3.33-19.53,9.19-.18.2-.44.27-1,0,.9-1.29,1.71-2.7,2.71-3.87,2.33-2.71,4.75-5.32,7.14-8s4.71-4.08,8.31-3c2.43.72,5.26,1.34,6.82-2,.19-.43,1.4-.68,1.68-.37,2.35,2.57,4,.41,5.24-.89,3-3.11,6.22-3.08,10-1.48,3.91,1.67,7.86,3.14,11.8,4.7l-.12,1.16c-1-.23-2-.4-2.94-.7-7.48-2.33-14.37-1.58-20.32,3.45a5.63,5.63,0,0,0-1.72,4.12C73.63,324.91,73.68,325.08,69.21,324.7Z"/></svg>