<?xml version="1.0" encoding="utf-8"?>
<!-- Generator: Adobe Illustrator 23.0.3, SVG Export Plug-In . SVG Version: 6.00 Build 0)  -->
<svg version="1.1" id="Layer_1" xmlns="http://www.w3.org/2000/svg" xmlns:xlink="http://www.w3.org/1999/xlink" x="0px" y="0px"
	 viewBox="0 0 282 449" style="enable-background:new 0 0 282 449;" xml:space="preserve">
<style type="text/css">
	.st0{fill:#D3D3D3;}
	.st1{fill:#F1F1F1;stroke:#000000;stroke-width:12;stroke-linecap:round;stroke-linejoin:round;stroke-miterlimit:10;}
	.st2{font-family:'BerlinSansFBDemi-Bold';}
	.st3{font-size:45px;}
</style>
<g>
	<path class="st0" d="M272.4,297.1c-0.3-10.6-3.7-28.4-9.9-45.8c-8.8-24.7-21.9-47.4-35.1-69.9c-21.7-36.9-43.3-73.8-60.9-112.8
		c-7.2-15.9-13.7-32.1-20.6-48.1c-0.7-1.7-2.4-2.9-3.6-4.4c-1.4,1.5-3.2,2.7-4.1,4.5c-2.2,4.7-3.9,9.5-5.9,14.3
		c-20.4,50.6-47.2,98-74.6,145c-12,20.7-23.2,41.9-33,63.7c-11.7,25.9-16,53.6-12.4,82c9.2,72.1,73.6,122.1,145.6,113.6
		C224.7,431.3,275.1,372.3,272.4,297.1z"/>
	<path class="st1" d="M272.4,297.1c2.7,75.2-47.8,134.2-114.5,142c-72.1,8.5-136.4-41.5-145.6-113.6c-3.6-28.4,0.7-56.1,12.4-82
		c9.8-21.8,21-43.1,33-63.7c27.4-47.1,54.1-94.4,74.6-145c1.9-4.8,3.7-9.6,5.9-14.3c0.8-1.7,2.7-3,4.1-4.5c1.2,1.5,2.9,2.7,3.6,4.4
		c7,16,13.5,32.2,20.6,48.1c17.6,39,39.2,76,60.9,112.8c13.3,22.5,26.3,45.2,35.1,69.9C268.7,268.7,272.2,286.5,272.4,297.1z"/>
</g>
<path d="M116.2,358.4c-5.6-1.3-10.5-2.5-16.8-3.9c11.1-7.2,20.4-14.6,26.5-26.1c-5.4-1.3-10.5-2.5-17-4.1
	c15-8.4,25.1-19.8,31.9-35.3c6.8,15.3,16.8,26.7,32,35.3c-6.4,1.5-11.3,2.7-17.2,4.1c6.5,11.1,15.1,19.1,27.1,26
	c-6.5,1.5-11.4,2.7-17.2,4.1c6.4,13.7,16.1,23.8,30.2,31.9c-6.6,1.6-11.5,2.7-17.1,4c6.2,11,14.9,18.4,26.4,25.4
	c-20.6,4-39.4,4-58.9-1.5c0,5.2,0,10,0,15.2c-4,0-7.1,0-11,0c0-4.9,0-9.5,0-14c-10,1.1-19.4,2.7-28.8,2.9c-9.4,0.2-18.8-1-28.4-2.4
	c10-7,18.9-14.6,25.2-25.7c-5.7-1.3-10.6-2.5-17.1-4C99.8,382.2,109.8,372.3,116.2,358.4z"/>
<text transform="matrix(1 0 0 1 126.3301 132.21)"><tspan x="0" y="0" class="st2 st3">A</tspan><tspan x="-34.8" y="41" class="st2 st3">Drop</tspan><tspan x="-4.3" y="82" class="st2 st3">of</tspan><tspan x="-56.4" y="123" class="st2 st3">Nature</tspan></text>
<path d="M69.2,324.7c0-0.8,0-1.3,0-1.9c0-3.8-1-4.5-4.1-4.9c-8.2-0.9-14.1,3.3-19.5,9.2c-0.2,0.2-0.4,0.3-1,0
	c0.9-1.3,1.7-2.7,2.7-3.9c2.3-2.7,4.7-5.3,7.1-8c2.3-2.5,4.7-4.1,8.3-3c2.4,0.7,5.3,1.3,6.8-2c0.2-0.4,1.4-0.7,1.7-0.4
	c2.4,2.6,4,0.4,5.2-0.9c3-3.1,6.2-3.1,10-1.5c3.9,1.7,7.9,3.1,11.8,4.7c0,0.4-0.1,0.8-0.1,1.2c-1-0.2-2-0.4-2.9-0.7
	c-7.5-2.3-14.4-1.6-20.3,3.5c-1,0.8-1.9,2.7-1.7,4.1C73.6,324.9,73.7,325.1,69.2,324.7z"/>
</svg>
