<?xml version="1.0" encoding="utf-8"?>
<!-- Generator: Adobe Illustrator 23.0.2, SVG Export Plug-In . SVG Version: 6.00 Build 0)  -->
<svg version="1.1" id="Icons" xmlns="http://www.w3.org/2000/svg" xmlns:xlink="http://www.w3.org/1999/xlink" x="0px" y="0px"
	 viewBox="0 0 108.9 84" style="enable-background:new 0 0 108.9 84;" xml:space="preserve">
<style type="text/css">
	.st0{fill:#FFFFFF;stroke:#000000;stroke-miterlimit:10;}
	.st1{fill:#FFE500;}
	.st2{fill:#FFF48C;}
	.st3{fill:none;stroke:#45413C;stroke-linecap:round;stroke-linejoin:round;stroke-miterlimit:10;}
	.st4{fill:#DEBB7E;}
	.st5{fill:#F0D5A8;}
	.st6{fill:#6DD627;}
	.st7{fill:#9CEB60;}
	.st8{fill:#45413C;}
	.st9{fill:#FFFFFF;stroke:#45413C;stroke-width:0.25;stroke-linecap:round;stroke-linejoin:round;stroke-miterlimit:10;}
	.st10{fill:none;stroke:#000000;stroke-miterlimit:10;}
</style>
<path class="st0" d="M24.6,22c-1-8,8.9-10.3,9.4-5.1c0.1,1.5,0.7,2.1,1.2,3.6c0.9,2.8,1.1,2.8,1.5,4.4c0,0,0.6,2.2,0.7,4.9
	c0.5,9.1-1.4,13-5.1,13c-6.8,0-1.8-3.8-6.8-13c-1.8-3.2-1.3-6.6,0.8-8.1c2.2-1.7,6-0.2,6.7,0.1"/>
<g id="XMLID_12943_">
	<path class="st1" d="M59.5,17.9c-1.2-0.9-2.2-1.9-2.9-3c-0.8-1.3-2.2-2.1-3.9-2.3l-1.3-0.2c-1.5-0.2-3.2,0.3-4.4,1.2
		c-1.1,0.9-2.3,1.5-3.6,2.1c-5.4,2.2-8.8,7.7-9.7,14c-0.8,6.2,1.1,12.5,5.7,16c1.2,0.9,2.2,1.9,2.9,3c0.8,1.3,2.2,2.1,3.9,2.3
		l1.3,0.2c1.5,0.2,3.2-0.3,4.4-1.2c1.1-0.9,2.3-1.5,3.6-2.1c5.4-2.2,8.8-7.7,9.7-14C66,27.7,64.1,21.4,59.5,17.9z"/>
	<path id="XMLID_12951_" class="st2" d="M36.7,33.6c0.8-6.2,4.4-11.8,9.7-14c1.4-0.5,2.6-1.2,3.6-2.1c1.1-1,2.7-1.4,4.4-1.2l1.3,0.2
		c1.5,0.2,3,1.1,3.9,2.3c0.8,1.2,1.9,2.1,2.9,3c0.3,0.3,0.6,0.4,0.8,0.8c-1-1.8-2.2-3.4-3.9-4.7c-1.2-0.9-2.2-1.9-2.9-3
		c-0.8-1.3-2.2-2.1-3.9-2.3l-1.3-0.2c-1.5-0.2-3.2,0.3-4.4,1.2c-1.1,0.9-2.3,1.5-3.6,2.1c-5.4,2.2-8.8,7.7-9.7,14
		c-0.7,5.8,0.8,11.7,4.9,15.3C36.7,41.6,36.2,37.6,36.7,33.6z"/>
	<path class="st3" d="M59.5,17.9c-1.2-0.9-2.2-1.9-2.9-3c-0.8-1.3-2.2-2.1-3.9-2.3l-1.3-0.2c-1.5-0.2-3.2,0.3-4.4,1.2
		c-1.1,0.9-2.3,1.5-3.6,2.1c-5.4,2.2-8.8,7.7-9.7,14c-0.8,6.2,1.1,12.5,5.7,16c1.2,0.9,2.2,1.9,2.9,3c0.8,1.3,2.2,2.1,3.9,2.3
		l1.3,0.2c1.5,0.2,3.2-0.3,4.4-1.2c1.1-0.9,2.3-1.5,3.6-2.1c5.4-2.2,8.8-7.7,9.7-14C66,27.7,64.1,21.4,59.5,17.9z"/>
	<path id="XMLID_12950_" class="st4" d="M50.8,13.8c0,0,0.3-4.2,2.6-7.4c1.6-2.1,2.9-1.2,3.7-0.3c0.4,0.5,0.3,1.1-0.1,1.6
		c-1.1,1.1-3.2,3.3-4.2,6.4C51.9,15.1,50.8,13.8,50.8,13.8z"/>
	<path id="XMLID_12949_" class="st5" d="M52,14.5c0.2-1.4,0.8-4.2,2.6-6.5c1-1.4,2-1.4,2.9-1c0-0.3-0.1-0.6-0.2-0.8
		c-0.7-0.8-2.1-1.6-3.7,0.3c-2.4,3.1-2.6,7.4-2.6,7.4S51.3,14.4,52,14.5z"/>
	<path id="XMLID_12948_" class="st3" d="M50.8,13.8c0,0,0.3-4.2,2.6-7.4c1.6-2.1,2.9-1.2,3.7-0.3c0.4,0.5,0.3,1.1-0.1,1.6
		c-1.1,1.1-3.2,3.3-4.2,6.4C51.9,15.1,50.8,13.8,50.8,13.8z"/>
	<path id="XMLID_12947_" class="st6" d="M50.8,13.8c0,0-1.5-5.5-8.1-6.2c-6-0.7-8.8,3.1-9.7,4.6c-0.2,0.4-0.1,0.8,0.1,1.2
		c1,1.3,3.6,4.1,7.8,4C45.9,17.4,47,12.3,50.8,13.8z"/>
	<path id="XMLID_12946_" class="st7" d="M34.8,14.7c0.8-1.5,3.6-5.4,9.6-4.7c2.7,0.2,4.5,1.3,5.8,2.5c-0.9-1.7-3-4.4-7.6-4.9
		c-6-0.6-8.8,3.2-9.6,4.7c-0.2,0.4-0.1,0.8,0.1,1.2c0.3,0.4,0.9,1,1.6,1.6C34.7,15,34.7,14.9,34.8,14.7z"/>
	<path id="XMLID_12945_" class="st3" d="M50.8,13.8c0,0-1.5-5.5-8.1-6.2c-6-0.7-8.8,3.1-9.7,4.6c-0.2,0.4-0.1,0.8,0.1,1.2
		c1,1.3,3.6,4.1,7.8,4C45.9,17.4,47,12.3,50.8,13.8z"/>
	<path id="XMLID_12944_" class="st3" d="M50.8,13.8c0,0-3.6-4.7-9.5-3.3"/>
</g>
<path class="st8" d="M47.8,35.7c-0.1,0.4,2.5,1.5,5.3,1.3c3.7-0.3,6.5-2.9,6.3-3.3c-0.1-0.3-2.2,0.9-6.1,1.5
	C49.9,35.8,47.9,35.4,47.8,35.7z"/>
<ellipse class="st9" cx="49.8" cy="27.5" rx="1.7" ry="2.2"/>
<ellipse class="st9" cx="57.2" cy="27.4" rx="1.5" ry="2.1"/>
<ellipse class="st8" cx="50.5" cy="27.8" rx="0.5" ry="0.8"/>
<ellipse class="st8" cx="57.7" cy="27.6" rx="0.4" ry="0.8"/>
<path class="st3" d="M39.3,45.7c1.2,10.8,1,15.4,0.4,17.3c-0.1,0.3-0.5,1.4,0,2.1c0.7,1,2.6,0.9,4.1,0.6"/>
<path class="st3" d="M51.8,50c1.3,8.6,1.1,12.3,0.4,13.8c-0.1,0.2-0.5,1.1,0,1.7c0.7,0.8,2.8,0.7,4.5,0.5"/>
<path class="st0" d="M68.1,48.8"/>
<path class="st0" d="M23.4,23"/>
<circle class="st0" cx="30.4" cy="17.9" r="2.8"/>
<path class="st0" d="M32.2,21.3"/>
<path class="st0" d="M34.6,19.6"/>
<path class="st10" d="M35.4,21.5c0.6,0.2,5.4,1.4,6.8,5.4c1.5,4.3-1.6,10.2-7.4,12.8"/>
</svg>
