<?xml version="1.0" encoding="utf-8"?>
<!-- Generator: Adobe Illustrator 23.0.2, SVG Export Plug-In . SVG Version: 6.00 Build 0)  -->
<svg version="1.1" id="Layer_1" xmlns="http://www.w3.org/2000/svg" xmlns:xlink="http://www.w3.org/1999/xlink" x="0px" y="0px"
	 viewBox="0 0 1541.9 2061.3" style="enable-background:new 0 0 1541.9 2061.3;" xml:space="preserve">
<style type="text/css">
	.st0{fill:#FFFFFF;}
	.st1{fill:#E30613;}
</style>
<g>
	<path class="st0" d="M46.1,1404.7c-11,0-19.9,8.9-19.9,19.9s8.9,19.9,19.9,19.9s19.9-8.9,19.9-19.9S57.1,1404.7,46.1,1404.7
		L46.1,1404.7z"/>
	<path class="st0" d="M49,1233.8c-11,0-19.9,8.9-19.9,19.9s8.9,19.9,19.9,19.9s19.9-8.9,19.9-19.9C69,1242.8,60.1,1233.8,49,1233.8
		L49,1233.8z"/>
	<path class="st0" d="M50.5,1278.2c-8.3,0-15,6.7-15,15s6.7,15,15,15s15-6.7,15-15C65.5,1284.9,58.8,1278.2,50.5,1278.2L50.5,1278.2
		z"/>
	<path class="st0" d="M55.9,1316.6c-11,0-19.9,8.9-19.9,19.9s8.9,19.9,19.9,19.9s19.9-8.9,19.9-19.9
		C75.9,1325.5,66.9,1316.6,55.9,1316.6L55.9,1316.6z"/>
	<path class="st0" d="M54.5,1494.8c-8.3,0-15,6.7-15,15s6.7,15,15,15s15-6.7,15-15S62.8,1494.8,54.5,1494.8L54.5,1494.8z"/>
	<path class="st0" d="M76.6,1370.7c-11,0-19.9,8.9-19.9,19.9s8.9,19.9,19.9,19.9s19.9-8.9,19.9-19.9
		C96.6,1379.6,87.6,1370.7,76.6,1370.7L76.6,1370.7z"/>
	<path class="st0" d="M78.6,1169.8c-11,0-19.9,8.9-19.9,19.9s8.9,19.9,19.9,19.9s19.9-8.9,19.9-19.9
		C98.5,1178.8,89.6,1169.8,78.6,1169.8L78.6,1169.8z"/>
	<path class="st0" d="M80.6,1110.3c-11,0-19.9,8.9-19.9,19.9s8.9,19.9,19.9,19.9s19.9-8.9,19.9-19.9
		C100.5,1119.2,91.6,1110.3,80.6,1110.3L80.6,1110.3z"/>
	<path class="st0" d="M83,1524.3c-11,0-19.9,8.9-19.9,19.9s8.9,19.9,19.9,19.9s19.9-8.9,19.9-19.9S94,1524.3,83,1524.3L83,1524.3z"
		/>
	<path class="st0" d="M81.5,1214.1c-8.3,0-15,6.7-15,15s6.7,15,15,15s15-6.7,15-15C96.6,1220.9,89.8,1214.1,81.5,1214.1L81.5,1214.1
		z"/>
	<path class="st0" d="M89.4,1254.5c-11,0-19.9,8.9-19.9,19.9s8.9,19.9,19.9,19.9s19.9-8.9,19.9-19.9
		C109.4,1263.5,100.4,1254.5,89.4,1254.5L89.4,1254.5z"/>
	<path class="st0" d="M90.4,1440.6c-11,0-19.9,8.9-19.9,19.9s8.9,19.9,19.9,19.9s19.9-8.9,19.9-19.9S101.4,1440.6,90.4,1440.6
		L90.4,1440.6z"/>
	<path class="st0" d="M87.9,1484.9c-8.3,0-15,6.7-15,15s6.7,15,15,15s15-6.7,15-15S96.2,1484.9,87.9,1484.9L87.9,1484.9z"/>
	<path class="st0" d="M97.8,1298.3c-11,0-19.9,8.9-19.9,19.9s8.9,19.9,19.9,19.9s19.9-8.9,19.9-19.9
		C117.7,1307.3,108.8,1298.3,97.8,1298.3L97.8,1298.3z"/>
	<path class="st0" d="M107.6,1146.2c-8.3,0-15,6.7-15,15s6.7,15,15,15s15-6.7,15-15C122.6,1152.9,115.9,1146.2,107.6,1146.2
		L107.6,1146.2z"/>
	<path class="st0" d="M115.5,1341.7c-11,0-19.9,8.9-19.9,19.9s8.9,19.9,19.9,19.9s19.9-8.9,19.9-19.9S126.5,1341.7,115.5,1341.7
		L115.5,1341.7z"/>
	<path class="st0" d="M121.4,1496.8c-8.3,0-15,6.7-15,15s6.7,15,15,15s15-6.7,15-15S129.7,1496.8,121.4,1496.8L121.4,1496.8z"/>
	<path class="st0" d="M122.4,1530.7c-8.3,0-15,6.7-15,15s6.7,15,15,15s15-6.7,15-15C137.4,1537.5,130.7,1530.7,122.4,1530.7
		L122.4,1530.7z"/>
	<path class="st0" d="M122.9,1388.9c-8.3,0-15,6.7-15,15s6.7,15,15,15s15-6.7,15-15S131.2,1388.9,122.9,1388.9L122.9,1388.9z"/>
	<path class="st0" d="M131.8,1098.9c-11,0-19.9,8.9-19.9,19.9s8.9,19.9,19.9,19.9s19.9-8.9,19.9-19.9
		C151.7,1107.9,142.8,1098.9,131.8,1098.9L131.8,1098.9z"/>
	<path class="st0" d="M131.8,1238.3c-11,0-19.9,8.9-19.9,19.9s8.9,19.9,19.9,19.9s19.9-8.9,19.9-19.9S142.8,1238.3,131.8,1238.3
		L131.8,1238.3z"/>
	<path class="st0" d="M129.8,1192.5c-8.3,0-15,6.7-15,15s6.7,15,15,15s15-6.7,15-15S138.1,1192.5,129.8,1192.5L129.8,1192.5z"/>
	<path class="st0" d="M135.2,1895.6c-11,0-19.9,8.9-19.9,19.9s8.9,19.9,19.9,19.9s19.9-8.9,19.9-19.9S146.2,1895.6,135.2,1895.6
		L135.2,1895.6z"/>
	<path class="st0" d="M138.2,1777.9c-11,0-19.9,8.9-19.9,19.9s8.9,19.9,19.9,19.9s19.9-8.9,19.9-19.9
		C158.1,1786.8,149.2,1777.9,138.2,1777.9L138.2,1777.9z"/>
	<path class="st0" d="M138.7,1431.8c-11,0-19.9,8.9-19.9,19.9s8.9,19.9,19.9,19.9s19.9-8.9,19.9-19.9
		C158.6,1440.7,149.7,1431.8,138.7,1431.8L138.7,1431.8z"/>
	<path class="st0" d="M140.1,1564.2c-8.3,0-15,6.7-15,15s6.7,15,15,15s15-6.7,15-15C155.1,1570.9,148.4,1564.2,140.1,1564.2
		L140.1,1564.2z"/>
	<path class="st0" d="M146,1841.4c-11,0-19.9,8.9-19.9,19.9s8.9,19.9,19.9,19.9s19.9-8.9,19.9-19.9
		C166,1850.3,157,1841.4,146,1841.4L146,1841.4z"/>
	<path class="st0" d="M149.5,1053.6c-11,0-19.9,8.9-19.9,19.9s8.9,19.9,19.9,19.9s19.9-8.9,19.9-19.9S160.5,1053.6,149.5,1053.6
		L149.5,1053.6z"/>
	<path class="st0" d="M150,1152.1c-11,0-19.9,8.9-19.9,19.9s8.9,19.9,19.9,19.9s19.9-8.9,19.9-19.9S161,1152.1,150,1152.1
		L150,1152.1z"/>
	<path class="st0" d="M156.9,1281.1c-11,0-19.9,8.9-19.9,19.9s8.9,19.9,19.9,19.9s19.9-8.9,19.9-19.9
		C176.8,1290,167.9,1281.1,156.9,1281.1L156.9,1281.1z"/>
	<path class="st0" d="M156.4,1398.8c-8.3,0-15,6.7-15,15s6.7,15,15,15s15-6.7,15-15S164.7,1398.8,156.4,1398.8L156.4,1398.8z"/>
	<path class="st0" d="M161.8,1943.8c-11,0-19.9,8.9-19.9,19.9s8.9,19.9,19.9,19.9s19.9-8.9,19.9-19.9
		C181.7,1952.7,172.8,1943.8,161.8,1943.8L161.8,1943.8z"/>
	<path class="st0" d="M162.3,1477.6c-11,0-19.9,8.9-19.9,19.9s8.9,19.9,19.9,19.9s19.9-8.9,19.9-19.9S173.3,1477.6,162.3,1477.6
		L162.3,1477.6z"/>
	<path class="st0" d="M164.7,1342.2c-11,0-19.9,8.9-19.9,19.9s8.9,19.9,19.9,19.9s19.9-8.9,19.9-19.9
		C184.7,1351.1,175.8,1342.2,164.7,1342.2L164.7,1342.2z"/>
	<path class="st0" d="M171.6,1714.9c-11,0-19.9,8.9-19.9,19.9s8.9,19.9,19.9,19.9s19.9-8.9,19.9-19.9S182.7,1714.9,171.6,1714.9
		L171.6,1714.9z"/>
	<path class="st0" d="M171.1,1878.8c-8.3,0-15,6.7-15,15s6.7,15,15,15s15-6.7,15-15C186.2,1885.6,179.4,1878.8,171.1,1878.8
		L171.1,1878.8z"/>
	<path class="st0" d="M179,1562.2c-11,0-19.9,8.9-19.9,19.9S168,1602,179,1602s19.9-8.9,19.9-19.9C199,1571.2,190,1562.2,179,1562.2
		L179,1562.2z"/>
	<path class="st0" d="M179.5,1808.4c-11,0-19.9,8.9-19.9,19.9s8.9,19.9,19.9,19.9s19.9-8.9,19.9-19.9
		C199.5,1817.4,190.5,1808.4,179.5,1808.4L179.5,1808.4z"/>
	<path class="st0" d="M176.1,1093.5c-8.3,0-15,6.7-15,15s6.7,15,15,15s15-6.7,15-15S184.4,1093.5,176.1,1093.5L176.1,1093.5z"/>
	<path class="st0" d="M183,1242.7c-11,0-19.9,8.9-19.9,19.9s8.9,19.9,19.9,19.9s19.9-8.9,19.9-19.9S194,1242.7,183,1242.7
		L183,1242.7z"/>
	<path class="st0" d="M185.9,1518.4c-11,0-19.9,8.9-19.9,19.9s8.9,19.9,19.9,19.9s19.9-8.9,19.9-19.9S196.9,1518.4,185.9,1518.4
		L185.9,1518.4z"/>
	<path class="st0" d="M188.4,1757.2c-11,0-19.9,8.9-19.9,19.9s8.9,19.9,19.9,19.9s19.9-8.9,19.9-19.9S199.4,1757.2,188.4,1757.2
		L188.4,1757.2z"/>
	<path class="st0" d="M189.9,1185.6c-11,0-19.9,8.9-19.9,19.9s8.9,19.9,19.9,19.9s19.9-8.9,19.9-19.9S200.9,1185.6,189.9,1185.6
		L189.9,1185.6z"/>
	<path class="st0" d="M191.8,1129.5c-11,0-19.9,8.9-19.9,19.9s8.9,19.9,19.9,19.9s19.9-8.9,19.9-19.9
		C211.8,1138.4,202.8,1129.5,191.8,1129.5L191.8,1129.5z"/>
	<path class="st0" d="M195.3,1044.3c-11,0-19.9,8.9-19.9,19.9s8.9,19.9,19.9,19.9s19.9-8.9,19.9-19.9S206.3,1044.3,195.3,1044.3
		L195.3,1044.3z"/>
	<path class="st0" d="M199.2,1384.5c-11,0-19.9,8.9-19.9,19.9s8.9,19.9,19.9,19.9s19.9-8.9,19.9-19.9
		C219.1,1393.4,210.2,1384.5,199.2,1384.5L199.2,1384.5z"/>
	<path class="st0" d="M202.2,1440.6c-11,0-19.9,8.9-19.9,19.9s8.9,19.9,19.9,19.9s19.9-8.9,19.9-19.9S213.2,1440.6,202.2,1440.6
		L202.2,1440.6z"/>
	<path class="st0" d="M200.2,1010.8c-8.3,0-15,6.7-15,15s6.7,15,15,15s15-6.7,15-15S208.5,1010.8,200.2,1010.8L200.2,1010.8z"/>
	<path class="st0" d="M203.1,1486.9c-8.3,0-15,6.7-15,15s6.7,15,15,15s15-6.7,15-15S211.4,1486.9,203.1,1486.9L203.1,1486.9z"/>
	<path class="st0" d="M209.1,1918.2c-11,0-19.9,8.9-19.9,19.9s8.9,19.9,19.9,19.9s19.9-8.9,19.9-19.9S220.1,1918.2,209.1,1918.2
		L209.1,1918.2z"/>
	<path class="st0" d="M211,1728.7c-8.3,0-15,6.7-15,15s6.7,15,15,15s15-6.7,15-15C226,1735.4,219.3,1728.7,211,1728.7L211,1728.7z"
		/>
	<path class="st0" d="M216.4,1085.6c-11,0-19.9,8.9-19.9,19.9s8.9,19.9,19.9,19.9s19.9-8.9,19.9-19.9
		C236.4,1094.6,227.5,1085.6,216.4,1085.6L216.4,1085.6z"/>
	<path class="st0" d="M217.9,1978.3c-11,0-19.9,8.9-19.9,19.9s8.9,19.9,19.9,19.9s19.9-8.9,19.9-19.9S228.9,1978.3,217.9,1978.3
		L217.9,1978.3z"/>
	<path class="st0" d="M220.4,1862.6c-11,0-19.9,8.9-19.9,19.9s8.9,19.9,19.9,19.9s19.9-8.9,19.9-19.9S231.4,1862.6,220.4,1862.6
		L220.4,1862.6z"/>
	<path class="st0" d="M217.4,1549.9c-8.3,0-15,6.7-15,15s6.7,15,15,15s15-6.7,15-15C232.4,1556.7,225.7,1549.9,217.4,1549.9
		L217.4,1549.9z"/>
	<path class="st0" d="M222.8,1319.5c-11,0-19.9,8.9-19.9,19.9s8.9,19.9,19.9,19.9s19.9-8.9,19.9-19.9
		C242.8,1328.4,233.9,1319.5,222.8,1319.5L222.8,1319.5z"/>
	<path class="st0" d="M217.9,1825.7c-8.3,0-15,6.7-15,15s6.7,15,15,15s15-6.7,15-15S226.2,1825.7,217.9,1825.7L217.9,1825.7z"/>
	<path class="st0" d="M232.2,1274.2c-11,0-19.9,8.9-19.9,19.9s8.9,19.9,19.9,19.9s19.9-8.9,19.9-19.9
		C252.1,1283.1,243.2,1274.2,232.2,1274.2L232.2,1274.2z"/>
	<path class="st0" d="M229.2,1194c-8.3,0-15,6.7-15,15s6.7,15,15,15s15-6.7,15-15C244.3,1200.7,237.5,1194,229.2,1194L229.2,1194z"
		/>
	<path class="st0" d="M231.2,1415.5c-8.3,0-15,6.7-15,15s6.7,15,15,15s15-6.7,15-15S239.5,1415.5,231.2,1415.5L231.2,1415.5z"/>
	<path class="st0" d="M239.6,1130.9c-11,0-19.9,8.9-19.9,19.9s8.9,19.9,19.9,19.9s19.9-8.9,19.9-19.9
		C259.5,1139.9,250.6,1130.9,239.6,1130.9L239.6,1130.9z"/>
	<path class="st0" d="M236.6,1374.7c-8.3,0-15,6.7-15,15s6.7,15,15,15s15-6.7,15-15C251.6,1381.4,244.9,1374.7,236.6,1374.7
		L236.6,1374.7z"/>
	<path class="st0" d="M246,1464.8c-11,0-19.9,8.9-19.9,19.9s8.9,19.9,19.9,19.9s19.9-8.9,19.9-19.9
		C265.9,1473.7,257,1464.8,246,1464.8L246,1464.8z"/>
	<path class="st0" d="M247,996.5c-11,0-19.9,8.9-19.9,19.9s8.9,19.9,19.9,19.9s19.9-8.9,19.9-19.9C266.9,1005.5,258,996.5,247,996.5
		L247,996.5z"/>
	<path class="st0" d="M243,1040.8c-8.3,0-15,6.7-15,15s6.7,15,15,15s15-6.7,15-15S251.3,1040.8,243,1040.8L243,1040.8z"/>
	<path class="st0" d="M243.5,1945.3c-8.3,0-15,6.7-15,15s6.7,15,15,15s15-6.7,15-15S251.8,1945.3,243.5,1945.3L243.5,1945.3z"/>
	<path class="st0" d="M249.4,1679.4c-11,0-19.9,8.9-19.9,19.9s8.9,19.9,19.9,19.9s19.9-8.9,19.9-19.9S260.4,1679.4,249.4,1679.4
		L249.4,1679.4z"/>
	<path class="st0" d="M249.9,1224c-11,0-19.9,8.9-19.9,19.9s8.9,19.9,19.9,19.9s19.9-8.9,19.9-19.9
		C269.9,1232.9,260.9,1224,249.9,1224L249.9,1224z"/>
	<path class="st0" d="M251.4,1508.6c-11,0-19.9,8.9-19.9,19.9s8.9,19.9,19.9,19.9s19.9-8.9,19.9-19.9S262.4,1508.6,251.4,1508.6
		L251.4,1508.6z"/>
	<path class="st0" d="M254.8,1783.8c-11,0-19.9,8.9-19.9,19.9s8.9,19.9,19.9,19.9c11,0,19.9-8.9,19.9-19.9
		C274.8,1792.7,265.9,1783.8,254.8,1783.8L254.8,1783.8z"/>
	<path class="st0" d="M257.3,1835.5c-11,0-19.9,8.9-19.9,19.9s8.9,19.9,19.9,19.9s19.9-8.9,19.9-19.9
		C277.2,1844.4,268.3,1835.5,257.3,1835.5L257.3,1835.5z"/>
	<path class="st0" d="M257.8,1723.2c-11,0-19.9,8.9-19.9,19.9s8.9,19.9,19.9,19.9s19.9-8.9,19.9-19.9S268.8,1723.2,257.8,1723.2
		L257.8,1723.2z"/>
	<path class="st0" d="M257.8,1172.3c-8.3,0-15,6.7-15,15s6.7,15,15,15c8.3,0,15-6.7,15-15S266.1,1172.3,257.8,1172.3L257.8,1172.3z"
		/>
	<path class="st0" d="M261.7,1909.8c-8.3,0-15,6.7-15,15s6.7,15,15,15c8.3,0,15-6.7,15-15C276.8,1916.6,270,1909.8,261.7,1909.8
		L261.7,1909.8z"/>
	<path class="st0" d="M265.7,1973.4c-8.3,0-15,6.7-15,15s6.7,15,15,15s15-6.7,15-15S274,1973.4,265.7,1973.4L265.7,1973.4z"/>
	<path class="st0" d="M272.1,1411.1c-11,0-19.9,8.9-19.9,19.9s8.9,19.9,19.9,19.9S292,1442,292,1431S283.1,1411.1,272.1,1411.1
		L272.1,1411.1z"/>
	<path class="st0" d="M275.5,1063.5c-11,0-19.9,8.9-19.9,19.9s8.9,19.9,19.9,19.9s19.9-8.9,19.9-19.9
		C295.5,1072.4,286.5,1063.5,275.5,1063.5L275.5,1063.5z"/>
	<path class="st0" d="M279.5,1321c-11,0-19.9,8.9-19.9,19.9s8.9,19.9,19.9,19.9s19.9-8.9,19.9-19.9S290.5,1321,279.5,1321
		L279.5,1321z"/>
	<path class="st0" d="M276.5,1030c-8.3,0-15,6.7-15,15s6.7,15,15,15s15-6.7,15-15S284.8,1030,276.5,1030L276.5,1030z"/>
	<path class="st0" d="M279,1137.3c-8.3,0-15,6.7-15,15s6.7,15,15,15s15-6.7,15-15C294,1144.1,287.3,1137.3,279,1137.3L279,1137.3z"
		/>
	<path class="st0" d="M280.9,1647.4c-8.3,0-15,6.7-15,15s6.7,15,15,15s15-6.7,15-15S289.2,1647.4,280.9,1647.4L280.9,1647.4z"/>
	<path class="st0" d="M287.8,1267.3c-11,0-19.9,8.9-19.9,19.9s8.9,19.9,19.9,19.9s19.9-8.9,19.9-19.9
		C307.8,1276.3,298.8,1267.3,287.8,1267.3L287.8,1267.3z"/>
	<path class="st0" d="M287.8,1366.8c-11,0-19.9,8.9-19.9,19.9s8.9,19.9,19.9,19.9s19.9-8.9,19.9-19.9
		C307.8,1375.7,298.8,1366.8,287.8,1366.8L287.8,1366.8z"/>
	<path class="st0" d="M290.8,954.7c-11,0-19.9,8.9-19.9,19.9s8.9,19.9,19.9,19.9s19.9-8.9,19.9-19.9S301.8,954.7,290.8,954.7
		L290.8,954.7z"/>
	<path class="st0" d="M287.8,1210.7c-8.3,0-15,6.7-15,15s6.7,15,15,15s15-6.7,15-15C302.9,1217.4,296.1,1210.7,287.8,1210.7
		L287.8,1210.7z"/>
	<path class="st0" d="M298.7,1944.3c-11,0-19.9,8.9-19.9,19.9s8.9,19.9,19.9,19.9s19.9-8.9,19.9-19.9
		C318.6,1953.2,309.7,1944.3,298.7,1944.3L298.7,1944.3z"/>
	<path class="st0" d="M298.7,1473.6c-11,0-19.9,8.9-19.9,19.9s8.9,19.9,19.9,19.9s19.9-8.9,19.9-19.9S309.7,1473.6,298.7,1473.6
		L298.7,1473.6z"/>
	<path class="st0" d="M302.1,1797.6c-11,0-19.9,8.9-19.9,19.9s8.9,19.9,19.9,19.9s19.9-8.9,19.9-19.9
		C322.1,1806.5,313.1,1797.6,302.1,1797.6L302.1,1797.6z"/>
	<path class="st0" d="M304.6,1100.4c-11,0-19.9,8.9-19.9,19.9s8.9,19.9,19.9,19.9s19.9-8.9,19.9-19.9S315.6,1100.4,304.6,1100.4
		L304.6,1100.4z"/>
	<path class="st0" d="M305.1,1168.9c-11,0-19.9,8.9-19.9,19.9s8.9,19.9,19.9,19.9s19.9-8.9,19.9-19.9S316.1,1168.9,305.1,1168.9
		L305.1,1168.9z"/>
	<path class="st0" d="M312,995.1c-11,0-19.9,8.9-19.9,19.9s8.9,19.9,19.9,19.9s19.9-8.9,19.9-19.9S323,995.1,312,995.1L312,995.1z"
		/>
	<path class="st0" d="M311.5,1239.3c-8.3,0-15,6.7-15,15s6.7,15,15,15s15-6.7,15-15S319.8,1239.3,311.5,1239.3L311.5,1239.3z"/>
	<path class="st0" d="M318.4,1431.3c-11,0-19.9,8.9-19.9,19.9s8.9,19.9,19.9,19.9s19.9-8.9,19.9-19.9
		C338.3,1440.2,329.4,1431.3,318.4,1431.3L318.4,1431.3z"/>
	<path class="st0" d="M331.7,1058.6c-11,0-19.9,8.9-19.9,19.9s8.9,19.9,19.9,19.9s19.9-8.9,19.9-19.9S342.7,1058.6,331.7,1058.6
		L331.7,1058.6z"/>
	<path class="st0" d="M326.7,1318.5c-8.3,0-15,6.7-15,15s6.7,15,15,15s15-6.7,15-15C341.7,1325.3,335,1318.5,326.7,1318.5
		L326.7,1318.5z"/>
	<path class="st0" d="M333.1,1269.3c-11,0-19.9,8.9-19.9,19.9s8.9,19.9,19.9,19.9s19.9-8.9,19.9-19.9S344.1,1269.3,333.1,1269.3
		L333.1,1269.3z"/>
	<path class="st0" d="M334.6,1352c-11,0-19.9,8.9-19.9,19.9s8.9,19.9,19.9,19.9s19.9-8.9,19.9-19.9S345.6,1352,334.6,1352
		L334.6,1352z"/>
	<path class="st0" d="M332.1,1204.8c-8.3,0-15,6.7-15,15s6.7,15,15,15s15-6.7,15-15C347.2,1211.5,340.4,1204.8,332.1,1204.8
		L332.1,1204.8z"/>
	<path class="st0" d="M350.9,937.9c-11,0-19.9,8.9-19.9,19.9s8.9,19.9,19.9,19.9s19.9-8.9,19.9-19.9
		C370.8,946.9,361.9,937.9,350.9,937.9L350.9,937.9z"/>
	<path class="st0" d="M346.9,1922.2c-8.3,0-15,6.7-15,15s6.7,15,15,15s15-6.7,15-15S355.2,1922.2,346.9,1922.2L346.9,1922.2z"/>
	<path class="st0" d="M347.4,1236.8c-8.3,0-15,6.7-15,15s6.7,15,15,15s15-6.7,15-15S355.7,1236.8,347.4,1236.8L347.4,1236.8z"/>
	<path class="st0" d="M355.3,1392.4c-11,0-19.9,8.9-19.9,19.9s8.9,19.9,19.9,19.9s19.9-8.9,19.9-19.9
		C375.2,1401.3,366.3,1392.4,355.3,1392.4L355.3,1392.4z"/>
	<path class="st0" d="M351.3,996.5c-8.3,0-15,6.7-15,15s6.7,15,15,15s15-6.7,15-15C366.4,1003.3,359.6,996.5,351.3,996.5
		L351.3,996.5z"/>
	<path class="st0" d="M356.3,1119.1c-11,0-19.9,8.9-19.9,19.9s8.9,19.9,19.9,19.9s19.9-8.9,19.9-19.9
		C376.2,1128.1,367.3,1119.1,356.3,1119.1L356.3,1119.1z"/>
	<path class="st0" d="M362.7,1873.4c-11,0-19.9,8.9-19.9,19.9s8.9,19.9,19.9,19.9s19.9-8.9,19.9-19.9S373.7,1873.4,362.7,1873.4
		L362.7,1873.4z"/>
	<path class="st0" d="M364.6,2003.9c-11,0-19.9,8.9-19.9,19.9s8.9,19.9,19.9,19.9s19.9-8.9,19.9-19.9S375.7,2003.9,364.6,2003.9
		L364.6,2003.9z"/>
	<path class="st0" d="M365.1,1436.2c-11,0-19.9,8.9-19.9,19.9s8.9,19.9,19.9,19.9s19.9-8.9,19.9-19.9
		C385.1,1445.1,376.1,1436.2,365.1,1436.2L365.1,1436.2z"/>
	<path class="st0" d="M367.1,1297.4c-8.3,0-15,6.7-15,15s6.7,15,15,15s15-6.7,15-15S375.4,1297.4,367.1,1297.4L367.1,1297.4z"/>
	<path class="st0" d="M368.1,1086.1c-8.3,0-15,6.7-15,15s6.7,15,15,15s15-6.7,15-15C383.1,1092.9,376.4,1086.1,368.1,1086.1
		L368.1,1086.1z"/>
	<path class="st0" d="M369.1,1335.3c-8.3,0-15,6.7-15,15s6.7,15,15,15s15-6.7,15-15S377.4,1335.3,369.1,1335.3L369.1,1335.3z"/>
	<path class="st0" d="M376,1195.4c-11,0-19.9,8.9-19.9,19.9s8.9,19.9,19.9,19.9s19.9-8.9,19.9-19.9S387,1195.4,376,1195.4
		L376,1195.4z"/>
	<path class="st0" d="M379.4,1038.4c-11,0-19.9,8.9-19.9,19.9s8.9,19.9,19.9,19.9s19.9-8.9,19.9-19.9
		C399.4,1047.3,390.4,1038.4,379.4,1038.4L379.4,1038.4z"/>
	<path class="st0" d="M377.4,1161.5c-8.3,0-15,6.7-15,15s6.7,15,15,15s15-6.7,15-15C392.5,1168.2,385.7,1161.5,377.4,1161.5
		L377.4,1161.5z"/>
	<path class="st0" d="M380.9,1929c-8.3,0-15,6.7-15,15s6.7,15,15,15s15-6.7,15-15C395.9,1935.8,389.2,1929,380.9,1929L380.9,1929z"
		/>
	<path class="st0" d="M387.8,887.7c-11,0-19.9,8.9-19.9,19.9s8.9,19.9,19.9,19.9s19.9-8.9,19.9-19.9
		C407.7,896.6,398.8,887.7,387.8,887.7L387.8,887.7z"/>
	<path class="st0" d="M390.2,960.6c-11,0-19.9,8.9-19.9,19.9s8.9,19.9,19.9,19.9s19.9-8.9,19.9-19.9
		C410.2,969.5,401.3,960.6,390.2,960.6L390.2,960.6z"/>
	<path class="st0" d="M395.2,1961.5c-11,0-19.9,8.9-19.9,19.9s8.9,19.9,19.9,19.9s19.9-8.9,19.9-19.9S406.2,1961.5,395.2,1961.5
		L395.2,1961.5z"/>
	<path class="st0" d="M396.6,1538.1c-11,0-19.9,8.9-19.9,19.9s8.9,19.9,19.9,19.9s19.9-8.9,19.9-19.9S407.7,1538.1,396.6,1538.1
		L396.6,1538.1z"/>
	<path class="st0" d="M397.1,1237.3c-11,0-19.9,8.9-19.9,19.9s8.9,19.9,19.9,19.9s19.9-8.9,19.9-19.9
		C417.1,1246.2,408.1,1237.3,397.1,1237.3L397.1,1237.3z"/>
	<path class="st0" d="M397.6,1004.9c-8.3,0-15,6.7-15,15c0,8.3,6.7,15,15,15s15-6.7,15-15S405.9,1004.9,397.6,1004.9L397.6,1004.9z"
		/>
	<path class="st0" d="M399.6,854.7c-8.3,0-15,6.7-15,15s6.7,15,15,15s15-6.7,15-15C414.6,861.5,407.9,854.7,399.6,854.7L399.6,854.7
		z"/>
	<path class="st0" d="M399.6,1463.8c-8.3,0-15,6.7-15,15s6.7,15,15,15s15-6.7,15-15S407.9,1463.8,399.6,1463.8L399.6,1463.8z"/>
	<path class="st0" d="M404.5,1890.6c-11,0-19.9,8.9-19.9,19.9s8.9,19.9,19.9,19.9s19.9-8.9,19.9-19.9
		C424.5,1899.6,415.5,1890.6,404.5,1890.6L404.5,1890.6z"/>
	<path class="st0" d="M402.1,1347.6c-8.3,0-15,6.7-15,15s6.7,15,15,15s15-6.7,15-15S410.4,1347.6,402.1,1347.6L402.1,1347.6z"/>
	<path class="st0" d="M407,928.6c-8.3,0-15,6.7-15,15s6.7,15,15,15s15-6.7,15-15S415.3,928.6,407,928.6L407,928.6z"/>
	<path class="st0" d="M411.9,1590.8c-11,0-19.9,8.9-19.9,19.9s8.9,19.9,19.9,19.9s19.9-8.9,19.9-19.9S422.9,1590.8,411.9,1590.8
		L411.9,1590.8z"/>
	<path class="st0" d="M413.9,1099.9c-11,0-19.9,8.9-19.9,19.9s8.9,19.9,19.9,19.9s19.9-8.9,19.9-19.9S424.9,1099.9,413.9,1099.9
		L413.9,1099.9z"/>
	<path class="st0" d="M415.4,1496.8c-11,0-19.9,8.9-19.9,19.9s8.9,19.9,19.9,19.9s19.9-8.9,19.9-19.9S426.4,1496.8,415.4,1496.8
		L415.4,1496.8z"/>
	<path class="st0" d="M410.4,1852.2c-8.3,0-15,6.7-15,15s6.7,15,15,15s15-6.7,15-15C425.4,1859,418.7,1852.2,410.4,1852.2
		L410.4,1852.2z"/>
	<path class="st0" d="M418.8,1380.1c-11,0-19.9,8.9-19.9,19.9s8.9,19.9,19.9,19.9s19.9-8.9,19.9-19.9S429.8,1380.1,418.8,1380.1
		L418.8,1380.1z"/>
	<path class="st0" d="M423.7,1306.2c-11,0-19.9,8.9-19.9,19.9s8.9,19.9,19.9,19.9s19.9-8.9,19.9-19.9
		C443.7,1315.1,434.7,1306.2,423.7,1306.2L423.7,1306.2z"/>
	<path class="st0" d="M424.2,1158.5c-11,0-19.9,8.9-19.9,19.9s8.9,19.9,19.9,19.9s19.9-8.9,19.9-19.9S435.2,1158.5,424.2,1158.5
		L424.2,1158.5z"/>
	<path class="st0" d="M427.7,1652.3c-11,0-19.9,8.9-19.9,19.9s8.9,19.9,19.9,19.9s19.9-8.9,19.9-19.9
		C447.6,1661.3,438.7,1652.3,427.7,1652.3L427.7,1652.3z"/>
	<path class="st0" d="M424.7,1272.7c-8.3,0-15,6.7-15,15s6.7,15,15,15s15-6.7,15-15C439.7,1279.5,433,1272.7,424.7,1272.7
		L424.7,1272.7z"/>
	<path class="st0" d="M431.6,1424.4c-11,0-19.9,8.9-19.9,19.9s8.9,19.9,19.9,19.9s19.9-8.9,19.9-19.9S442.6,1424.4,431.6,1424.4
		L431.6,1424.4z"/>
	<path class="st0" d="M435,887.7c-11,0-19.9,8.9-19.9,19.9s8.9,19.9,19.9,19.9s19.9-8.9,19.9-19.9C455,896.6,446.1,887.7,435,887.7
		L435,887.7z"/>
	<path class="st0" d="M435.5,1202.8c-11,0-19.9,8.9-19.9,19.9s8.9,19.9,19.9,19.9s19.9-8.9,19.9-19.9S446.6,1202.8,435.5,1202.8
		L435.5,1202.8z"/>
	<path class="st0" d="M439,1058.6c-11,0-19.9,8.9-19.9,19.9s8.9,19.9,19.9,19.9s19.9-8.9,19.9-19.9S450,1058.6,439,1058.6
		L439,1058.6z"/>
	<path class="st0" d="M436,949.8c-8.3,0-15,6.7-15,15s6.7,15,15,15s15-6.7,15-15S444.3,949.8,436,949.8L436,949.8z"/>
	<path class="st0" d="M441.9,817.3c-11,0-19.9,8.9-19.9,19.9s8.9,19.9,19.9,19.9s19.9-8.9,19.9-19.9S453,817.3,441.9,817.3
		L441.9,817.3z"/>
	<path class="st0" d="M446.4,983.2c-11,0-19.9,8.9-19.9,19.9s8.9,19.9,19.9,19.9s19.9-8.9,19.9-19.9
		C466.3,992.2,457.4,983.2,446.4,983.2L446.4,983.2z"/>
	<path class="st0" d="M444.4,1620.8c-8.3,0-15,6.7-15,15s6.7,15,15,15s15-6.7,15-15C459.4,1627.6,452.7,1620.8,444.4,1620.8
		L444.4,1620.8z"/>
	<path class="st0" d="M448.8,1246.2c-8.3,0-15,6.7-15,15s6.7,15,15,15s15-6.7,15-15S457.1,1246.2,448.8,1246.2L448.8,1246.2z"/>
	<path class="st0" d="M455.2,1574.1c-11,0-19.9,8.9-19.9,19.9s8.9,19.9,19.9,19.9s19.9-8.9,19.9-19.9S466.2,1574.1,455.2,1574.1
		L455.2,1574.1z"/>
	<path class="st0" d="M453.3,1111.2c-8.3,0-15,6.7-15,15s6.7,15,15,15s15-6.7,15-15C468.3,1118,461.6,1111.2,453.3,1111.2
		L453.3,1111.2z"/>
	<path class="st0" d="M458.2,1527.3c-11,0-19.9,8.9-19.9,19.9s8.9,19.9,19.9,19.9s19.9-8.9,19.9-19.9
		C478.1,1536.2,469.2,1527.3,458.2,1527.3L458.2,1527.3z"/>
	<path class="st0" d="M453.8,1692.7c-8.3,0-15,6.7-15,15s6.7,15,15,15s15-6.7,15-15C468.8,1699.4,462.1,1692.7,453.8,1692.7
		L453.8,1692.7z"/>
	<path class="st0" d="M454.7,784.3c-8.3,0-15,6.7-15,15s6.7,15,15,15s15-6.7,15-15S463,784.3,454.7,784.3L454.7,784.3z"/>
	<path class="st0" d="M459.7,1726.2c-11,0-19.9,8.9-19.9,19.9s8.9,19.9,19.9,19.9s19.9-8.9,19.9-19.9S470.7,1726.2,459.7,1726.2
		L459.7,1726.2z"/>
	<path class="st0" d="M456.7,1027.1c-8.3,0-15,6.7-15,15s6.7,15,15,15s15-6.7,15-15S465,1027.1,456.7,1027.1L456.7,1027.1z"/>
	<path class="st0" d="M457.2,1395.8c-8.3,0-15,6.7-15,15s6.7,15,15,15s15-6.7,15-15C472.2,1402.6,465.5,1395.8,457.2,1395.8
		L457.2,1395.8z"/>
	<path class="st0" d="M471.5,1282.6c-11,0-19.9,8.9-19.9,19.9s8.9,19.9,19.9,19.9s19.9-8.9,19.9-19.9S482.5,1282.6,471.5,1282.6
		L471.5,1282.6z"/>
	<path class="st0" d="M467.1,1449.5c-8.3,0-15,6.7-15,15s6.7,15,15,15s15-6.7,15-15S475.3,1449.5,467.1,1449.5L467.1,1449.5z"/>
	<path class="st0" d="M467.1,1659.7c-8.3,0-15,6.7-15,15s6.7,15,15,15s15-6.7,15-15S475.3,1659.7,467.1,1659.7L467.1,1659.7z"/>
	<path class="st0" d="M472.5,1483c-11,0-19.9,8.9-19.9,19.9s8.9,19.9,19.9,19.9s19.9-8.9,19.9-19.9S483.5,1483,472.5,1483
		L472.5,1483z"/>
	<path class="st0" d="M473.5,1337.7c-11,0-19.9,8.9-19.9,19.9s8.9,19.9,19.9,19.9s19.9-8.9,19.9-19.9
		C493.4,1346.7,484.5,1337.7,473.5,1337.7L473.5,1337.7z"/>
	<path class="st0" d="M474.4,1806c-11,0-19.9,8.9-19.9,19.9s8.9,19.9,19.9,19.9s19.9-8.9,19.9-19.9
		C494.4,1814.9,485.4,1806,474.4,1806L474.4,1806z"/>
	<path class="st0" d="M475.9,1157.5c-11,0-19.9,8.9-19.9,19.9s8.9,19.9,19.9,19.9s19.9-8.9,19.9-19.9
		C495.9,1166.5,486.9,1157.5,475.9,1157.5L475.9,1157.5z"/>
	<path class="st0" d="M472,1769.5c-8.3,0-15,6.7-15,15s6.7,15,15,15s15-6.7,15-15S480.3,1769.5,472,1769.5L472,1769.5z"/>
	<path class="st0" d="M474.9,1201.8c-8.3,0-15,6.7-15,15s6.7,15,15,15s15-6.7,15-15C489.9,1208.6,483.2,1201.8,474.9,1201.8
		L474.9,1201.8z"/>
	<path class="st0" d="M481.3,939.9c-11,0-19.9,8.9-19.9,19.9s8.9,19.9,19.9,19.9s19.9-8.9,19.9-19.9
		C501.3,948.8,492.3,939.9,481.3,939.9L481.3,939.9z"/>
	<path class="st0" d="M476.4,1906.4c-8.3,0-15,6.7-15,15s6.7,15,15,15s15-6.7,15-15S484.7,1906.4,476.4,1906.4L476.4,1906.4z"/>
	<path class="st0" d="M484.3,867.5c-11,0-19.9,8.9-19.9,19.9s8.9,19.9,19.9,19.9s19.9-8.9,19.9-19.9
		C504.2,876.5,495.3,867.5,484.3,867.5L484.3,867.5z"/>
	<path class="st0" d="M480.3,833.1c-8.3,0-15,6.7-15,15s6.7,15,15,15s15-6.7,15-15C495.4,839.8,488.6,833.1,480.3,833.1L480.3,833.1
		z"/>
	<path class="st0" d="M486.7,1854.2c-11,0-19.9,8.9-19.9,19.9s8.9,19.9,19.9,19.9s19.9-8.9,19.9-19.9S497.8,1854.2,486.7,1854.2
		L486.7,1854.2z"/>
	<path class="st0" d="M484.8,999c-8.3,0-15,6.7-15,15s6.7,15,15,15s15-6.7,15-15S493.1,999,484.8,999L484.8,999z"/>
	<path class="st0" d="M493.1,1616.9c-11,0-19.9,8.9-19.9,19.9s8.9,19.9,19.9,19.9s19.9-8.9,19.9-19.9
		C513.1,1625.8,504.2,1616.9,493.1,1616.9L493.1,1616.9z"/>
	<path class="st0" d="M496.6,1033.5c-11,0-19.9,8.9-19.9,19.9s8.9,19.9,19.9,19.9s19.9-8.9,19.9-19.9S507.6,1033.5,496.6,1033.5
		L496.6,1033.5z"/>
	<path class="st0" d="M496.6,1699.1c-11,0-19.9,8.9-19.9,19.9s8.9,19.9,19.9,19.9s19.9-8.9,19.9-19.9S507.6,1699.1,496.6,1699.1
		L496.6,1699.1z"/>
	<path class="st0" d="M498.6,730.2c-11,0-19.9,8.9-19.9,19.9s8.9,19.9,19.9,19.9s19.9-8.9,19.9-19.9
		C518.5,739.1,509.6,730.2,498.6,730.2L498.6,730.2z"/>
	<path class="st0" d="M499.1,1396.3c-11,0-19.9,8.9-19.9,19.9s8.9,19.9,19.9,19.9s19.9-8.9,19.9-19.9
		C519,1405.2,510.1,1396.3,499.1,1396.3L499.1,1396.3z"/>
	<path class="st0" d="M497.6,1531.2c-8.3,0-15,6.7-15,15s6.7,15,15,15s15-6.7,15-15S505.9,1531.2,497.6,1531.2L497.6,1531.2z"/>
	<path class="st0" d="M503,1228.9c-11,0-19.9,8.9-19.9,19.9s8.9,19.9,19.9,19.9s19.9-8.9,19.9-19.9S514,1228.9,503,1228.9
		L503,1228.9z"/>
	<path class="st0" d="M504,1097c-11,0-19.9,8.9-19.9,19.9s8.9,19.9,19.9,19.9s19.9-8.9,19.9-19.9S515,1097,504,1097L504,1097z"/>
	<path class="st0" d="M501.5,1661.2c-8.3,0-15,6.7-15,15s6.7,15,15,15s15-6.7,15-15C516.5,1667.9,509.8,1661.2,501.5,1661.2
		L501.5,1661.2z"/>
	<path class="st0" d="M508.4,665.7c-11,0-19.9,8.9-19.9,19.9s8.9,19.9,19.9,19.9c11,0,19.9-8.9,19.9-19.9
		C528.3,674.6,519.4,665.7,508.4,665.7L508.4,665.7z"/>
	<path class="st0" d="M508.4,778.4c-11,0-19.9,8.9-19.9,19.9s8.9,19.9,19.9,19.9c11,0,19.9-8.9,19.9-19.9S519.4,778.4,508.4,778.4
		L508.4,778.4z"/>
	<path class="st0" d="M508.9,1362.8c-8.3,0-15,6.7-15,15s6.7,15,15,15c8.3,0,15-6.7,15-15S517.2,1362.8,508.9,1362.8L508.9,1362.8z"
		/>
	<path class="st0" d="M514.8,1458.4c-11,0-19.9,8.9-19.9,19.9s8.9,19.9,19.9,19.9s19.9-8.9,19.9-19.9S525.8,1458.4,514.8,1458.4
		L514.8,1458.4z"/>
	<path class="st0" d="M515.8,1303.8c-11,0-19.9,8.9-19.9,19.9s8.9,19.9,19.9,19.9s19.9-8.9,19.9-19.9
		C535.7,1312.7,526.8,1303.8,515.8,1303.8L515.8,1303.8z"/>
	<path class="st0" d="M515.8,1571.6c-11,0-19.9,8.9-19.9,19.9s8.9,19.9,19.9,19.9s19.9-8.9,19.9-19.9S526.8,1571.6,515.8,1571.6
		L515.8,1571.6z"/>
	<path class="st0" d="M516.3,1893.6c-11,0-19.9,8.9-19.9,19.9s8.9,19.9,19.9,19.9s19.9-8.9,19.9-19.9S527.3,1893.6,516.3,1893.6
		L516.3,1893.6z"/>
	<path class="st0" d="M518.3,1747.9c-11,0-19.9,8.9-19.9,19.9s8.9,19.9,19.9,19.9s19.9-8.9,19.9-19.9S529.3,1747.9,518.3,1747.9
		L518.3,1747.9z"/>
	<path class="st0" d="M518.7,1802c-11,0-19.9,8.9-19.9,19.9s8.9,19.9,19.9,19.9s19.9-8.9,19.9-19.9
		C538.7,1810.9,529.8,1802,518.7,1802L518.7,1802z"/>
	<path class="st0" d="M521.2,1144.2c-11,0-19.9,8.9-19.9,19.9s8.9,19.9,19.9,19.9s19.9-8.9,19.9-19.9S532.2,1144.2,521.2,1144.2
		L521.2,1144.2z"/>
	<path class="st0" d="M517.8,1196.4c-8.3,0-15,6.7-15,15s6.7,15,15,15s15-6.7,15-15S526.1,1196.4,517.8,1196.4L517.8,1196.4z"/>
	<path class="st0" d="M518.7,960.1c-8.3,0-15,6.7-15,15s6.7,15,15,15s15-6.7,15-15S527,960.1,518.7,960.1L518.7,960.1z"/>
	<path class="st0" d="M525.6,993.6c-11,0-19.9,8.9-19.9,19.9s8.9,19.9,19.9,19.9s19.9-8.9,19.9-19.9
		C545.6,1002.5,536.7,993.6,525.6,993.6L525.6,993.6z"/>
	<path class="st0" d="M521.2,1270.3c-8.3,0-15,6.7-15,15s6.7,15,15,15s15-6.7,15-15S529.5,1270.3,521.2,1270.3L521.2,1270.3z"/>
	<path class="st0" d="M528.1,870c-11,0-19.9,8.9-19.9,19.9s8.9,19.9,19.9,19.9s19.9-8.9,19.9-19.9S539.1,870,528.1,870L528.1,870z"
		/>
	<path class="st0" d="M527.6,706.5c-8.3,0-15,6.7-15,15s6.7,15,15,15s15-6.7,15-15C542.6,713.3,535.9,706.5,527.6,706.5L527.6,706.5
		z"/>
	<path class="st0" d="M530.1,1502.7c-8.3,0-15,6.7-15,15s6.7,15,15,15s15-6.7,15-15S538.4,1502.7,530.1,1502.7L530.1,1502.7z"/>
	<path class="st0" d="M536,918.2c-11,0-19.9,8.9-19.9,19.9S525,958,536,958s19.9-8.9,19.9-19.9C555.9,927.2,547,918.2,536,918.2
		L536,918.2z"/>
	<path class="st0" d="M538,817.8c-11,0-19.9,8.9-19.9,19.9s8.9,19.9,19.9,19.9s19.9-8.9,19.9-19.9S549,817.8,538,817.8L538,817.8z"
		/>
	<path class="st0" d="M536,1707c-8.3,0-15,6.7-15,15s6.7,15,15,15s15-6.7,15-15S544.3,1707,536,1707L536,1707z"/>
	<path class="st0" d="M541.9,608.6c-11,0-19.9,8.9-19.9,19.9s8.9,19.9,19.9,19.9s19.9-8.9,19.9-19.9
		C561.8,617.5,552.9,608.6,541.9,608.6L541.9,608.6z"/>
	<path class="st0" d="M547.8,1652.8c-11,0-19.9,8.9-19.9,19.9s8.9,19.9,19.9,19.9s19.9-8.9,19.9-19.9
		C567.7,1661.8,558.8,1652.8,547.8,1652.8L547.8,1652.8z"/>
	<path class="st0" d="M548.3,1405.2c-11,0-19.9,8.9-19.9,19.9s8.9,19.9,19.9,19.9s19.9-8.9,19.9-19.9S559.3,1405.2,548.3,1405.2
		L548.3,1405.2z"/>
	<path class="st0" d="M549.3,1348.6c-11,0-19.9,8.9-19.9,19.9s8.9,19.9,19.9,19.9s19.9-8.9,19.9-19.9S560.3,1348.6,549.3,1348.6
		L549.3,1348.6z"/>
	<path class="st0" d="M549.8,751.8c-11,0-19.9,8.9-19.9,19.9s8.9,19.9,19.9,19.9s19.9-8.9,19.9-19.9
		C569.7,760.8,560.8,751.8,549.8,751.8L549.8,751.8z"/>
	<path class="st0" d="M545.8,1870.5c-8.3,0-15,6.7-15,15s6.7,15,15,15s15-6.7,15-15S554.1,1870.5,545.8,1870.5L545.8,1870.5z"/>
	<path class="st0" d="M553.7,1530.7c-11,0-19.9,8.9-19.9,19.9s8.9,19.9,19.9,19.9s19.9-8.9,19.9-19.9
		C573.6,1539.7,564.7,1530.7,553.7,1530.7L553.7,1530.7z"/>
	<path class="st0" d="M554.7,1036.9c-11,0-19.9,8.9-19.9,19.9s8.9,19.9,19.9,19.9s19.9-8.9,19.9-19.9
		C574.6,1045.8,565.7,1036.9,554.7,1036.9L554.7,1036.9z"/>
	<path class="st0" d="M552.2,1783.8c-8.3,0-15,6.7-15,15s6.7,15,15,15s15-6.7,15-15S560.5,1783.8,552.2,1783.8L552.2,1783.8z"/>
	<path class="st0" d="M552.7,1450c-8.3,0-15,6.7-15,15s6.7,15,15,15s15-6.7,15-15S561,1450,552.7,1450L552.7,1450z"/>
	<path class="st0" d="M557.6,1590.3c-11,0-19.9,8.9-19.9,19.9s8.9,19.9,19.9,19.9s19.9-8.9,19.9-19.9S568.7,1590.3,557.6,1590.3
		L557.6,1590.3z"/>
	<path class="st0" d="M557.2,958.1c-8.3,0-15,6.7-15,15s6.7,15,15,15s15-6.7,15-15S565.4,958.1,557.2,958.1L557.2,958.1z"/>
	<path class="st0" d="M564.5,1169.8c-11,0-19.9,8.9-19.9,19.9s8.9,19.9,19.9,19.9s19.9-8.9,19.9-19.9
		C584.5,1178.8,575.6,1169.8,564.5,1169.8L564.5,1169.8z"/>
	<path class="st0" d="M565.5,1093.5c-11,0-19.9,8.9-19.9,19.9s8.9,19.9,19.9,19.9s19.9-8.9,19.9-19.9
		C585.5,1102.5,576.5,1093.5,565.5,1093.5L565.5,1093.5z"/>
	<path class="st0" d="M561.1,686.8c-8.3,0-15,6.7-15,15s6.7,15,15,15s15-6.7,15-15C576.1,693.6,569.4,686.8,561.1,686.8L561.1,686.8
		z"/>
	<path class="st0" d="M563.6,575.6c-8.3,0-15,6.7-15,15s6.7,15,15,15s15-6.7,15-15S571.8,575.6,563.6,575.6L563.6,575.6z"/>
	<path class="st0" d="M570.9,1825.7c-11,0-19.9,8.9-19.9,19.9s8.9,19.9,19.9,19.9s19.9-8.9,19.9-19.9
		C590.9,1834.6,582,1825.7,570.9,1825.7L570.9,1825.7z"/>
	<path class="st0" d="M566.5,1240.2c-8.3,0-15,6.7-15,15s6.7,15,15,15s15-6.7,15-15S574.8,1240.2,566.5,1240.2L566.5,1240.2z"/>
	<path class="st0" d="M571.9,643c-11,0-19.9,8.9-19.9,19.9s8.9,19.9,19.9,19.9s19.9-8.9,19.9-19.9C591.9,651.9,582.9,643,571.9,643
		L571.9,643z"/>
	<path class="st0" d="M568.5,1693.2c-8.3,0-15,6.7-15,15s6.7,15,15,15s15-6.7,15-15C583.5,1699.9,576.8,1693.2,568.5,1693.2
		L568.5,1693.2z"/>
	<path class="st0" d="M569,849.8c-8.3,0-15,6.7-15,15s6.7,15,15,15s15-6.7,15-15S577.3,849.8,569,849.8L569,849.8z"/>
	<path class="st0" d="M569.5,1002.4c-8.3,0-15,6.7-15,15c0,8.3,6.7,15,15,15s15-6.7,15-15S577.8,1002.4,569.5,1002.4L569.5,1002.4z"
		/>
	<path class="st0" d="M575.4,1284.6c-11,0-19.9,8.9-19.9,19.9s8.9,19.9,19.9,19.9s19.9-8.9,19.9-19.9
		C595.3,1293.5,586.4,1284.6,575.4,1284.6L575.4,1284.6z"/>
	<path class="st0" d="M579.3,1489.9c-11,0-19.9,8.9-19.9,19.9s8.9,19.9,19.9,19.9s19.9-8.9,19.9-19.9S590.3,1489.9,579.3,1489.9
		L579.3,1489.9z"/>
	<path class="st0" d="M575.4,921.2c-8.3,0-15,6.7-15,15s6.7,15,15,15s15-6.7,15-15S583.7,921.2,575.4,921.2L575.4,921.2z"/>
	<path class="st0" d="M580.8,1728.2c-11,0-19.9,8.9-19.9,19.9s8.9,19.9,19.9,19.9s19.9-8.9,19.9-19.9S591.8,1728.2,580.8,1728.2
		L580.8,1728.2z"/>
	<path class="st0" d="M587.2,1455.4c-8.3,0-15,6.7-15,15s6.7,15,15,15s15-6.7,15-15S595.5,1455.4,587.2,1455.4L587.2,1455.4z"/>
	<path class="st0" d="M593.1,542.1c-11,0-19.9,8.9-19.9,19.9s8.9,19.9,19.9,19.9S613,573,613,562S604.1,542.1,593.1,542.1
		L593.1,542.1z"/>
	<path class="st0" d="M593.6,879.3c-11,0-19.9,8.9-19.9,19.9s8.9,19.9,19.9,19.9s19.9-8.9,19.9-19.9
		C613.5,888.3,604.6,879.3,593.6,879.3L593.6,879.3z"/>
	<path class="st0" d="M595.6,1366.8c-11,0-19.9,8.9-19.9,19.9s8.9,19.9,19.9,19.9s19.9-8.9,19.9-19.9
		C615.5,1375.7,606.6,1366.8,595.6,1366.8L595.6,1366.8z"/>
	<path class="st0" d="M592.6,1543.5c-8.3,0-15,6.7-15,15s6.7,15,15,15s15-6.7,15-15C607.6,1550.3,600.9,1543.5,592.6,1543.5
		L592.6,1543.5z"/>
	<path class="st0" d="M600,784.8c-11,0-19.9,8.9-19.9,19.9s8.9,19.9,19.9,19.9s19.9-8.9,19.9-19.9S611,784.8,600,784.8L600,784.8z"
		/>
	<path class="st0" d="M600,968c-11,0-19.9,8.9-19.9,19.9s8.9,19.9,19.9,19.9s19.9-8.9,19.9-19.9S611,968,600,968L600,968z"/>
	<path class="st0" d="M596.5,1125.5c-8.3,0-15,6.7-15,15s6.7,15,15,15s15-6.7,15-15C611.6,1132.2,604.8,1125.5,596.5,1125.5
		L596.5,1125.5z"/>
	<path class="st0" d="M598.5,829.1c-8.3,0-15,6.7-15,15s6.7,15,15,15s15-6.7,15-15S606.8,829.1,598.5,829.1L598.5,829.1z"/>
	<path class="st0" d="M603.4,1413.1c-11,0-19.9,8.9-19.9,19.9s8.9,19.9,19.9,19.9s19.9-8.9,19.9-19.9S614.4,1413.1,603.4,1413.1
		L603.4,1413.1z"/>
	<path class="st0" d="M604.9,1245.7c-11,0-19.9,8.9-19.9,19.9s8.9,19.9,19.9,19.9s19.9-8.9,19.9-19.9S615.9,1245.7,604.9,1245.7
		L604.9,1245.7z"/>
	<path class="st0" d="M605.9,721.8c-11,0-19.9,8.9-19.9,19.9s8.9,19.9,19.9,19.9s19.9-8.9,19.9-19.9
		C625.8,730.7,616.9,721.8,605.9,721.8L605.9,721.8z"/>
	<path class="st0" d="M602,1159.5c-8.3,0-15,6.7-15,15s6.7,15,15,15s15-6.7,15-15S610.3,1159.5,602,1159.5L602,1159.5z"/>
	<path class="st0" d="M607.4,1033c-11,0-19.9,8.9-19.9,19.9s8.9,19.9,19.9,19.9s19.9-8.9,19.9-19.9
		C627.3,1041.9,618.4,1033,607.4,1033L607.4,1033z"/>
	<path class="st0" d="M609.8,1577c-11,0-19.9,8.9-19.9,19.9s8.9,19.9,19.9,19.9s19.9-8.9,19.9-19.9S620.8,1577,609.8,1577
		L609.8,1577z"/>
	<path class="st0" d="M609.8,1661.7c-11,0-19.9,8.9-19.9,19.9s8.9,19.9,19.9,19.9s19.9-8.9,19.9-19.9
		C629.8,1670.6,620.8,1661.7,609.8,1661.7L609.8,1661.7z"/>
	<path class="st0" d="M606.4,1628.2c-8.3,0-15,6.7-15,15s6.7,15,15,15s15-6.7,15-15S614.7,1628.2,606.4,1628.2L606.4,1628.2z"/>
	<path class="st0" d="M614.3,1313.1c-11,0-19.9,8.9-19.9,19.9s8.9,19.9,19.9,19.9s19.9-8.9,19.9-19.9S625.3,1313.1,614.3,1313.1
		L614.3,1313.1z"/>
	<path class="st0" d="M610.8,1193.5c-8.3,0-15,6.7-15,15s6.7,15,15,15s15-6.7,15-15S619.1,1193.5,610.8,1193.5L610.8,1193.5z"/>
	<path class="st0" d="M611.3,641.5c-8.3,0-15,6.7-15,15s6.7,15,15,15s15-6.7,15-15S619.6,641.5,611.3,641.5L611.3,641.5z"/>
	<path class="st0" d="M616.2,1781.8c-11,0-19.9,8.9-19.9,19.9s8.9,19.9,19.9,19.9s19.9-8.9,19.9-19.9S627.2,1781.8,616.2,1781.8
		L616.2,1781.8z"/>
	<path class="st0" d="M617.7,597.2c-11,0-19.9,8.9-19.9,19.9s8.9,19.9,19.9,19.9s19.9-8.9,19.9-19.9
		C637.7,606.2,628.7,597.2,617.7,597.2L617.7,597.2z"/>
	<path class="st0" d="M613.3,383.5c-8.3,0-15,6.7-15,15s6.7,15,15,15s15-6.7,15-15C628.3,390.3,621.6,383.5,613.3,383.5L613.3,383.5
		z"/>
	<path class="st0" d="M618.7,1491.8c-8.3,0-15,6.7-15,15s6.7,15,15,15s15-6.7,15-15C633.7,1498.6,627,1491.8,618.7,1491.8
		L618.7,1491.8z"/>
	<path class="st0" d="M626.1,916.8c-11,0-19.9,8.9-19.9,19.9s8.9,19.9,19.9,19.9s19.9-8.9,19.9-19.9S637.1,916.8,626.1,916.8
		L626.1,916.8z"/>
	<path class="st0" d="M621.2,1722.3c-8.3,0-15,6.7-15,15s6.7,15,15,15s15-6.7,15-15S629.5,1722.3,621.2,1722.3L621.2,1722.3z"/>
	<path class="st0" d="M627.1,338.7c-11,0-19.9,8.9-19.9,19.9s8.9,19.9,19.9,19.9s19.9-8.9,19.9-19.9
		C647,347.7,638.1,338.7,627.1,338.7L627.1,338.7z"/>
	<path class="st0" d="M627.6,1094c-11,0-19.9,8.9-19.9,19.9s8.9,19.9,19.9,19.9s19.9-8.9,19.9-19.9S638.6,1094,627.6,1094
		L627.6,1094z"/>
	<path class="st0" d="M629,678.5c-11,0-19.9,8.9-19.9,19.9s8.9,19.9,19.9,19.9s19.9-8.9,19.9-19.9C649,687.4,640,678.5,629,678.5
		L629,678.5z"/>
	<path class="st0" d="M633.5,847.3c-11,0-19.9,8.9-19.9,19.9s8.9,19.9,19.9,19.9s19.9-8.9,19.9-19.9
		C653.4,856.3,644.5,847.3,633.5,847.3L633.5,847.3z"/>
	<path class="st0" d="M629.5,1001.5c-8.3,0-15,6.7-15,15c0,8.3,6.7,15,15,15s15-6.7,15-15C644.5,1008.2,637.8,1001.5,629.5,1001.5
		L629.5,1001.5z"/>
	<path class="st0" d="M635.4,495.3c-11,0-19.9,8.9-19.9,19.9c0,11,8.9,19.9,19.9,19.9s19.9-8.9,19.9-19.9
		C655.4,504.2,646.4,495.3,635.4,495.3L635.4,495.3z"/>
	<path class="st0" d="M633.5,813.9c-8.3,0-15,6.7-15,15s6.7,15,15,15s15-6.7,15-15S641.8,813.9,633.5,813.9L633.5,813.9z"/>
	<path class="st0" d="M640.4,762.2c-11,0-19.9,8.9-19.9,19.9s8.9,19.9,19.9,19.9s19.9-8.9,19.9-19.9
		C660.3,771.1,651.4,762.2,640.4,762.2L640.4,762.2z"/>
	<path class="st0" d="M636.9,1276.7c-8.3,0-15,6.7-15,15s6.7,15,15,15s15-6.7,15-15S645.2,1276.7,636.9,1276.7L636.9,1276.7z"/>
	<path class="st0" d="M643.8,1164.4c-11,0-19.9,8.9-19.9,19.9s8.9,19.9,19.9,19.9s19.9-8.9,19.9-19.9
		C663.7,1173.4,654.8,1164.4,643.8,1164.4L643.8,1164.4z"/>
	<path class="st0" d="M646.8,1389.9c-11,0-19.9,8.9-19.9,19.9s8.9,19.9,19.9,19.9s19.9-8.9,19.9-19.9S657.8,1389.9,646.8,1389.9
		L646.8,1389.9z"/>
	<path class="st0" d="M642.3,1059.1c-8.3,0-15,6.7-15,15s6.7,15,15,15s15-6.7,15-15C657.3,1065.8,650.6,1059.1,642.3,1059.1
		L642.3,1059.1z"/>
	<path class="st0" d="M643.3,1557.3c-8.3,0-15,6.7-15,15s6.7,15,15,15s15-6.7,15-15S651.6,1557.3,643.3,1557.3L643.3,1557.3z"/>
	<path class="st0" d="M652.7,1436.2c-11,0-19.9,8.9-19.9,19.9s8.9,19.9,19.9,19.9s19.9-8.9,19.9-19.9
		C672.6,1445.1,663.7,1436.2,652.7,1436.2L652.7,1436.2z"/>
	<path class="st0" d="M655.1,536.2c-11,0-19.9,8.9-19.9,19.9s8.9,19.9,19.9,19.9s19.9-8.9,19.9-19.9
		C675.1,545.1,666.1,536.2,655.1,536.2L655.1,536.2z"/>
	<path class="st0" d="M655.6,1683.9c-11,0-19.9,8.9-19.9,19.9s8.9,19.9,19.9,19.9s19.9-8.9,19.9-19.9
		C675.6,1692.8,666.6,1683.9,655.6,1683.9L655.6,1683.9z"/>
	<path class="st0" d="M655.6,1739c-11,0-19.9,8.9-19.9,19.9s8.9,19.9,19.9,19.9s19.9-8.9,19.9-19.9S666.6,1739,655.6,1739
		L655.6,1739z"/>
	<path class="st0" d="M656.1,1807.9c-11,0-19.9,8.9-19.9,19.9s8.9,19.9,19.9,19.9s19.9-8.9,19.9-19.9
		C676.1,1816.9,667.1,1807.9,656.1,1807.9L656.1,1807.9z"/>
	<path class="st0" d="M656.6,421.5c-11,0-19.9,8.9-19.9,19.9s8.9,19.9,19.9,19.9s19.9-8.9,19.9-19.9S667.6,421.5,656.6,421.5
		L656.6,421.5z"/>
	<path class="st0" d="M656.6,1225c-11,0-19.9,8.9-19.9,19.9s8.9,19.9,19.9,19.9s19.9-8.9,19.9-19.9S667.6,1225,656.6,1225
		L656.6,1225z"/>
	<path class="st0" d="M651.7,1650.4c-8.3,0-15,6.7-15,15s6.7,15,15,15s15-6.7,15-15S660,1650.4,651.7,1650.4L651.7,1650.4z"/>
	<path class="st0" d="M652.2,580.5c-8.3,0-15,6.7-15,15s6.7,15,15,15s15-6.7,15-15S660.5,580.5,652.2,580.5L652.2,580.5z"/>
	<path class="st0" d="M652.2,624.3c-8.3,0-15,6.7-15,15s6.7,15,15,15s15-6.7,15-15S660.5,624.3,652.2,624.3L652.2,624.3z"/>
	<path class="st0" d="M657.1,1331.8c-11,0-19.9,8.9-19.9,19.9s8.9,19.9,19.9,19.9s19.9-8.9,19.9-19.9
		C677,1340.8,668.1,1331.8,657.1,1331.8L657.1,1331.8z"/>
	<path class="st0" d="M652.2,1480.5c-8.3,0-15,6.7-15,15s6.7,15,15,15s15-6.7,15-15S660.5,1480.5,652.2,1480.5L652.2,1480.5z"/>
	<path class="st0" d="M656.6,465.8c-8.3,0-15,6.7-15,15s6.7,15,15,15s15-6.7,15-15S664.9,465.8,656.6,465.8L656.6,465.8z"/>
	<path class="st0" d="M661.5,1515.5c-11,0-19.9,8.9-19.9,19.9s8.9,19.9,19.9,19.9s19.9-8.9,19.9-19.9S672.5,1515.5,661.5,1515.5
		L661.5,1515.5z"/>
	<path class="st0" d="M662,717.9c-11,0-19.9,8.9-19.9,19.9s8.9,19.9,19.9,19.9s19.9-8.9,19.9-19.9C682,726.8,673,717.9,662,717.9
		L662,717.9z"/>
	<path class="st0" d="M662.5,957.6c-11,0-19.9,8.9-19.9,19.9s8.9,19.9,19.9,19.9s19.9-8.9,19.9-19.9S673.5,957.6,662.5,957.6
		L662.5,957.6z"/>
	<path class="st0" d="M659.6,302.3c-8.3,0-15,6.7-15,15s6.7,15,15,15s15-6.7,15-15S667.9,302.3,659.6,302.3L659.6,302.3z"/>
	<path class="st0" d="M670.4,1123.6c-11,0-19.9,8.9-19.9,19.9s8.9,19.9,19.9,19.9s19.9-8.9,19.9-19.9
		C690.3,1132.5,681.4,1123.6,670.4,1123.6L670.4,1123.6z"/>
	<path class="st0" d="M675.3,1002.4c-11,0-19.9,8.9-19.9,19.9s8.9,19.9,19.9,19.9s19.9-8.9,19.9-19.9
		C695.3,1011.4,686.3,1002.4,675.3,1002.4L675.3,1002.4z"/>
	<path class="st0" d="M675.8,819.8c-11,0-19.9,8.9-19.9,19.9s8.9,19.9,19.9,19.9s19.9-8.9,19.9-19.9S686.8,819.8,675.8,819.8
		L675.8,819.8z"/>
	<path class="st0" d="M675.8,1612c-11,0-19.9,8.9-19.9,19.9s8.9,19.9,19.9,19.9s19.9-8.9,19.9-19.9S686.8,1612,675.8,1612
		L675.8,1612z"/>
	<path class="st0" d="M678.8,675.5c-11,0-19.9,8.9-19.9,19.9s8.9,19.9,19.9,19.9s19.9-8.9,19.9-19.9S689.8,675.5,678.8,675.5
		L678.8,675.5z"/>
	<path class="st0" d="M679.7,892.6c-11,0-19.9,8.9-19.9,19.9s8.9,19.9,19.9,19.9s19.9-8.9,19.9-19.9
		C699.7,901.6,690.8,892.6,679.7,892.6L679.7,892.6z"/>
	<path class="st0" d="M677.8,1778.4c-8.3,0-15,6.7-15,15s6.7,15,15,15s15-6.7,15-15S686.1,1778.4,677.8,1778.4L677.8,1778.4z"/>
	<path class="st0" d="M678.3,1565.7c-8.3,0-15,6.7-15,15s6.7,15,15,15s15-6.7,15-15C693.3,1572.4,686.6,1565.7,678.3,1565.7
		L678.3,1565.7z"/>
	<path class="st0" d="M684.2,341.7c-11,0-19.9,8.9-19.9,19.9s8.9,19.9,19.9,19.9s19.9-8.9,19.9-19.9
		C704.1,350.6,695.2,341.7,684.2,341.7L684.2,341.7z"/>
	<path class="st0" d="M683.2,642c-8.3,0-15,6.7-15,15s6.7,15,15,15s15-6.7,15-15C698.2,648.8,691.5,642,683.2,642L683.2,642z"/>
	<path class="st0" d="M688.6,1291.9c-11,0-19.9,8.9-19.9,19.9s8.9,19.9,19.9,19.9s19.9-8.9,19.9-19.9
		C708.6,1300.9,699.6,1291.9,688.6,1291.9L688.6,1291.9z"/>
	<path class="st0" d="M689.1,594.8c-11,0-19.9,8.9-19.9,19.9s8.9,19.9,19.9,19.9s19.9-8.9,19.9-19.9S700.1,594.8,689.1,594.8
		L689.1,594.8z"/>
	<path class="st0" d="M690.6,1052.2c-11,0-19.9,8.9-19.9,19.9s8.9,19.9,19.9,19.9s19.9-8.9,19.9-19.9S701.6,1052.2,690.6,1052.2
		L690.6,1052.2z"/>
	<path class="st0" d="M686.1,1258.5c-8.3,0-15,6.7-15,15s6.7,15,15,15s15-6.7,15-15C701.2,1265.2,694.4,1258.5,686.1,1258.5
		L686.1,1258.5z"/>
	<path class="st0" d="M686.1,1471.2c-8.3,0-15,6.7-15,15s6.7,15,15,15s15-6.7,15-15C701.2,1477.9,694.4,1471.2,686.1,1471.2
		L686.1,1471.2z"/>
	<path class="st0" d="M686.1,1716.4c-8.3,0-15,6.7-15,15s6.7,15,15,15s15-6.7,15-15S694.4,1716.4,686.1,1716.4L686.1,1716.4z"/>
	<path class="st0" d="M692.5,483.5c-11,0-19.9,8.9-19.9,19.9c0,11,8.9,19.9,19.9,19.9s19.9-8.9,19.9-19.9
		C712.5,492.4,703.6,483.5,692.5,483.5L692.5,483.5z"/>
	<path class="st0" d="M688.1,386c-8.3,0-15,6.7-15,15s6.7,15,15,15s15-6.7,15-15S696.4,386,688.1,386L688.1,386z"/>
	<path class="st0" d="M690.6,561.3c-8.3,0-15,6.7-15,15s6.7,15,15,15s15-6.7,15-15S698.9,561.3,690.6,561.3L690.6,561.3z"/>
	<path class="st0" d="M696.5,1427.3c-11,0-19.9,8.9-19.9,19.9s8.9,19.9,19.9,19.9s19.9-8.9,19.9-19.9S707.5,1427.3,696.5,1427.3
		L696.5,1427.3z"/>
	<path class="st0" d="M699.9,433.8c-11,0-19.9,8.9-19.9,19.9s8.9,19.9,19.9,19.9s19.9-8.9,19.9-19.9
		C719.9,442.7,710.9,433.8,699.9,433.8L699.9,433.8z"/>
	<path class="st0" d="M695,860.6c-8.3,0-15,6.7-15,15s6.7,15,15,15s15-6.7,15-15C710,867.4,703.3,860.6,695,860.6L695,860.6z"/>
	<path class="st0" d="M700.4,746.9c-11,0-19.9,8.9-19.9,19.9s8.9,19.9,19.9,19.9s19.9-8.9,19.9-19.9
		C720.4,755.8,711.4,746.9,700.4,746.9L700.4,746.9z"/>
	<path class="st0" d="M695.5,1096.5c-8.3,0-15,6.7-15,15s6.7,15,15,15s15-6.7,15-15S703.8,1096.5,695.5,1096.5L695.5,1096.5z"/>
	<path class="st0" d="M700.9,1370.2c-11,0-19.9,8.9-19.9,19.9s8.9,19.9,19.9,19.9s19.9-8.9,19.9-19.9
		C720.9,1379.2,711.9,1370.2,700.9,1370.2L700.9,1370.2z"/>
	<path class="st0" d="M696.5,1336.3c-8.3,0-15,6.7-15,15s6.7,15,15,15s15-6.7,15-15S704.8,1336.3,696.5,1336.3L696.5,1336.3z"/>
	<path class="st0" d="M701.4,1661.7c-11,0-19.9,8.9-19.9,19.9s8.9,19.9,19.9,19.9s19.9-8.9,19.9-19.9
		C721.4,1670.6,712.4,1661.7,701.4,1661.7L701.4,1661.7z"/>
	<path class="st0" d="M707.8,1166.9c-11,0-19.9,8.9-19.9,19.9s8.9,19.9,19.9,19.9s19.9-8.9,19.9-19.9
		C727.8,1175.8,718.8,1166.9,707.8,1166.9L707.8,1166.9z"/>
	<path class="st0" d="M710.8,970.9c-11,0-19.9,8.9-19.9,19.9s8.9,19.9,19.9,19.9s19.9-8.9,19.9-19.9
		C730.7,979.9,721.8,970.9,710.8,970.9L710.8,970.9z"/>
	<path class="st0" d="M706.3,797.6c-8.3,0-15,6.7-15,15s6.7,15,15,15s15-6.7,15-15S714.6,797.6,706.3,797.6L706.3,797.6z"/>
	<path class="st0" d="M711.8,1583.4c-11,0-19.9,8.9-19.9,19.9s8.9,19.9,19.9,19.9s19.9-8.9,19.9-19.9S722.8,1583.4,711.8,1583.4
		L711.8,1583.4z"/>
	<path class="st0" d="M713.7,1741c-11,0-19.9,8.9-19.9,19.9s8.9,19.9,19.9,19.9s19.9-8.9,19.9-19.9
		C733.7,1749.9,724.7,1741,713.7,1741L713.7,1741z"/>
	<path class="st0" d="M716.7,926.1c-11,0-19.9,8.9-19.9,19.9s8.9,19.9,19.9,19.9s19.9-8.9,19.9-19.9
		C736.6,935.1,727.7,926.1,716.7,926.1L716.7,926.1z"/>
	<path class="st0" d="M711.8,1549.9c-8.3,0-15,6.7-15,15s6.7,15,15,15s15-6.7,15-15C726.8,1556.7,720,1549.9,711.8,1549.9
		L711.8,1549.9z"/>
	<path class="st0" d="M724.1,526.3c-11,0-19.9,8.9-19.9,19.9s8.9,19.9,19.9,19.9s19.9-8.9,19.9-19.9
		C744,535.3,735.1,526.3,724.1,526.3L724.1,526.3z"/>
	<path class="st0" d="M726,324c-11,0-19.9,8.9-19.9,19.9s8.9,19.9,19.9,19.9s19.9-8.9,19.9-19.9S737,324,726,324L726,324z"/>
	<path class="st0" d="M726.5,268.8c-11,0-19.9,8.9-19.9,19.9s8.9,19.9,19.9,19.9s19.9-8.9,19.9-19.9S737.5,268.8,726.5,268.8
		L726.5,268.8z"/>
	<path class="st0" d="M722.1,689.3c-8.3,0-15,6.7-15,15s6.7,15,15,15s15-6.7,15-15S730.4,689.3,722.1,689.3L722.1,689.3z"/>
	<path class="st0" d="M727.5,1213.2c-11,0-19.9,8.9-19.9,19.9s8.9,19.9,19.9,19.9s19.9-8.9,19.9-19.9S738.5,1213.2,727.5,1213.2
		L727.5,1213.2z"/>
	<path class="st0" d="M731.9,1507.6c-11,0-19.9,8.9-19.9,19.9s8.9,19.9,19.9,19.9s19.9-8.9,19.9-19.9
		C751.9,1516.5,743,1507.6,731.9,1507.6L731.9,1507.6z"/>
	<path class="st0" d="M732.4,639.1c-11,0-19.9,8.9-19.9,19.9s8.9,19.9,19.9,19.9s19.9-8.9,19.9-19.9
		C752.4,648,743.4,639.1,732.4,639.1L732.4,639.1z"/>
	<path class="st0" d="M732.9,367.8c-11,0-19.9,8.9-19.9,19.9s8.9,19.9,19.9,19.9s19.9-8.9,19.9-19.9
		C752.9,376.7,743.9,367.8,732.9,367.8L732.9,367.8z"/>
	<path class="st0" d="M728,1406.2c-8.3,0-15,6.7-15,15s6.7,15,15,15s15-6.7,15-15C743,1412.9,736.3,1406.2,728,1406.2L728,1406.2z"
		/>
	<path class="st0" d="M728.5,599.7c-8.3,0-15,6.7-15,15s6.7,15,15,15s15-6.7,15-15S736.8,599.7,728.5,599.7L728.5,599.7z"/>
	<path class="st0" d="M733.4,1261.9c-11,0-19.9,8.9-19.9,19.9s8.9,19.9,19.9,19.9s19.9-8.9,19.9-19.9
		C753.4,1270.8,744.4,1261.9,733.4,1261.9L733.4,1261.9z"/>
	<path class="st0" d="M729.5,723.3c-8.3,0-15,6.7-15,15s6.7,15,15,15s15-6.7,15-15S737.8,723.3,729.5,723.3L729.5,723.3z"/>
	<path class="st0" d="M731,1312.1c-8.3,0-15,6.7-15,15s6.7,15,15,15s15-6.7,15-15S739.2,1312.1,731,1312.1L731,1312.1z"/>
	<path class="st0" d="M731.9,483.5c-8.3,0-15,6.7-15,15s6.7,15,15,15s15-6.7,15-15C747,490.2,740.2,483.5,731.9,483.5L731.9,483.5z"
		/>
	<path class="st0" d="M738.3,1131.9c-11,0-19.9,8.9-19.9,19.9s8.9,19.9,19.9,19.9s19.9-8.9,19.9-19.9
		C758.3,1140.9,749.4,1131.9,738.3,1131.9L738.3,1131.9z"/>
	<path class="st0" d="M739.3,1067.9c-11,0-19.9,8.9-19.9,19.9s8.9,19.9,19.9,19.9s19.9-8.9,19.9-19.9
		C759.3,1076.8,750.3,1067.9,739.3,1067.9L739.3,1067.9z"/>
	<path class="st0" d="M740.8,832.1c-11,0-19.9,8.9-19.9,19.9s8.9,19.9,19.9,19.9s19.9-8.9,19.9-19.9S751.8,832.1,740.8,832.1
		L740.8,832.1z"/>
	<path class="st0" d="M740.8,1460.3c-11,0-19.9,8.9-19.9,19.9s8.9,19.9,19.9,19.9s19.9-8.9,19.9-19.9S751.8,1460.3,740.8,1460.3
		L740.8,1460.3z"/>
	<path class="st0" d="M743.3,1023.6c-11,0-19.9,8.9-19.9,19.9s8.9,19.9,19.9,19.9s19.9-8.9,19.9-19.9S754.3,1023.6,743.3,1023.6
		L743.3,1023.6z"/>
	<path class="st0" d="M740.3,898.1c-8.3,0-15,6.7-15,15s6.7,15,15,15s15-6.7,15-15S748.6,898.1,740.3,898.1L740.3,898.1z"/>
	<path class="st0" d="M747.7,759.7c-11,0-19.9,8.9-19.9,19.9s8.9,19.9,19.9,19.9s19.9-8.9,19.9-19.9
		C767.6,768.6,758.7,759.7,747.7,759.7L747.7,759.7z"/>
	<path class="st0" d="M754.6,1340.2c-11,0-19.9,8.9-19.9,19.9s8.9,19.9,19.9,19.9s19.9-8.9,19.9-19.9S765.6,1340.2,754.6,1340.2
		L754.6,1340.2z"/>
	<path class="st0" d="M758.5,566.7c-11,0-19.9,8.9-19.9,19.9s8.9,19.9,19.9,19.9s19.9-8.9,19.9-19.9
		C778.5,575.6,769.5,566.7,758.5,566.7L758.5,566.7z"/>
	<path class="st0" d="M755.1,981.8c-8.3,0-15,6.7-15,15s6.7,15,15,15s15-6.7,15-15S763.4,981.8,755.1,981.8L755.1,981.8z"/>
	<path class="st0" d="M760.5,429.3c-11,0-19.9,8.9-19.9,19.9s8.9,19.9,19.9,19.9s19.9-8.9,19.9-19.9
		C780.4,438.3,771.5,429.3,760.5,429.3L760.5,429.3z"/>
	<path class="st0" d="M755.6,938.9c-8.3,0-15,6.7-15,15s6.7,15,15,15s15-6.7,15-15C770.6,945.6,763.9,938.9,755.6,938.9L755.6,938.9
		z"/>
	<path class="st0" d="M757,698.7c-8.3,0-15,6.7-15,15s6.7,15,15,15s15-6.7,15-15C772.1,705.4,765.3,698.7,757,698.7L757,698.7z"/>
	<path class="st0" d="M764.9,293.4c-11,0-19.9,8.9-19.9,19.9s8.9,19.9,19.9,19.9s19.9-8.9,19.9-19.9S775.9,293.4,764.9,293.4
		L764.9,293.4z"/>
	<path class="st0" d="M761,614c-8.3,0-15,6.7-15,15s6.7,15,15,15s15-6.7,15-15S769.3,614,761,614L761,614z"/>
	<path class="st0" d="M763.4,344.2c-8.3,0-15,6.7-15,15s6.7,15,15,15s15-6.7,15-15C778.5,350.9,771.7,344.2,763.4,344.2L763.4,344.2
		z"/>
	<path class="st0" d="M763.4,527.8c-8.3,0-15,6.7-15,15s6.7,15,15,15s15-6.7,15-15C778.5,534.5,771.7,527.8,763.4,527.8L763.4,527.8
		z"/>
	<path class="st0" d="M766.4,239.8c-8.3,0-15,6.7-15,15s6.7,15,15,15s15-6.7,15-15S774.7,239.8,766.4,239.8L766.4,239.8z"/>
	<path class="st0" d="M766.9,806c-8.3,0-15,6.7-15,15s6.7,15,15,15s15-6.7,15-15S775.2,806,766.9,806L766.9,806z"/>
	<path class="st0" d="M772.3,379.1c-8.3,0-15,6.7-15,15s6.7,15,15,15s15-6.7,15-15C787.3,385.8,780.6,379.1,772.3,379.1L772.3,379.1
		z"/>
	<path class="st0" d="M782.2,1396.8c-11,0-19.9,8.9-19.9,19.9s8.9,19.9,19.9,19.9s19.9-8.9,19.9-19.9S793.2,1396.8,782.2,1396.8
		L782.2,1396.8z"/>
	<path class="st0" d="M778.2,737.6c-8.3,0-15,6.7-15,15s6.7,15,15,15s15-6.7,15-15S786.5,737.6,778.2,737.6L778.2,737.6z"/>
	<path class="st0" d="M779.2,1488.4c-8.3,0-15,6.7-15,15s6.7,15,15,15s15-6.7,15-15S787.5,1488.4,779.2,1488.4L779.2,1488.4z"/>
	<path class="st0" d="M785.6,643.5c-11,0-19.9,8.9-19.9,19.9s8.9,19.9,19.9,19.9s19.9-8.9,19.9-19.9S796.6,643.5,785.6,643.5
		L785.6,643.5z"/>
	<path class="st0" d="M787.6,1006.9c-11,0-19.9,8.9-19.9,19.9s8.9,19.9,19.9,19.9s19.9-8.9,19.9-19.9
		C807.5,1015.8,798.6,1006.9,787.6,1006.9L787.6,1006.9z"/>
	<path class="st0" d="M784.6,960.1c-8.3,0-15,6.7-15,15s6.7,15,15,15s15-6.7,15-15S792.9,960.1,784.6,960.1L784.6,960.1z"/>
	<path class="st0" d="M790,201.4c-11,0-19.9,8.9-19.9,19.9s8.9,19.9,19.9,19.9s19.9-8.9,19.9-19.9C810,210.3,801,201.4,790,201.4
		L790,201.4z"/>
	<path class="st0" d="M790,465.8c-11,0-19.9,8.9-19.9,19.9s8.9,19.9,19.9,19.9s19.9-8.9,19.9-19.9C810,474.7,801,465.8,790,465.8
		L790,465.8z"/>
	<path class="st0" d="M792.5,860.6c-11,0-19.9,8.9-19.9,19.9s8.9,19.9,19.9,19.9s19.9-8.9,19.9-19.9
		C812.4,869.6,803.5,860.6,792.5,860.6L792.5,860.6z"/>
	<path class="st0" d="M795.9,695.7c-11,0-19.9,8.9-19.9,19.9s8.9,19.9,19.9,19.9s19.9-8.9,19.9-19.9S807,695.7,795.9,695.7
		L795.9,695.7z"/>
	<path class="st0" d="M797.9,1327.4c-11,0-19.9,8.9-19.9,19.9s8.9,19.9,19.9,19.9s19.9-8.9,19.9-19.9S808.9,1327.4,797.9,1327.4
		L797.9,1327.4z"/>
	<path class="st0" d="M794,167.9c-8.3,0-15,6.7-15,15s6.7,15,15,15s15-6.7,15-15S802.3,167.9,794,167.9L794,167.9z"/>
	<path class="st0" d="M803.8,771c-11,0-19.9,8.9-19.9,19.9s8.9,19.9,19.9,19.9s19.9-8.9,19.9-19.9C823.8,780,814.8,771,803.8,771
		L803.8,771z"/>
	<path class="st0" d="M803.8,919.2c-11,0-19.9,8.9-19.9,19.9s8.9,19.9,19.9,19.9s19.9-8.9,19.9-19.9
		C823.8,928.2,814.8,919.2,803.8,919.2L803.8,919.2z"/>
	<path class="st0" d="M806.8,814.9c-11,0-19.9,8.9-19.9,19.9s8.9,19.9,19.9,19.9s19.9-8.9,19.9-19.9S817.8,814.9,806.8,814.9
		L806.8,814.9z"/>
	<path class="st0" d="M808.3,1447c-11,0-19.9,8.9-19.9,19.9s8.9,19.9,19.9,19.9s19.9-8.9,19.9-19.9
		C828.2,1456,819.3,1447,808.3,1447L808.3,1447z"/>
	<path class="st0" d="M804.3,292c-8.3,0-15,6.7-15,15s6.7,15,15,15s15-6.7,15-15S812.6,292,804.3,292L804.3,292z"/>
	<path class="st0" d="M809.7,517.5c-11,0-19.9,8.9-19.9,19.9s8.9,19.9,19.9,19.9s19.9-8.9,19.9-19.9
		C829.7,526.4,820.7,517.5,809.7,517.5L809.7,517.5z"/>
	<path class="st0" d="M811.7,241.3c-11,0-19.9,8.9-19.9,19.9c0,11,8.9,19.9,19.9,19.9s19.9-8.9,19.9-19.9
		C831.6,250.2,822.7,241.3,811.7,241.3L811.7,241.3z"/>
	<path class="st0" d="M806.8,570.6c-8.3,0-15,6.7-15,15s6.7,15,15,15s15-6.7,15-15S815.1,570.6,806.8,570.6L806.8,570.6z"/>
	<path class="st0" d="M809.2,1371.2c-8.3,0-15,6.7-15,15s6.7,15,15,15s15-6.7,15-15C824.3,1377.9,817.5,1371.2,809.2,1371.2
		L809.2,1371.2z"/>
	<path class="st0" d="M816.6,408.7c-11,0-19.9,8.9-19.9,19.9s8.9,19.9,19.9,19.9s19.9-8.9,19.9-19.9
		C836.6,417.6,827.6,408.7,816.6,408.7L816.6,408.7z"/>
	<path class="st0" d="M826,1402.7c-11,0-19.9,8.9-19.9,19.9s8.9,19.9,19.9,19.9s19.9-8.9,19.9-19.9
		C845.9,1411.7,837,1402.7,826,1402.7L826,1402.7z"/>
	<path class="st0" d="M827.5,600.2c-11,0-19.9,8.9-19.9,19.9s8.9,19.9,19.9,19.9s19.9-8.9,19.9-19.9
		C847.4,609.1,838.5,600.2,827.5,600.2L827.5,600.2z"/>
	<path class="st0" d="M823,370.7c-8.3,0-15,6.7-15,15s6.7,15,15,15s15-6.7,15-15S831.3,370.7,823,370.7L823,370.7z"/>
	<path class="st0" d="M825,644.5c-8.3,0-15,6.7-15,15s6.7,15,15,15s15-6.7,15-15S833.3,644.5,825,644.5L825,644.5z"/>
	<path class="st0" d="M830.4,326.4c-11,0-19.9,8.9-19.9,19.9s8.9,19.9,19.9,19.9s19.9-8.9,19.9-19.9
		C850.3,335.4,841.4,326.4,830.4,326.4L830.4,326.4z"/>
	<path class="st0" d="M831.4,955.7c-11,0-19.9,8.9-19.9,19.9s8.9,19.9,19.9,19.9s19.9-8.9,19.9-19.9
		C851.3,964.6,842.4,955.7,831.4,955.7L831.4,955.7z"/>
	<path class="st0" d="M827.5,1699.6c-8.3,0-15,6.7-15,15s6.7,15,15,15s15-6.7,15-15C842.5,1706.3,835.7,1699.6,827.5,1699.6
		L827.5,1699.6z"/>
	<path class="st0" d="M828.9,486.9c-8.3,0-15,6.7-15,15s6.7,15,15,15s15-6.7,15-15C843.9,493.7,837.2,486.9,828.9,486.9L828.9,486.9
		z"/>
	<path class="st0" d="M839.3,1655.8c-11,0-19.9,8.9-19.9,19.9s8.9,19.9,19.9,19.9s19.9-8.9,19.9-19.9
		C859.2,1664.7,850.3,1655.8,839.3,1655.8L839.3,1655.8z"/>
	<path class="st0" d="M835.8,209.3c-8.3,0-15,6.7-15,15s6.7,15,15,15s15-6.7,15-15S844.1,209.3,835.8,209.3L835.8,209.3z"/>
	<path class="st0" d="M842.2,728.2c-11,0-19.9,8.9-19.9,19.9s8.9,19.9,19.9,19.9s19.9-8.9,19.9-19.9
		C862.2,737.1,853.2,728.2,842.2,728.2L842.2,728.2z"/>
	<path class="st0" d="M837.8,552.4c-8.3,0-15,6.7-15,15s6.7,15,15,15s15-6.7,15-15C852.8,559.1,846.1,552.4,837.8,552.4L837.8,552.4
		z"/>
	<path class="st0" d="M842.7,915.3c-8.3,0-15,6.7-15,15s6.7,15,15,15s15-6.7,15-15S851,915.3,842.7,915.3L842.7,915.3z"/>
	<path class="st0" d="M851.1,445.1c-11,0-19.9,8.9-19.9,19.9s8.9,19.9,19.9,19.9S871,476,871,465S862.1,445.1,851.1,445.1
		L851.1,445.1z"/>
	<path class="st0" d="M851.6,671.1c-11,0-19.9,8.9-19.9,19.9s8.9,19.9,19.9,19.9s19.9-8.9,19.9-19.9S862.6,671.1,851.6,671.1
		L851.6,671.1z"/>
	<path class="st0" d="M848.1,839c-8.3,0-15,6.7-15,15s6.7,15,15,15s15-6.7,15-15C863.2,845.7,856.4,839,848.1,839L848.1,839z"/>
	<path class="st0" d="M849.1,261.9c-8.3,0-15,6.7-15,15s6.7,15,15,15s15-6.7,15-15C864.1,268.7,857.4,261.9,849.1,261.9L849.1,261.9
		z"/>
	<path class="st0" d="M852.6,789.2c-8.3,0-15,6.7-15,15s6.7,15,15,15s15-6.7,15-15C867.6,796,860.9,789.2,852.6,789.2L852.6,789.2z"
		/>
	<path class="st0" d="M858.5,872.9c-11,0-19.9,8.9-19.9,19.9s8.9,19.9,19.9,19.9s19.9-8.9,19.9-19.9
		C878.4,881.9,869.5,872.9,858.5,872.9L858.5,872.9z"/>
	<path class="st0" d="M854,1623.3c-8.3,0-15,6.7-15,15s6.7,15,15,15s15-6.7,15-15C869.1,1630,862.3,1623.3,854,1623.3L854,1623.3z"
		/>
	<path class="st0" d="M863.4,491.9c-8.3,0-15,6.7-15,15c0,8.3,6.7,15,15,15s15-6.7,15-15S871.7,491.9,863.4,491.9L863.4,491.9z"/>
	<path class="st0" d="M869.8,181.7c-11,0-19.9,8.9-19.9,19.9s8.9,19.9,19.9,19.9s19.9-8.9,19.9-19.9
		C889.7,190.6,880.8,181.7,869.8,181.7L869.8,181.7z"/>
	<path class="st0" d="M872.8,355c-11,0-19.9,8.9-19.9,19.9s8.9,19.9,19.9,19.9s19.9-8.9,19.9-19.9S883.8,355,872.8,355L872.8,355z"
		/>
	<path class="st0" d="M868.3,575.6c-8.3,0-15,6.7-15,15s6.7,15,15,15s15-6.7,15-15S876.6,575.6,868.3,575.6L868.3,575.6z"/>
	<path class="st0" d="M868.8,320c-8.3,0-15,6.7-15,15s6.7,15,15,15s15-6.7,15-15C883.8,326.8,877.1,320,868.8,320L868.8,320z"/>
	<path class="st0" d="M880.1,400.8c-11,0-19.9,8.9-19.9,19.9s8.9,19.9,19.9,19.9s19.9-8.9,19.9-19.9S891.1,400.8,880.1,400.8
		L880.1,400.8z"/>
	<path class="st0" d="M875.7,226c-8.3,0-15,6.7-15,15s6.7,15,15,15s15-6.7,15-15S884,226,875.7,226L875.7,226z"/>
	<path class="st0" d="M880.6,608.6c-11,0-19.9,8.9-19.9,19.9s8.9,19.9,19.9,19.9s19.9-8.9,19.9-19.9
		C900.6,617.5,891.6,608.6,880.6,608.6L880.6,608.6z"/>
	<path class="st0" d="M882.6,811.9c-11,0-19.9,8.9-19.9,19.9s8.9,19.9,19.9,19.9s19.9-8.9,19.9-19.9S893.6,811.9,882.6,811.9
		L882.6,811.9z"/>
	<path class="st0" d="M885.1,910.4c-11,0-19.9,8.9-19.9,19.9s8.9,19.9,19.9,19.9s19.9-8.9,19.9-19.9
		C905,919.3,896.1,910.4,885.1,910.4L885.1,910.4z"/>
	<path class="st0" d="M887,752.3c-11,0-19.9,8.9-19.9,19.9s8.9,19.9,19.9,19.9s19.9-8.9,19.9-19.9C907,761.2,898,752.3,887,752.3
		L887,752.3z"/>
	<path class="st0" d="M888.5,524.4c-11,0-19.9,8.9-19.9,19.9s8.9,19.9,19.9,19.9s19.9-8.9,19.9-19.9
		C908.4,533.3,899.5,524.4,888.5,524.4L888.5,524.4z"/>
	<path class="st0" d="M883.6,144.3c-8.3,0-15,6.7-15,15s6.7,15,15,15s15-6.7,15-15S891.9,144.3,883.6,144.3L883.6,144.3z"/>
	<path class="st0" d="M885.1,652.9c-8.3,0-15,6.7-15,15s6.7,15,15,15s15-6.7,15-15C900.1,659.6,893.4,652.9,885.1,652.9L885.1,652.9
		z"/>
	<path class="st0" d="M899.8,690.3c-11,0-19.9,8.9-19.9,19.9s8.9,19.9,19.9,19.9s19.9-8.9,19.9-19.9
		C919.8,699.2,910.8,690.3,899.8,690.3L899.8,690.3z"/>
	<path class="st0" d="M902.8,268.8c-11,0-19.9,8.9-19.9,19.9s8.9,19.9,19.9,19.9s19.9-8.9,19.9-19.9S913.8,268.8,902.8,268.8
		L902.8,268.8z"/>
	<path class="st0" d="M900.3,489.4c-8.3,0-15,6.7-15,15c0,8.3,6.7,15,15,15s15-6.7,15-15C915.3,496.1,908.6,489.4,900.3,489.4
		L900.3,489.4z"/>
	<path class="st0" d="M906.2,445.1c-11,0-19.9,8.9-19.9,19.9s8.9,19.9,19.9,19.9s19.9-8.9,19.9-19.9S917.2,445.1,906.2,445.1
		L906.2,445.1z"/>
	<path class="st0" d="M909.2,184.1c-8.3,0-15,6.7-15,15s6.7,15,15,15s15-6.7,15-15C924.2,190.9,917.5,184.1,909.2,184.1L909.2,184.1
		z"/>
	<path class="st0" d="M916.6,1352.5c-11,0-19.9,8.9-19.9,19.9s8.9,19.9,19.9,19.9s19.9-8.9,19.9-19.9S927.6,1352.5,916.6,1352.5
		L916.6,1352.5z"/>
	<path class="st0" d="M918,350.6c-11,0-19.9,8.9-19.9,19.9s8.9,19.9,19.9,19.9s19.9-8.9,19.9-19.9C938,359.5,929.1,350.6,918,350.6
		L918,350.6z"/>
	<path class="st0" d="M915.6,634.6c-8.3,0-15,6.7-15,15s6.7,15,15,15s15-6.7,15-15C930.6,641.4,923.9,634.6,915.6,634.6L915.6,634.6
		z"/>
	<path class="st0" d="M917.6,873.9c-8.3,0-15,6.7-15,15s6.7,15,15,15s15-6.7,15-15S925.8,873.9,917.6,873.9L917.6,873.9z"/>
	<path class="st0" d="M930.8,759.7c-11,0-19.9,8.9-19.9,19.9s8.9,19.9,19.9,19.9s19.9-8.9,19.9-19.9
		C950.8,768.6,941.9,759.7,930.8,759.7L930.8,759.7z"/>
	<path class="st0" d="M935.3,215.2c-11,0-19.9,8.9-19.9,19.9s8.9,19.9,19.9,19.9s19.9-8.9,19.9-19.9S946.3,215.2,935.3,215.2
		L935.3,215.2z"/>
	<path class="st0" d="M930.8,96.5c-8.3,0-15,6.7-15,15s6.7,15,15,15s15-6.7,15-15C945.9,103.2,939.1,96.5,930.8,96.5L930.8,96.5z"/>
	<path class="st0" d="M936.3,308.2c-11,0-19.9,8.9-19.9,19.9s8.9,19.9,19.9,19.9s19.9-8.9,19.9-19.9S947.3,308.2,936.3,308.2
		L936.3,308.2z"/>
	<path class="st0" d="M936.3,565.7c-11,0-19.9,8.9-19.9,19.9s8.9,19.9,19.9,19.9s19.9-8.9,19.9-19.9
		C956.2,574.6,947.3,565.7,936.3,565.7L936.3,565.7z"/>
	<path class="st0" d="M937.7,833.6c-11,0-19.9,8.9-19.9,19.9s8.9,19.9,19.9,19.9s19.9-8.9,19.9-19.9
		C957.7,842.5,948.8,833.6,937.7,833.6L937.7,833.6z"/>
	<path class="st0" d="M940.7,130c-11,0-19.9,8.9-19.9,19.9s8.9,19.9,19.9,19.9s19.9-8.9,19.9-19.9S951.7,130,940.7,130L940.7,130z"
		/>
	<path class="st0" d="M942.2,666.7c-11,0-19.9,8.9-19.9,19.9s8.9,19.9,19.9,19.9s19.9-8.9,19.9-19.9
		C962.1,675.6,953.2,666.7,942.2,666.7L942.2,666.7z"/>
	<path class="st0" d="M944.6,710.5c-11,0-19.9,8.9-19.9,19.9s8.9,19.9,19.9,19.9s19.9-8.9,19.9-19.9S955.6,710.5,944.6,710.5
		L944.6,710.5z"/>
	<path class="st0" d="M940.2,259.5c-8.3,0-15,6.7-15,15s6.7,15,15,15s15-6.7,15-15S948.5,259.5,940.2,259.5L940.2,259.5z"/>
	<path class="st0" d="M946.6,396.8c-11,0-19.9,8.9-19.9,19.9s8.9,19.9,19.9,19.9s19.9-8.9,19.9-19.9S957.6,396.8,946.6,396.8
		L946.6,396.8z"/>
	<path class="st0" d="M947.1,516c-11,0-19.9,8.9-19.9,19.9s8.9,19.9,19.9,19.9s19.9-8.9,19.9-19.9S958.1,516,947.1,516L947.1,516z"
		/>
	<path class="st0" d="M949.1,466.8c-11,0-19.9,8.9-19.9,19.9s8.9,19.9,19.9,19.9s19.9-8.9,19.9-19.9
		C969,475.7,960.1,466.8,949.1,466.8L949.1,466.8z"/>
	<path class="st0" d="M952,173.3c-11,0-19.9,8.9-19.9,19.9s8.9,19.9,19.9,19.9s19.9-8.9,19.9-19.9C972,182.2,963,173.3,952,173.3
		L952,173.3z"/>
	<path class="st0" d="M956.9,363.4c-8.3,0-15,6.7-15,15s6.7,15,15,15s15-6.7,15-15C972,370.1,965.2,363.4,956.9,363.4L956.9,363.4z"
		/>
	<path class="st0" d="M967.8,1062.5c-11,0-19.9,8.9-19.9,19.9s8.9,19.9,19.9,19.9s19.9-8.9,19.9-19.9S978.8,1062.5,967.8,1062.5
		L967.8,1062.5z"/>
	<path class="st0" d="M970.2,290.5c-8.3,0-15,6.7-15,15s6.7,15,15,15s15-6.7,15-15C985.3,297.2,978.5,290.5,970.2,290.5L970.2,290.5
		z"/>
	<path class="st0" d="M977.6,602.2c-11,0-19.9,8.9-19.9,19.9s8.9,19.9,19.9,19.9s19.9-8.9,19.9-19.9
		C997.6,611.1,988.6,602.2,977.6,602.2L977.6,602.2z"/>
	<path class="st0" d="M978.1,1014.7c-11,0-19.9,8.9-19.9,19.9c0,11,8.9,19.9,19.9,19.9s19.9-8.9,19.9-19.9
		C998.1,1023.7,989.1,1014.7,978.1,1014.7L978.1,1014.7z"/>
	<path class="st0" d="M974.2,212.7c-8.3,0-15,6.7-15,15s6.7,15,15,15s15-6.7,15-15S982.5,212.7,974.2,212.7L974.2,212.7z"/>
	<path class="st0" d="M981.1,1115.7c-11,0-19.9,8.9-19.9,19.9s8.9,19.9,19.9,19.9s19.9-8.9,19.9-19.9S992.1,1115.7,981.1,1115.7
		L981.1,1115.7z"/>
	<path class="st0" d="M982.5,646c-11,0-19.9,8.9-19.9,19.9s8.9,19.9,19.9,19.9s19.9-8.9,19.9-19.9C1002.5,654.9,993.6,646,982.5,646
		L982.5,646z"/>
	<path class="st0" d="M978.1,568.7c-8.3,0-15,6.7-15,15s6.7,15,15,15s15-6.7,15-15S986.4,568.7,978.1,568.7L978.1,568.7z"/>
	<path class="st0" d="M978.6,121.6c-8.3,0-15,6.7-15,15s6.7,15,15,15s15-6.7,15-15S986.9,121.6,978.6,121.6L978.6,121.6z"/>
	<path class="st0" d="M992.4,325.4c-11,0-19.9,8.9-19.9,19.9s8.9,19.9,19.9,19.9s19.9-8.9,19.9-19.9
		C1012.3,334.4,1003.4,325.4,992.4,325.4L992.4,325.4z"/>
	<path class="st0" d="M992.9,251.6c-11,0-19.9,8.9-19.9,19.9s8.9,19.9,19.9,19.9s19.9-8.9,19.9-19.9S1003.9,251.6,992.9,251.6
		L992.9,251.6z"/>
	<path class="st0" d="M995.3,427.9c-11,0-19.9,8.9-19.9,19.9s8.9,19.9,19.9,19.9s19.9-8.9,19.9-19.9S1006.4,427.9,995.3,427.9
		L995.3,427.9z"/>
	<path class="st0" d="M996.3,1180.7c-11,0-19.9,8.9-19.9,19.9s8.9,19.9,19.9,19.9s19.9-8.9,19.9-19.9S1007.3,1180.7,996.3,1180.7
		L996.3,1180.7z"/>
	<path class="st0" d="M998.3,1268.3c-11,0-19.9,8.9-19.9,19.9s8.9,19.9,19.9,19.9s19.9-8.9,19.9-19.9
		C1018.2,1277.2,1009.3,1268.3,998.3,1268.3L998.3,1268.3z"/>
	<path class="st0" d="M998.8,497.3c-11,0-19.9,8.9-19.9,19.9c0,11,8.9,19.9,19.9,19.9s19.9-8.9,19.9-19.9S1009.8,497.3,998.8,497.3
		L998.8,497.3z"/>
	<path class="st0" d="M999.8,383.5c-11,0-19.9,8.9-19.9,19.9s8.9,19.9,19.9,19.9s19.9-8.9,19.9-19.9
		C1019.7,392.5,1010.8,383.5,999.8,383.5L999.8,383.5z"/>
	<path class="st0" d="M1001.3,82.7c-11,0-19.9,8.9-19.9,19.9s8.9,19.9,19.9,19.9s19.9-8.9,19.9-19.9S1012.3,82.7,1001.3,82.7
		L1001.3,82.7z"/>
	<path class="st0" d="M1002.7,155.6c-11,0-19.9,8.9-19.9,19.9s8.9,19.9,19.9,19.9s19.9-8.9,19.9-19.9
		C1022.7,164.5,1013.7,155.6,1002.7,155.6L1002.7,155.6z"/>
	<path class="st0" d="M1004.7,1085.2c-8.3,0-15,6.7-15,15s6.7,15,15,15s15-6.7,15-15S1013,1085.2,1004.7,1085.2L1004.7,1085.2z"/>
	<path class="st0" d="M1008.6,208.8c-8.3,0-15,6.7-15,15s6.7,15,15,15s15-6.7,15-15C1023.7,215.5,1016.9,208.8,1008.6,208.8
		L1008.6,208.8z"/>
	<path class="st0" d="M1009.1,293.9c-8.3,0-15,6.7-15,15s6.7,15,15,15s15-6.7,15-15C1024.2,300.7,1017.4,293.9,1009.1,293.9
		L1009.1,293.9z"/>
	<path class="st0" d="M1014.5,987.2c-11,0-19.9,8.9-19.9,19.9s8.9,19.9,19.9,19.9s19.9-8.9,19.9-19.9
		C1034.5,996.1,1025.6,987.2,1014.5,987.2L1014.5,987.2z"/>
	<path class="st0" d="M1011.6,1043.8c-8.3,0-15,6.7-15,15s6.7,15,15,15s15-6.7,15-15S1019.9,1043.8,1011.6,1043.8L1011.6,1043.8z"/>
	<path class="st0" d="M1021,1228.9c-11,0-19.9,8.9-19.9,19.9s8.9,19.9,19.9,19.9s19.9-8.9,19.9-19.9S1032,1228.9,1021,1228.9
		L1021,1228.9z"/>
	<path class="st0" d="M1026.4,581c-11,0-19.9,8.9-19.9,19.9s8.9,19.9,19.9,19.9s19.9-8.9,19.9-19.9S1037.4,581,1026.4,581
		L1026.4,581z"/>
	<path class="st0" d="M1024.4,933c-8.3,0-15,6.7-15,15s6.7,15,15,15c8.3,0,15-6.7,15-15S1032.7,933,1024.4,933L1024.4,933z"/>
	<path class="st0" d="M1033.3,1129.5c-11,0-19.9,8.9-19.9,19.9s8.9,19.9,19.9,19.9s19.9-8.9,19.9-19.9
		C1053.2,1138.4,1044.3,1129.5,1033.3,1129.5L1033.3,1129.5z"/>
	<path class="st0" d="M1035.7,643.5c-11,0-19.9,8.9-19.9,19.9s8.9,19.9,19.9,19.9s19.9-8.9,19.9-19.9
		C1055.7,652.4,1046.7,643.5,1035.7,643.5L1035.7,643.5z"/>
	<path class="st0" d="M1030.8,46.3c-8.3,0-15,6.7-15,15s6.7,15,15,15c8.3,0,15-6.7,15-15S1039.1,46.3,1030.8,46.3L1030.8,46.3z"/>
	<path class="st0" d="M1031.3,322.5c-8.3,0-15,6.7-15,15s6.7,15,15,15c8.3,0,15-6.7,15-15S1039.6,322.5,1031.3,322.5L1031.3,322.5z"
		/>
	<path class="st0" d="M1032.3,363.4c-8.3,0-15,6.7-15,15s6.7,15,15,15s15-6.7,15-15S1040.6,363.4,1032.3,363.4L1032.3,363.4z"/>
	<path class="st0" d="M1038.7,127.5c-11,0-19.9,8.9-19.9,19.9s8.9,19.9,19.9,19.9s19.9-8.9,19.9-19.9
		C1058.6,136.5,1049.7,127.5,1038.7,127.5L1038.7,127.5z"/>
	<path class="st0" d="M1039.7,529.3c-11,0-19.9,8.9-19.9,19.9s8.9,19.9,19.9,19.9s19.9-8.9,19.9-19.9S1050.7,529.3,1039.7,529.3
		L1039.7,529.3z"/>
	<path class="st0" d="M1039.7,1287.5c-11,0-19.9,8.9-19.9,19.9s8.9,19.9,19.9,19.9s19.9-8.9,19.9-19.9S1050.7,1287.5,1039.7,1287.5
		L1039.7,1287.5z"/>
	<path class="st0" d="M1043.1,182.2c-11,0-19.9,8.9-19.9,19.9s8.9,19.9,19.9,19.9s19.9-8.9,19.9-19.9
		C1063,191.1,1054.1,182.2,1043.1,182.2L1043.1,182.2z"/>
	<path class="st0" d="M1038.2,1095c-8.3,0-15,6.7-15,15s6.7,15,15,15s15-6.7,15-15S1046.5,1095,1038.2,1095L1038.2,1095z"/>
	<path class="st0" d="M1039.7,226.5c-8.3,0-15,6.7-15,15s6.7,15,15,15s15-6.7,15-15S1048,226.5,1039.7,226.5L1039.7,226.5z"/>
	<path class="st0" d="M1045.1,484.5c-11,0-19.9,8.9-19.9,19.9c0,11,8.9,19.9,19.9,19.9s19.9-8.9,19.9-19.9
		S1056.1,484.5,1045.1,484.5L1045.1,484.5z"/>
	<path class="st0" d="M1045.6,419c-11,0-19.9,8.9-19.9,19.9s8.9,19.9,19.9,19.9s19.9-8.9,19.9-19.9S1056.6,419,1045.6,419
		L1045.6,419z"/>
	<path class="st0" d="M1050,281.1c-11,0-19.9,8.9-19.9,19.9s8.9,20,19.9,20s19.9-8.9,19.9-19.9S1061,281.1,1050,281.1L1050,281.1z"
		/>
	<path class="st0" d="M1050.5,1187.1c-11,0-19.9,8.9-19.9,19.9s8.9,19.9,19.9,19.9s19.9-8.9,19.9-19.9S1061.5,1187.1,1050.5,1187.1
		L1050.5,1187.1z"/>
	<path class="st0" d="M1055.9,902c-11,0-19.9,8.9-19.9,19.9s8.9,19.9,19.9,19.9s19.9-8.9,19.9-19.9S1066.9,902,1055.9,902
		L1055.9,902z"/>
	<path class="st0" d="M1057.4,1048.2c-11,0-19.9,8.9-19.9,19.9s8.9,19.9,19.9,19.9s19.9-8.9,19.9-19.9
		C1077.3,1057.2,1068.4,1048.2,1057.4,1048.2L1057.4,1048.2z"/>
	<path class="st0" d="M1060.3,87.6c-11,0-19.9,8.9-19.9,19.9s8.9,19.9,19.9,19.9s19.9-8.9,19.9-19.9S1071.4,87.6,1060.3,87.6
		L1060.3,87.6z"/>
	<path class="st0" d="M1056.9,613.5c-8.3,0-15,6.7-15,15s6.7,15,15,15s15-6.7,15-15S1065.2,613.5,1056.9,613.5L1056.9,613.5z"/>
	<path class="st0" d="M1062.3,1336.3c-11,0-19.9,8.9-19.9,19.9s8.9,19.9,19.9,19.9s19.9-8.9,19.9-19.9
		C1082.2,1345.2,1073.3,1336.3,1062.3,1336.3L1062.3,1336.3z"/>
	<path class="st0" d="M1066.7,978.8c-11,0-19.9,8.9-19.9,19.9s8.9,19.9,19.9,19.9s19.9-8.9,19.9-19.9
		C1086.7,987.7,1077.8,978.8,1066.7,978.8L1066.7,978.8z"/>
	<path class="st0" d="M1070.7,346.6c-11,0-19.9,8.9-19.9,19.9s8.9,19.9,19.9,19.9s19.9-8.9,19.9-19.9S1081.7,346.6,1070.7,346.6
		L1070.7,346.6z"/>
	<path class="st0" d="M1072.6,1256c-11,0-19.9,8.9-19.9,19.9s8.9,19.9,19.9,19.9s19.9-8.9,19.9-19.9
		C1092.6,1264.9,1083.7,1256,1072.6,1256L1072.6,1256z"/>
	<path class="st0" d="M1069.2,390.9c-8.3,0-15,6.7-15,15s6.7,15,15,15s15-6.7,15-15C1084.2,397.7,1077.5,390.9,1069.2,390.9
		L1069.2,390.9z"/>
	<path class="st0" d="M1081.5,234.4c-11,0-19.9,8.9-19.9,19.9s8.9,19.9,19.9,19.9s19.9-8.9,19.9-19.9S1092.5,234.4,1081.5,234.4
		L1081.5,234.4z"/>
	<path class="st0" d="M1076.6,451c-8.3,0-15,6.7-15,15s6.7,15,15,15s15-6.7,15-15S1084.9,451,1076.6,451L1076.6,451z"/>
	<path class="st0" d="M1083.5,647.9c-11,0-19.9,8.9-19.9,19.9s8.9,19.9,19.9,19.9s19.9-8.9,19.9-19.9
		C1103.4,656.9,1094.5,647.9,1083.5,647.9L1083.5,647.9z"/>
	<path class="st0" d="M1085,937.4c-11,0-19.9,8.9-19.9,19.9s8.9,19.9,19.9,19.9s19.9-8.9,19.9-19.9
		C1104.9,946.4,1096,937.4,1085,937.4L1085,937.4z"/>
	<path class="st0" d="M1081,313.1c-8.3,0-15,6.7-15,15s6.7,15,15,15s15-6.7,15-15C1096,319.9,1089.3,313.1,1081,313.1L1081,313.1z"
		/>
	<path class="st0" d="M1087.9,569.7c-11,0-19.9,8.9-19.9,19.9s8.9,19.9,19.9,19.9s19.9-8.9,19.9-19.9
		C1107.9,578.6,1098.9,569.7,1087.9,569.7L1087.9,569.7z"/>
	<path class="st0" d="M1090.4,190.5c-11,0-19.9,8.9-19.9,19.9s8.9,19.9,19.9,19.9s19.9-8.9,19.9-19.9
		C1110.3,199.5,1101.4,190.5,1090.4,190.5L1090.4,190.5z"/>
	<path class="st0" d="M1086.4,879.8c-8.3,0-15,6.7-15,15s6.7,15,15,15s15-6.7,15-15C1101.4,886.6,1094.7,879.8,1086.4,879.8
		L1086.4,879.8z"/>
	<path class="st0" d="M1086.9,1210.7c-8.3,0-15,6.7-15,15s6.7,15,15,15s15-6.7,15-15C1101.9,1217.4,1095.2,1210.7,1086.9,1210.7
		L1086.9,1210.7z"/>
	<path class="st0" d="M1094.3,1137.3c-11,0-19.9,8.9-19.9,19.9s8.9,19.9,19.9,19.9s19.9-8.9,19.9-19.9
		C1114.3,1146.3,1105.3,1137.3,1094.3,1137.3L1094.3,1137.3z"/>
	<path class="st0" d="M1094.8,490.4c-11,0-19.9,8.9-19.9,19.9s8.9,19.9,19.9,19.9s19.9-8.9,19.9-19.9
		C1114.7,499.3,1105.8,490.4,1094.8,490.4L1094.8,490.4z"/>
	<path class="st0" d="M1094.8,143.3c-11,0-19.9,8.9-19.9,19.9s8.9,19.9,19.9,19.9s19.9-8.9,19.9-19.9
		C1114.7,152.2,1105.8,143.3,1094.8,143.3L1094.8,143.3z"/>
	<path class="st0" d="M1091.4,1016.7c-8.3,0-15,6.7-15,15c0,8.3,6.7,15,15,15s15-6.7,15-15
		C1106.4,1023.4,1099.7,1016.7,1091.4,1016.7L1091.4,1016.7z"/>
	<path class="st0" d="M1096.8,836c-11,0-19.9,8.9-19.9,19.9s8.9,19.9,19.9,19.9s19.9-8.9,19.9-19.9
		C1116.7,844.9,1107.8,836,1096.8,836L1096.8,836z"/>
	<path class="st0" d="M1093.3,278.2c-8.3,0-15,6.7-15,15s6.7,15,15,15s15-6.7,15-15C1108.3,284.9,1101.6,278.2,1093.3,278.2
		L1093.3,278.2z"/>
	<path class="st0" d="M1100.2,1093.5c-11,0-19.9,8.9-19.9,19.9s8.9,19.9,19.9,19.9s19.9-8.9,19.9-19.9
		C1120.2,1102.5,1111.2,1093.5,1100.2,1093.5L1100.2,1093.5z"/>
	<path class="st0" d="M1101.2,1296.9c-11,0-19.9,8.9-19.9,19.9s8.9,19.9,19.9,19.9s19.9-8.9,19.9-19.9S1112.2,1296.9,1101.2,1296.9
		L1101.2,1296.9z"/>
	<path class="st0" d="M1098.3,1060c-8.3,0-15,6.7-15,15s6.7,15,15,15s15-6.7,15-15S1106.5,1060,1098.3,1060L1098.3,1060z"/>
	<path class="st0" d="M1103.7,427.4c-8.3,0-15,6.7-15,15s6.7,15,15,15s15-6.7,15-15S1112,427.4,1103.7,427.4L1103.7,427.4z"/>
	<path class="st0" d="M1106.1,981.3c-8.3,0-15,6.7-15,15s6.7,15,15,15s15-6.7,15-15S1114.4,981.3,1106.1,981.3L1106.1,981.3z"/>
	<path class="st0" d="M1111.1,100.9c-11,0-19.9,8.9-19.9,19.9s8.9,19.9,19.9,19.9s19.9-8.9,19.9-19.9S1122.1,100.9,1111.1,100.9
		L1111.1,100.9z"/>
	<path class="st0" d="M1108.1,539.6c-8.3,0-15,6.7-15,15s6.7,15,15,15s15-6.7,15-15S1116.4,539.6,1108.1,539.6L1108.1,539.6z"/>
	<path class="st0" d="M1113.5,383.5c-11,0-19.9,8.9-19.9,19.9s8.9,19.9,19.9,19.9s19.9-8.9,19.9-19.9
		C1133.5,392.5,1124.5,383.5,1113.5,383.5L1113.5,383.5z"/>
	<path class="st0" d="M1114.5,57.1c-11,0-19.9,8.9-19.9,19.9s8.9,19.9,19.9,19.9s19.9-8.9,19.9-19.9S1125.5,57.1,1114.5,57.1
		L1114.5,57.1z"/>
	<path class="st0" d="M1119.9,898.1c-11,0-19.9,8.9-19.9,19.9s8.9,19.9,19.9,19.9s19.9-8.9,19.9-19.9
		C1139.9,907,1130.9,898.1,1119.9,898.1L1119.9,898.1z"/>
	<path class="st0" d="M1116,460.4c-8.3,0-15,6.7-15,15s6.7,15,15,15s15-6.7,15-15S1124.3,460.4,1116,460.4L1116,460.4z"/>
	<path class="st0" d="M1116,17.7c-8.3,0-15,6.7-15,15s6.7,15,15,15s15-6.7,15-15C1131,24.5,1124.3,17.7,1116,17.7L1116,17.7z"/>
	<path class="st0" d="M1120.9,1176.7c-11,0-19.9,8.9-19.9,19.9s8.9,19.9,19.9,19.9s19.9-8.9,19.9-19.9
		C1140.8,1185.7,1131.9,1176.7,1120.9,1176.7L1120.9,1176.7z"/>
	<path class="st0" d="M1117.9,1228.4c-8.3,0-15,6.7-15,15s6.7,15,15,15s15-6.7,15-15C1133,1235.2,1126.2,1228.4,1117.9,1228.4
		L1117.9,1228.4z"/>
	<path class="st0" d="M1118.9,225c-8.3,0-15,6.7-15,15s6.7,15,15,15s15-6.7,15-15S1127.2,225,1118.9,225L1118.9,225z"/>
	<path class="st0" d="M1126.3,772.5c-11,0-19.9,8.9-19.9,19.9s8.9,19.9,19.9,19.9s19.9-8.9,19.9-19.9
		C1146.3,781.4,1137.3,772.5,1126.3,772.5L1126.3,772.5z"/>
	<path class="st0" d="M1121.9,605.1c-8.3,0-15,6.7-15,15s6.7,15,15,15s15-6.7,15-15S1130.2,605.1,1121.9,605.1L1121.9,605.1z"/>
	<path class="st0" d="M1128.3,1350c-11,0-19.9,8.9-19.9,19.9s8.9,19.9,19.9,19.9s19.9-8.9,19.9-19.9
		C1148.2,1359,1139.3,1350,1128.3,1350L1128.3,1350z"/>
	<path class="st0" d="M1123.9,950.2c-8.3,0-15,6.7-15,15s6.7,15,15,15s15-6.7,15-15S1132.1,950.2,1123.9,950.2L1123.9,950.2z"/>
	<path class="st0" d="M1125.3,318.1c-8.3,0-15,6.7-15,15s6.7,15,15,15s15-6.7,15-15C1140.3,324.8,1133.6,318.1,1125.3,318.1
		L1125.3,318.1z"/>
	<path class="st0" d="M1133.2,657.3c-11,0-19.9,8.9-19.9,19.9s8.9,19.9,19.9,19.9s19.9-8.9,19.9-19.9S1144.2,657.3,1133.2,657.3
		L1133.2,657.3z"/>
	<path class="st0" d="M1137.6,181.7c-11,0-19.9,8.9-19.9,19.9s8.9,19.9,19.9,19.9s19.9-8.9,19.9-19.9
		C1157.6,190.6,1148.7,181.7,1137.6,181.7L1137.6,181.7z"/>
	<path class="st0" d="M1137.6,1061.5c-11,0-19.9,8.9-19.9,19.9s8.9,19.9,19.9,19.9s19.9-8.9,19.9-19.9S1148.7,1061.5,1137.6,1061.5
		L1137.6,1061.5z"/>
	<path class="st1" d="M1138.6,271.8c-11,0-19.9,8.9-19.9,19.9s8.9,19.9,19.9,19.9s19.9-8.9,19.9-19.9
		C1158.6,280.7,1149.6,271.8,1138.6,271.8L1138.6,271.8z"/>
	<path class="st0" d="M1133.7,140.3c-8.3,0-15,6.7-15,15s6.7,15,15,15s15-6.7,15-15S1142,140.3,1133.7,140.3L1133.7,140.3z"/>
	<path class="st0" d="M1134.7,827.7c-8.3,0-15,6.7-15,15s6.7,15,15,15s15-6.7,15-15S1143,827.7,1134.7,827.7L1134.7,827.7z"/>
	<path class="st0" d="M1139.6,1009.3c-11,0-19.9,8.9-19.9,19.9c0,11,8.9,19.9,19.9,19.9s19.9-8.9,19.9-19.9
		C1159.5,1018.3,1150.6,1009.3,1139.6,1009.3L1139.6,1009.3z"/>
	<path class="st0" d="M1139.6,1258c-11,0-19.9,8.9-19.9,19.9s8.9,19.9,19.9,19.9s19.9-8.9,19.9-19.9S1150.6,1258,1139.6,1258
		L1139.6,1258z"/>
	<path class="st0" d="M1142.1,701.1c-11,0-19.9,8.9-19.9,19.9s8.9,19.9,19.9,19.9S1162,732,1162,721S1153.1,701.1,1142.1,701.1
		L1142.1,701.1z"/>
	<path class="st0" d="M1144.5,1109.3c-11,0-19.9,8.9-19.9,19.9s8.9,19.9,19.9,19.9s19.9-8.9,19.9-19.9S1155.5,1109.3,1144.5,1109.3
		L1144.5,1109.3z"/>
	<path class="st0" d="M1150.9,418.5c-11,0-19.9,8.9-19.9,19.9s8.9,19.9,19.9,19.9s19.9-8.9,19.9-19.9S1161.9,418.5,1150.9,418.5
		L1150.9,418.5z"/>
	<path class="st0" d="M1150.9,505.2c-11,0-19.9,8.9-19.9,19.9s8.9,19.9,19.9,19.9s19.9-8.9,19.9-19.9
		C1170.9,514.1,1161.9,505.2,1150.9,505.2L1150.9,505.2z"/>
	<path class="st0" d="M1153.9,574.6c-11,0-19.9,8.9-19.9,19.9s8.9,19.9,19.9,19.9s19.9-8.9,19.9-19.9S1164.9,574.6,1153.9,574.6
		L1153.9,574.6z"/>
	<path class="st0" d="M1149,874.4c-8.3,0-15,6.7-15,15s6.7,15,15,15s15-6.7,15-15C1164,881.1,1157.3,874.4,1149,874.4L1149,874.4z"
		/>
	<path class="st0" d="M1149.5,470.2c-8.3,0-15,6.7-15,15s6.7,15,15,15s15-6.7,15-15C1164.5,476.9,1157.7,470.2,1149.5,470.2
		L1149.5,470.2z"/>
	<path class="st0" d="M1150.4,1153.6c-8.3,0-15,6.7-15,15s6.7,15,15,15s15-6.7,15-15C1165.5,1160.3,1158.7,1153.6,1150.4,1153.6
		L1150.4,1153.6z"/>
	<path class="st0" d="M1156.3,349.6c-11,0-19.9,8.9-19.9,19.9s8.9,19.9,19.9,19.9s19.9-8.9,19.9-19.9
		C1176.3,358.5,1167.4,349.6,1156.3,349.6L1156.3,349.6z"/>
	<path class="st0" d="M1151.4,625.3c-8.3,0-15,6.7-15,15s6.7,15,15,15s15-6.7,15-15S1159.7,625.3,1151.4,625.3L1151.4,625.3z"/>
	<path class="st0" d="M1151.4,745.4c-8.3,0-15,6.7-15,15s6.7,15,15,15s15-6.7,15-15C1166.4,752.2,1159.7,745.4,1151.4,745.4
		L1151.4,745.4z"/>
	<path class="st0" d="M1151.9,1322c-8.3,0-15,6.7-15,15s6.7,15,15,15s15-6.7,15-15S1160.2,1322,1151.9,1322L1151.9,1322z"/>
	<path class="st0" d="M1162.7,92.6c-11,0-19.9,8.9-19.9,19.9s8.9,19.9,19.9,19.9s19.9-8.9,19.9-19.9S1173.8,92.6,1162.7,92.6
		L1162.7,92.6z"/>
	<path class="st0" d="M1159.8,311.7c-8.3,0-15,6.7-15,15s6.7,15,15,15s15-6.7,15-15C1174.8,318.4,1168.1,311.7,1159.8,311.7
		L1159.8,311.7z"/>
	<path class="st0" d="M1164.7,910.9c-11,0-19.9,8.9-19.9,19.9s8.9,19.9,19.9,19.9s19.9-8.9,19.9-19.9
		C1184.7,919.8,1175.7,910.9,1164.7,910.9L1164.7,910.9z"/>
	<path class="st0" d="M1170.6,975.9c-11,0-19.9,8.9-19.9,19.9s8.9,19.9,19.9,19.9s19.9-8.9,19.9-19.9
		C1190.6,984.8,1181.6,975.9,1170.6,975.9L1170.6,975.9z"/>
	<path class="st0" d="M1166.7,843.4c-8.3,0-15,6.7-15,15s6.7,15,15,15s15-6.7,15-15S1175,843.4,1166.7,843.4L1166.7,843.4z"/>
	<path class="st0" d="M1173.1,797.1c-11,0-19.9,8.9-19.9,19.9s8.9,19.9,19.9,19.9S1193,828,1193,817
		C1193,806.1,1184.1,797.1,1173.1,797.1L1173.1,797.1z"/>
	<path class="st0" d="M1168.2,136.9c-8.3,0-15,6.7-15,15s6.7,15,15,15s15-6.7,15-15C1183.2,143.6,1176.5,136.9,1168.2,136.9
		L1168.2,136.9z"/>
	<path class="st0" d="M1169.6,1291c-8.3,0-15,6.7-15,15s6.7,15,15,15s15-6.7,15-15C1184.7,1297.7,1177.9,1291,1169.6,1291
		L1169.6,1291z"/>
	<path class="st1" d="M1171.6,229.4c-8.3,0-15,6.7-15,15s6.7,15,15,15s15-6.7,15-15C1186.6,236.2,1179.9,229.4,1171.6,229.4
		L1171.6,229.4z"/>
	<path class="st0" d="M1177.5,1220.1c-11,0-19.9,8.9-19.9,19.9s8.9,19.9,19.9,19.9s19.9-8.9,19.9-19.9
		C1197.5,1229,1188.5,1220.1,1177.5,1220.1L1177.5,1220.1z"/>
	<path class="st0" d="M1174.1,544.1c-8.3,0-15,6.7-15,15s6.7,15,15,15s15-6.7,15-15S1182.4,544.1,1174.1,544.1L1174.1,544.1z"/>
	<path class="st0" d="M1175.1,171.3c-8.3,0-15,6.7-15,15s6.7,15,15,15s15-6.7,15-15C1190.1,178.1,1183.4,171.3,1175.1,171.3
		L1175.1,171.3z"/>
	<path class="st0" d="M1181,35.9c-11,0-19.9,8.9-19.9,19.9s8.9,19.9,19.9,19.9s19.9-8.9,19.9-19.9C1200.9,44.9,1192,35.9,1181,35.9
		L1181,35.9z"/>
	<path class="st0" d="M1178,1027.1c-8.3,0-15,6.7-15,15s6.7,15,15,15s15-6.7,15-15S1186.3,1027.1,1178,1027.1L1178,1027.1z"/>
	<path class="st0" d="M1179.5,721.8c-8.3,0-15,6.7-15,15s6.7,15,15,15s15-6.7,15-15S1187.8,721.8,1179.5,721.8L1179.5,721.8z"/>
	<path class="st0" d="M1182.9,608.6c-8.3,0-15,6.7-15,15s6.7,15,15,15s15-6.7,15-15C1198,615.3,1191.2,608.6,1182.9,608.6
		L1182.9,608.6z"/>
	<path class="st0" d="M1189.8,676c-11,0-19.9,8.9-19.9,19.9s8.9,19.9,19.9,19.9s19.9-8.9,19.9-19.9
		C1209.8,684.9,1200.8,676,1189.8,676L1189.8,676z"/>
	<path class="st0" d="M1190.3,1063c-11,0-19.9,8.9-19.9,19.9s8.9,19.9,19.9,19.9s19.9-8.9,19.9-19.9
		C1210.3,1071.9,1201.3,1063,1190.3,1063L1190.3,1063z"/>
	<path class="st0" d="M1192.8,1162c-11,0-19.9,8.9-19.9,19.9s8.9,19.9,19.9,19.9s19.9-8.9,19.9-19.9
		C1212.7,1170.9,1203.8,1162,1192.8,1162L1192.8,1162z"/>
	<path class="st0" d="M1195.2,444.1c-11,0-19.9,8.9-19.9,19.9s8.9,19.9,19.9,19.9s19.9-8.9,19.9-19.9
		C1215.2,453,1206.3,444.1,1195.2,444.1L1195.2,444.1z"/>
	<path class="st1" d="M1200.2,284.1c-11,0-19.9,8.9-19.9,19.9s8.9,19.9,19.9,19.9s19.9-8.9,19.9-19.9S1211.2,284.1,1200.2,284.1
		L1200.2,284.1z"/>
	<path class="st0" d="M1200.2,1315.1c-11,0-19.9,8.9-19.9,19.9s8.9,19.9,19.9,19.9s19.9-8.9,19.9-19.9S1211.2,1315.1,1200.2,1315.1
		L1200.2,1315.1z"/>
	<path class="st0" d="M1202.6,493.3c-11,0-19.9,8.9-19.9,19.9c0,11,8.9,19.9,19.9,19.9s19.9-8.9,19.9-19.9
		C1222.6,502.3,1213.6,493.3,1202.6,493.3L1202.6,493.3z"/>
	<path class="st0" d="M1203.1,869c-11,0-19.9,8.9-19.9,19.9s8.9,19.9,19.9,19.9s19.9-8.9,19.9-19.9
		C1223.1,877.9,1214.1,869,1203.1,869L1203.1,869z"/>
	<path class="st0" d="M1204.6,335.8c-11,0-19.9,8.9-19.9,19.9s8.9,19.9,19.9,19.9s19.9-8.9,19.9-19.9S1215.6,335.8,1204.6,335.8
		L1204.6,335.8z"/>
	<path class="st0" d="M1204.6,1118.6c-11,0-19.9,8.9-19.9,19.9s8.9,19.9,19.9,19.9s19.9-8.9,19.9-19.9
		C1224.5,1127.6,1215.6,1118.6,1204.6,1118.6L1204.6,1118.6z"/>
	<path class="st0" d="M1207.1,935c-11,0-19.9,8.9-19.9,19.9s8.9,19.9,19.9,19.9s19.9-8.9,19.9-19.9S1218.1,935,1207.1,935
		L1207.1,935z"/>
	<path class="st0" d="M1208,125.1c-11,0-19.9,8.9-19.9,19.9s8.9,19.9,19.9,19.9s19.9-8.9,19.9-19.9S1219.1,125.1,1208,125.1
		L1208,125.1z"/>
	<path class="st1" d="M1208.5,207.8c-11,0-19.9,8.9-19.9,19.9s8.9,19.9,19.9,19.9s19.9-8.9,19.9-19.9
		C1228.5,216.7,1219.6,207.8,1208.5,207.8L1208.5,207.8z"/>
	<path class="st0" d="M1204.6,641c-8.3,0-15,6.7-15,15s6.7,15,15,15s15-6.7,15-15C1219.6,647.8,1212.9,641,1204.6,641L1204.6,641z"
		/>
	<path class="st0" d="M1212.5,387c-11,0-19.9,8.9-19.9,19.9s8.9,19.9,19.9,19.9s19.9-8.9,19.9-19.9S1223.5,387,1212.5,387
		L1212.5,387z"/>
	<path class="st0" d="M1209.5,169.4c-8.3,0-15,6.7-15,15s6.7,15,15,15s15-6.7,15-15C1224.5,176.1,1217.8,169.4,1209.5,169.4
		L1209.5,169.4z"/>
	<path class="st0" d="M1216.4,1272.7c-11,0-19.9,8.9-19.9,19.9s8.9,19.9,19.9,19.9s19.9-8.9,19.9-19.9
		C1236.4,1281.7,1227.4,1272.7,1216.4,1272.7L1216.4,1272.7z"/>
	<path class="st0" d="M1217.4,752.3c-11,0-19.9,8.9-19.9,19.9s8.9,19.9,19.9,19.9s19.9-8.9,19.9-19.9S1228.4,752.3,1217.4,752.3
		L1217.4,752.3z"/>
	<path class="st0" d="M1216.4,1239.3c-8.3,0-15,6.7-15,15s6.7,15,15,15s15-6.7,15-15S1224.7,1239.3,1216.4,1239.3L1216.4,1239.3z"/>
	<path class="st0" d="M1223.8,595.3c-11,0-19.9,8.9-19.9,19.9s8.9,19.9,19.9,19.9s19.9-8.9,19.9-19.9
		C1243.7,604.2,1234.8,595.3,1223.8,595.3L1223.8,595.3z"/>
	<path class="st0" d="M1224.8,815.3c-11,0-19.9,8.9-19.9,19.9s8.9,19.9,19.9,19.9s19.9-8.9,19.9-19.9
		C1244.7,824.3,1235.8,815.3,1224.8,815.3L1224.8,815.3z"/>
	<path class="st0" d="M1229.2,534.2c-11,0-19.9,8.9-19.9,19.9s8.9,19.9,19.9,19.9s19.9-8.9,19.9-19.9
		C1249.2,543.1,1240.2,534.2,1229.2,534.2L1229.2,534.2z"/>
	<path class="st0" d="M1224.3,991.1c-8.3,0-15,6.7-15,15s6.7,15,15,15s15-6.7,15-15S1232.6,991.1,1224.3,991.1L1224.3,991.1z"/>
	<path class="st0" d="M1231.7,75.8c-11,0-19.9,8.9-19.9,19.9s8.9,19.9,19.9,19.9s19.9-8.9,19.9-19.9S1242.7,75.8,1231.7,75.8
		L1231.7,75.8z"/>
	<path class="st0" d="M1236.6,1076.8c-11,0-19.9,8.9-19.9,19.9s8.9,19.9,19.9,19.9s19.9-8.9,19.9-19.9
		C1256.5,1085.7,1247.6,1076.8,1236.6,1076.8L1236.6,1076.8z"/>
	<path class="st0" d="M1237.1,660.3c-11,0-19.9,8.9-19.9,19.9s8.9,19.9,19.9,19.9s19.9-8.9,19.9-19.9S1248.1,660.3,1237.1,660.3
		L1237.1,660.3z"/>
	<path class="st0" d="M1232.2,1163.9c-8.3,0-15,6.7-15,15s6.7,15,15,15s15-6.7,15-15C1247.2,1170.7,1240.5,1163.9,1232.2,1163.9
		L1232.2,1163.9z"/>
	<path class="st0" d="M1239.1,1023.6c-11,0-19.9,8.9-19.9,19.9s8.9,19.9,19.9,19.9s19.9-8.9,19.9-19.9S1250.1,1023.6,1239.1,1023.6
		L1239.1,1023.6z"/>
	<path class="st0" d="M1235.1,1208.2c-8.3,0-15,6.7-15,15s6.7,15,15,15s15-6.7,15-15C1250.1,1215,1243.4,1208.2,1235.1,1208.2
		L1235.1,1208.2z"/>
	<path class="st0" d="M1236.1,450.5c-8.3,0-15,6.7-15,15s6.7,15,15,15s15-6.7,15-15S1244.4,450.5,1236.1,450.5L1236.1,450.5z"/>
	<path class="st0" d="M1241,711.5c-11,0-19.9,8.9-19.9,19.9s8.9,19.9,19.9,19.9s19.9-8.9,19.9-19.9
		C1261,720.4,1252,711.5,1241,711.5L1241,711.5z"/>
	<path class="st0" d="M1240,858.2c-8.3,0-15,6.7-15,15s6.7,15,15,15s15-6.7,15-15C1255.1,864.9,1248.3,858.2,1240,858.2L1240,858.2z
		"/>
	<path class="st0" d="M1245.5,355.5c-11,0-19.9,8.9-19.9,19.9s8.9,19.9,19.9,19.9s19.9-8.9,19.9-19.9S1256.5,355.5,1245.5,355.5
		L1245.5,355.5z"/>
	<path class="st0" d="M1242.5,960.1c-8.3,0-15,6.7-15,15s6.7,15,15,15s15-6.7,15-15S1250.8,960.1,1242.5,960.1L1242.5,960.1z"/>
	<path class="st0" d="M1247.9,895.1c-11,0-19.9,8.9-19.9,19.9s8.9,19.9,19.9,19.9s19.9-8.9,19.9-19.9
		C1267.9,904,1258.9,895.1,1247.9,895.1L1247.9,895.1z"/>
	<path class="st0" d="M1243.5,162.5c-8.3,0-15,6.7-15,15s6.7,15,15,15s15-6.7,15-15S1251.8,162.5,1243.5,162.5L1243.5,162.5z"/>
	<path class="st0" d="M1250.4,781.9c-8.3,0-15,6.7-15,15s6.7,15,15,15s15-6.7,15-15C1265.4,788.6,1258.7,781.9,1250.4,781.9
		L1250.4,781.9z"/>
	<path class="st0" d="M1252.8,1300.8c-8.3,0-15,6.7-15,15s6.7,15,15,15s15-6.7,15-15C1267.9,1307.5,1261.1,1300.8,1252.8,1300.8
		L1252.8,1300.8z"/>
	<path class="st0" d="M1253.8,628.2c-8.3,0-15,6.7-15,15s6.7,15,15,15s15-6.7,15-15S1262.1,628.2,1253.8,628.2L1253.8,628.2z"/>
	<path class="st0" d="M1257.8,488.9c-8.3,0-15,6.7-15,15c0,8.3,6.7,15,15,15s15-6.7,15-15C1272.8,495.6,1266.1,488.9,1257.8,488.9
		L1257.8,488.9z"/>
	<path class="st0" d="M1258.8,991.6c-8.3,0-15,6.7-15,15s6.7,15,15,15s15-6.7,15-15S1267.1,991.6,1258.8,991.6L1258.8,991.6z"/>
	<path class="st0" d="M1265.7,1229.9c-11,0-19.9,8.9-19.9,19.9s8.9,19.9,19.9,19.9s19.9-8.9,19.9-19.9S1276.7,1229.9,1265.7,1229.9
		L1265.7,1229.9z"/>
	<path class="st0" d="M1262.2,397.8c-8.3,0-15,6.7-15,15s6.7,15,15,15s15-6.7,15-15S1270.5,397.8,1262.2,397.8L1262.2,397.8z"/>
	<path class="st0" d="M1264.2,821.7c-8.3,0-15,6.7-15,15s6.7,15,15,15s15-6.7,15-15C1279.2,828.5,1272.5,821.7,1264.2,821.7
		L1264.2,821.7z"/>
	<path class="st0" d="M1267.1,556.9c-8.3,0-15,6.7-15,15s6.7,15,15,15s15-6.7,15-15C1282.1,563.6,1275.4,556.9,1267.1,556.9
		L1267.1,556.9z"/>
	<path class="st0" d="M1274,432.3c-11,0-19.9,8.9-19.9,19.9s8.9,19.9,19.9,19.9s19.9-8.9,19.9-19.9
		C1294,441.2,1285,432.3,1274,432.3L1274,432.3z"/>
	<path class="st0" d="M1277,1119.1c-11,0-19.9,8.9-19.9,19.9s8.9,19.9,19.9,19.9s19.9-8.9,19.9-19.9
		C1296.9,1128.1,1288,1119.1,1277,1119.1L1277,1119.1z"/>
	<path class="st0" d="M1283.9,734.6c-11,0-19.9,8.9-19.9,19.9s8.9,19.9,19.9,19.9s19.9-8.9,19.9-19.9S1294.9,734.6,1283.9,734.6
		L1283.9,734.6z"/>
	<path class="st0" d="M1284.4,514.5c-11,0-19.9,8.9-19.9,19.9s8.9,19.9,19.9,19.9s19.9-8.9,19.9-19.9S1295.4,514.5,1284.4,514.5
		L1284.4,514.5z"/>
	<path class="st0" d="M1284.9,587.9c-11,0-19.9,8.9-19.9,19.9s8.9,19.9,19.9,19.9s19.9-8.9,19.9-19.9
		C1304.8,596.8,1295.9,587.9,1284.9,587.9L1284.9,587.9z"/>
	<path class="st0" d="M1285.8,1186.1c-11,0-19.9,8.9-19.9,19.9s8.9,19.9,19.9,19.9s19.9-8.9,19.9-19.9S1296.9,1186.1,1285.8,1186.1
		L1285.8,1186.1z"/>
	<path class="st0" d="M1286.8,953.2c-11,0-19.9,8.9-19.9,19.9s8.9,19.9,19.9,19.9s19.9-8.9,19.9-19.9
		C1306.8,962.1,1297.8,953.2,1286.8,953.2L1286.8,953.2z"/>
	<path class="st0" d="M1287.3,679.9c-11,0-19.9,8.9-19.9,19.9s8.9,19.9,19.9,19.9s19.9-8.9,19.9-19.9S1298.3,679.9,1287.3,679.9
		L1287.3,679.9z"/>
	<path class="st0" d="M1282.4,1027.5c-8.3,0-15,6.7-15,15s6.7,15,15,15s15-6.7,15-15C1297.4,1034.3,1290.7,1027.5,1282.4,1027.5
		L1282.4,1027.5z"/>
	<path class="st0" d="M1287.8,1272.7c-11,0-19.9,8.9-19.9,19.9s8.9,19.9,19.9,19.9s19.9-8.9,19.9-19.9
		C1307.7,1281.7,1298.8,1272.7,1287.8,1272.7L1287.8,1272.7z"/>
	<path class="st0" d="M1291.3,1064.5c-11,0-19.9,8.9-19.9,19.9s8.9,19.9,19.9,19.9s19.9-8.9,19.9-19.9
		C1311.2,1073.4,1302.3,1064.5,1291.3,1064.5L1291.3,1064.5z"/>
	<path class="st0" d="M1293.7,850.3c-11,0-19.9,8.9-19.9,19.9s8.9,19.9,19.9,19.9s19.9-8.9,19.9-19.9S1304.7,850.3,1293.7,850.3
		L1293.7,850.3z"/>
	<path class="st0" d="M1289.8,796.1c-8.3,0-15,6.7-15,15s6.7,15,15,15s15-6.7,15-15S1298.1,796.1,1289.8,796.1L1289.8,796.1z"/>
	<path class="st0" d="M1290.3,632.2c-8.3,0-15,6.7-15,15s6.7,15,15,15s15-6.7,15-15S1298.6,632.2,1290.3,632.2L1290.3,632.2z"/>
	<path class="st0" d="M1310.9,914.3c-11,0-19.9,8.9-19.9,19.9s8.9,19.9,19.9,19.9s19.9-8.9,19.9-19.9S1322,914.3,1310.9,914.3
		L1310.9,914.3z"/>
	<path class="st0" d="M1313.9,1149.2c-8.3,0-15,6.7-15,15s6.7,15,15,15s15-6.7,15-15C1328.9,1155.9,1322.2,1149.2,1313.9,1149.2
		L1313.9,1149.2z"/>
	<path class="st0" d="M1321.3,1015.2c-11,0-19.9,8.9-19.9,19.9s8.9,19.9,19.9,19.9s19.9-8.9,19.9-19.9
		C1341.2,1024.2,1332.3,1015.2,1321.3,1015.2L1321.3,1015.2z"/>
	<path class="st0" d="M1321.8,1231.4c-11,0-19.9,8.9-19.9,19.9s8.9,19.9,19.9,19.9s19.9-8.9,19.9-19.9
		C1341.7,1240.3,1332.8,1231.4,1321.8,1231.4L1321.8,1231.4z"/>
	<path class="st0" d="M1327.2,713.9c-11,0-19.9,8.9-19.9,19.9s8.9,19.9,19.9,19.9s19.9-8.9,19.9-19.9
		C1347.1,722.8,1338.2,713.9,1327.2,713.9L1327.2,713.9z"/>
	<path class="st0" d="M1328.7,580c-11,0-19.9,8.9-19.9,19.9s8.9,19.9,19.9,19.9s19.9-8.9,19.9-19.9S1339.7,580,1328.7,580
		L1328.7,580z"/>
	<path class="st0" d="M1328.7,799.6c-11,0-19.9,8.9-19.9,19.9s8.9,19.9,19.9,19.9s19.9-8.9,19.9-19.9S1339.7,799.6,1328.7,799.6
		L1328.7,799.6z"/>
	<path class="st0" d="M1326.2,1091.1c-8.3,0-15,6.7-15,15s6.7,15,15,15s15-6.7,15-15S1334.5,1091.1,1326.2,1091.1L1326.2,1091.1z"/>
	<path class="st0" d="M1336.1,659.3c-11,0-19.9,8.9-19.9,19.9s8.9,19.9,19.9,19.9s19.9-8.9,19.9-19.9S1347.1,659.3,1336.1,659.3
		L1336.1,659.3z"/>
	<path class="st0" d="M1331.6,624.3c-8.3,0-15,6.7-15,15s6.7,15,15,15s15-6.7,15-15S1339.9,624.3,1331.6,624.3L1331.6,624.3z"/>
	<path class="st0" d="M1333.6,761.7c-8.3,0-15,6.7-15,15s6.7,15,15,15s15-6.7,15-15S1341.9,761.7,1333.6,761.7L1333.6,761.7z"/>
	<path class="st0" d="M1344.9,1191.5c-11,0-19.9,8.9-19.9,19.9s8.9,19.9,19.9,19.9s19.9-8.9,19.9-19.9S1355.9,1191.5,1344.9,1191.5
		L1344.9,1191.5z"/>
	<path class="st0" d="M1340.5,867.5c-8.3,0-15,6.7-15,15s6.7,15,15,15s15-6.7,15-15C1355.5,874.3,1348.8,867.5,1340.5,867.5
		L1340.5,867.5z"/>
	<path class="st0" d="M1348.9,1123.1c-11,0-19.9,8.9-19.9,19.9s8.9,19.9,19.9,19.9s19.9-8.9,19.9-19.9S1359.9,1123.1,1348.9,1123.1
		L1348.9,1123.1z"/>
	<path class="st0" d="M1348.4,941.4c-8.3,0-15,6.7-15,15s6.7,15,15,15s15-6.7,15-15C1363.4,948.1,1356.7,941.4,1348.4,941.4
		L1348.4,941.4z"/>
	<path class="st0" d="M1355.8,974.9c-11,0-19.9,8.9-19.9,19.9s8.9,19.9,19.9,19.9s19.9-8.9,19.9-19.9
		C1375.7,983.8,1366.8,974.9,1355.8,974.9L1355.8,974.9z"/>
	<path class="st0" d="M1364.6,1073.8c-11,0-19.9,8.9-19.9,19.9s8.9,19.9,19.9,19.9s19.9-8.9,19.9-19.9
		C1384.6,1082.8,1375.6,1073.8,1364.6,1073.8L1364.6,1073.8z"/>
	<path class="st0" d="M1365.1,897.1c-11,0-19.9,8.9-19.9,19.9s8.9,19.9,19.9,19.9S1385,928,1385,917S1376.1,897.1,1365.1,897.1
		L1365.1,897.1z"/>
	<path class="st0" d="M1366.1,1026.6c-11,0-19.9,8.9-19.9,19.9s8.9,19.9,19.9,19.9s19.9-8.9,19.9-19.9S1377.1,1026.6,1366.1,1026.6
		L1366.1,1026.6z"/>
	<path class="st0" d="M1369.5,1229.9c-11,0-19.9,8.9-19.9,19.9s8.9,19.9,19.9,19.9s19.9-8.9,19.9-19.9S1380.6,1229.9,1369.5,1229.9
		L1369.5,1229.9z"/>
	<path class="st0" d="M1370,822.7c-11,0-19.9,8.9-19.9,19.9s8.9,19.9,19.9,19.9s19.9-8.9,19.9-19.9S1381,822.7,1370,822.7
		L1370,822.7z"/>
	<path class="st0" d="M1372,745.9c-11,0-19.9,8.9-19.9,19.9s8.9,19.9,19.9,19.9s19.9-8.9,19.9-19.9
		C1391.9,754.8,1383,745.9,1372,745.9L1372,745.9z"/>
	<path class="st0" d="M1388.2,955.2c-8.3,0-15,6.7-15,15s6.7,15,15,15s15-6.7,15-15S1396.5,955.2,1388.2,955.2L1388.2,955.2z"/>
	<path class="st0" d="M1388.2,1127.5c-8.3,0-15,6.7-15,15s6.7,15,15,15s15-6.7,15-15C1403.3,1134.2,1396.5,1127.5,1388.2,1127.5
		L1388.2,1127.5z"/>
	<path class="st0" d="M1403.5,1172.3c-11,0-19.9,8.9-19.9,19.9s8.9,19.9,19.9,19.9s19.9-8.9,19.9-19.9S1414.5,1172.3,1403.5,1172.3
		L1403.5,1172.3z"/>
	<path class="st0" d="M1407.4,796.6c-11,0-19.9,8.9-19.9,19.9s8.9,19.9,19.9,19.9s19.9-8.9,19.9-19.9S1418.5,796.6,1407.4,796.6
		L1407.4,796.6z"/>
	<path class="st0" d="M1408.4,914.8c-11,0-19.9,8.9-19.9,19.9s8.9,19.9,19.9,19.9s19.9-8.9,19.9-19.9
		C1428.4,923.7,1419.4,914.8,1408.4,914.8L1408.4,914.8z"/>
	<path class="st0" d="M1408.4,850.3c-8.3,0-15,6.7-15,15s6.7,15,15,15s15-6.7,15-15C1423.5,857,1416.7,850.3,1408.4,850.3
		L1408.4,850.3z"/>
	<path class="st0" d="M1411.9,985.7c-8.3,0-15,6.7-15,15s6.7,15,15,15s15-6.7,15-15S1420.2,985.7,1411.9,985.7L1411.9,985.7z"/>
	<path class="st0" d="M1418.8,1068.9c-11,0-19.9,8.9-19.9,19.9s8.9,19.9,19.9,19.9s19.9-8.9,19.9-19.9
		C1438.7,1077.8,1429.8,1068.9,1418.8,1068.9L1418.8,1068.9z"/>
	<path class="st0" d="M1435.5,1111.2c-11,0-19.9,8.9-19.9,19.9s8.9,19.9,19.9,19.9s19.9-8.9,19.9-19.9S1446.5,1111.2,1435.5,1111.2
		L1435.5,1111.2z"/>
	<path class="st0" d="M1432.1,886.7c-8.3,0-15,6.7-15,15s6.7,15,15,15s15-6.7,15-15C1447.1,893.5,1440.4,886.7,1432.1,886.7
		L1432.1,886.7z"/>
	<path class="st0" d="M1432.1,1022.6c-8.3,0-15,6.7-15,15s6.7,15,15,15s15-6.7,15-15C1447.1,1029.3,1440.4,1022.6,1432.1,1022.6
		L1432.1,1022.6z"/>
	<path class="st0" d="M1450.8,981.3c-11,0-19.9,8.9-19.9,19.9s8.9,19.9,19.9,19.9s19.9-8.9,19.9-19.9
		C1470.7,990.2,1461.8,981.3,1450.8,981.3L1450.8,981.3z"/>
	<path class="st0" d="M1457.7,1082.2c-8.3,0-15,6.7-15,15s6.7,15,15,15s15-6.7,15-15S1466,1082.2,1457.7,1082.2L1457.7,1082.2z"/>
	<path class="st0" d="M1469.5,1038.4c-11,0-19.9,8.9-19.9,19.9s8.9,19.9,19.9,19.9s19.9-8.9,19.9-19.9S1480.5,1038.4,1469.5,1038.4
		L1469.5,1038.4z"/>
	<path class="st0" d="M1472.4,896.6c-11,0-19.9,8.9-19.9,19.9s8.9,19.9,19.9,19.9s19.9-8.9,19.9-19.9S1483.5,896.6,1472.4,896.6
		L1472.4,896.6z"/>
	<path class="st0" d="M1467.5,949.8c-8.3,0-15,6.7-15,15s6.7,15,15,15s15-6.7,15-15S1475.8,949.8,1467.5,949.8L1467.5,949.8z"/>
	<path class="st0" d="M1494.6,976.3c-11,0-19.9,8.9-19.9,19.9s8.9,19.9,19.9,19.9s19.9-8.9,19.9-19.9
		C1514.5,985.3,1505.6,976.3,1494.6,976.3L1494.6,976.3z"/>
	<path class="st0" d="M1505.4,932c-11,0-19.9,8.9-19.9,19.9s8.9,19.9,19.9,19.9s19.9-8.9,19.9-19.9
		C1525.4,941,1516.4,932,1505.4,932L1505.4,932z"/>
</g>
</svg>
