<?xml version="1.0" encoding="utf-8"?>
<!-- Generator: Adobe Illustrator 23.0.3, SVG Export Plug-In . SVG Version: 6.00 Build 0)  -->
<svg version="1.1" id="Layer_1" xmlns="http://www.w3.org/2000/svg" xmlns:xlink="http://www.w3.org/1999/xlink" x="0px" y="0px"
	 viewBox="0 0 1257 2175.8" style="enable-background:new 0 0 1257 2175.8;" xml:space="preserve">
<style type="text/css">
	.st0{fill:#555555;}
</style>
<g>
	<path class="st0" d="M37.1,314.9c-10.2,0-18.5,8.3-18.5,18.5s8.3,18.5,18.5,18.5c10.2,0,18.5-8.3,18.5-18.5S47.3,314.9,37.1,314.9
		L37.1,314.9z"/>
	<path class="st0" d="M98.9,191.3c-13.6,0-24.5,11-24.5,24.5s11,24.5,24.5,24.5s24.5-11,24.5-24.5
		C123.5,202.3,112.5,191.3,98.9,191.3L98.9,191.3z"/>
	<path class="st0" d="M132.3,235.6c-10.2,0-18.5,8.3-18.5,18.5c0,10.2,8.3,18.5,18.5,18.5s18.5-8.3,18.5-18.5
		C150.7,243.8,142.5,235.6,132.3,235.6L132.3,235.6z"/>
	<path class="st0" d="M142.6,756.6c-13.6,0-24.5,11-24.5,24.5s11,24.5,24.5,24.5c13.5,0,24.5-11,24.5-24.5
		C167.1,767.6,156.1,756.6,142.6,756.6L142.6,756.6z"/>
	<path class="st0" d="M144.4,169.5c-10.2,0-18.5,8.3-18.5,18.5s8.3,18.5,18.5,18.5s18.5-8.3,18.5-18.5S154.6,169.5,144.4,169.5
		L144.4,169.5z"/>
	<path class="st0" d="M163.2,373.1c-13.5,0-24.5,11-24.5,24.5s11,24.5,24.5,24.5c13.5,0,24.5-11,24.5-24.5
		C187.7,384.1,176.7,373.1,163.2,373.1L163.2,373.1z"/>
	<path class="st0" d="M169.2,2117.9c-10.2,0-18.5,8.3-18.5,18.5s8.3,18.5,18.5,18.5c10.2,0,18.5-8.3,18.5-18.5
		C187.7,2126.2,179.4,2117.9,169.2,2117.9L169.2,2117.9z"/>
	<path class="st0" d="M179.5,142.9c-10.2,0-18.5,8.3-18.5,18.5c0,10.2,8.3,18.5,18.5,18.5c10.2,0,18.5-8.3,18.5-18.5
		C198,151.2,189.7,142.9,179.5,142.9L179.5,142.9z"/>
	<path class="st0" d="M192.2,613c-13.5,0-24.5,11-24.5,24.5s11,24.5,24.5,24.5c13.5,0,24.5-11,24.5-24.5S205.8,613,192.2,613
		L192.2,613z"/>
	<path class="st0" d="M192.2,421c-10.2,0-18.5,8.3-18.5,18.5s8.3,18.5,18.5,18.5c10.2,0,18.5-8.3,18.5-18.5S202.4,421,192.2,421
		L192.2,421z"/>
	<path class="st0" d="M212.8,2087.1c-13.5,0-24.5,11-24.5,24.5s11,24.5,24.5,24.5c13.5,0,24.5-11,24.5-24.5
		S226.4,2087.1,212.8,2087.1L212.8,2087.1z"/>
	<path class="st0" d="M209.2,871.7c-10.2,0-18.5,8.3-18.5,18.5s8.3,18.5,18.5,18.5c10.2,0,18.5-8.3,18.5-18.5
		C227.7,880,219.4,871.7,209.2,871.7L209.2,871.7z"/>
	<path class="st0" d="M224.3,819.6c-10.2,0-18.5,8.3-18.5,18.5s8.3,18.5,18.5,18.5s18.5-8.3,18.5-18.5
		C242.8,827.9,234.5,819.6,224.3,819.6L224.3,819.6z"/>
	<path class="st0" d="M231,538.5c-13.5,0-24.5,11-24.5,24.5s11,24.5,24.5,24.5c13.5,0,24.5-11,24.5-24.5
		C255.5,549.5,244.6,538.5,231,538.5L231,538.5z"/>
	<path class="st0" d="M226.2,1706c-10.2,0-18.5,8.3-18.5,18.5s8.3,18.5,18.5,18.5c10.2,0,18.5-8.3,18.5-18.5S236.4,1706,226.2,1706
		L226.2,1706z"/>
	<path class="st0" d="M235.2,725.1c-10.2,0-18.5,8.3-18.5,18.5s8.3,18.5,18.5,18.5s18.5-8.3,18.5-18.5
		C253.7,733.4,245.5,725.1,235.2,725.1L235.2,725.1z"/>
	<path class="st0" d="M236.5,767.5c-10.2,0-18.5,8.3-18.5,18.5s8.3,18.5,18.5,18.5s18.5-8.3,18.5-18.5
		C254.9,775.8,246.7,767.5,236.5,767.5L236.5,767.5z"/>
	<path class="st0" d="M238.9,2050.7c-10.2,0-18.5,8.3-18.5,18.5s8.3,18.5,18.5,18.5s18.5-8.3,18.5-18.5
		C257.4,2059,249.1,2050.7,238.9,2050.7L238.9,2050.7z"/>
	<path class="st0" d="M254,450c-10.2,0-18.5,8.3-18.5,18.5S243.8,487,254,487c10.2,0,18.5-8.3,18.5-18.5S264.2,450,254,450L254,450z
		"/>
	<path class="st0" d="M263.1,492.5c-13.5,0-24.5,11-24.5,24.5s11,24.5,24.5,24.5c13.5,0,24.5-11,24.5-24.5S276.7,492.5,263.1,492.5
		L263.1,492.5z"/>
	<path class="st0" d="M263.1,634.2c-13.5,0-24.5,11-24.5,24.5s11,24.5,24.5,24.5c13.5,0,24.5-11,24.5-24.5S276.7,634.2,263.1,634.2
		L263.1,634.2z"/>
	<path class="st0" d="M266.1,346.5c-13.5,0-24.5,11-24.5,24.5s11,24.5,24.5,24.5c13.5,0,24.5-11,24.5-24.5S279.7,346.5,266.1,346.5
		L266.1,346.5z"/>
	<path class="st0" d="M268.6,1736.3c-13.5,0-24.5,11-24.5,24.5s11,24.5,24.5,24.5c13.5,0,24.5-11,24.5-24.5
		S282.1,1736.3,268.6,1736.3L268.6,1736.3z"/>
	<path class="st0" d="M267.4,811.1c-10.2,0-18.5,8.3-18.5,18.5s8.3,18.5,18.5,18.5s18.5-8.3,18.5-18.5
		C285.8,819.4,277.6,811.1,267.4,811.1L267.4,811.1z"/>
	<path class="st0" d="M280.1,399.8c-13.5,0-24.5,11-24.5,24.5s11,24.5,24.5,24.5c13.5,0,24.5-11,24.5-24.5
		C304.6,410.8,293.6,399.8,280.1,399.8L280.1,399.8z"/>
	<path class="st0" d="M283.7,2018.6c-13.5,0-24.5,11-24.5,24.5s11,24.5,24.5,24.5c13.5,0,24.5-11,24.5-24.5
		S297.3,2018.6,283.7,2018.6L283.7,2018.6z"/>
	<path class="st0" d="M277.7,739.6c-10.2,0-18.5,8.3-18.5,18.5s8.3,18.5,18.5,18.5c10.2,0,18.5-8.3,18.5-18.5
		C296.1,747.9,287.9,739.6,277.7,739.6L277.7,739.6z"/>
	<path class="st0" d="M278.3,2076.2c-10.2,0-18.5,8.3-18.5,18.5s8.3,18.5,18.5,18.5c10.2,0,18.5-8.3,18.5-18.5
		C296.7,2084.4,288.5,2076.2,278.3,2076.2L278.3,2076.2z"/>
	<path class="st0" d="M289.8,583.9c-13.5,0-24.5,11-24.5,24.5s11,24.5,24.5,24.5c13.5,0,24.5-11,24.5-24.5
		C314.3,594.9,303.3,583.9,289.8,583.9L289.8,583.9z"/>
	<path class="st0" d="M295.8,1687.2c-13.5,0-24.5,11-24.5,24.5s11,24.5,24.5,24.5c13.5,0,24.5-11,24.5-24.5
		S309.4,1687.2,295.8,1687.2L295.8,1687.2z"/>
	<path class="st0" d="M297.7,284.7c-13.5,0-24.5,11-24.5,24.5s11,24.5,24.5,24.5c13.5,0,24.5-11,24.5-24.5
		C322.2,295.6,311.2,284.7,297.7,284.7L297.7,284.7z"/>
	<path class="st0" d="M295.8,458.5c-10.2,0-18.5,8.3-18.5,18.5c0,10.2,8.3,18.5,18.5,18.5c10.2,0,18.5-8.3,18.5-18.5
		S306,458.5,295.8,458.5L295.8,458.5z"/>
	<path class="st0" d="M303.7,685.7c-13.5,0-24.5,11-24.5,24.5s11,24.5,24.5,24.5c13.5,0,24.5-11,24.5-24.5
		C328.2,696.7,317.3,685.7,303.7,685.7L303.7,685.7z"/>
	<path class="st0" d="M303.7,1978c-10.2,0-18.5,8.3-18.5,18.5s8.3,18.5,18.5,18.5s18.5-8.3,18.5-18.5S313.9,1978,303.7,1978
		L303.7,1978z"/>
	<path class="st0" d="M312.2,972.9c-13.5,0-24.5,11-24.5,24.5s11,24.5,24.5,24.5c13.5,0,24.5-11,24.5-24.5
		C336.7,983.9,325.7,972.9,312.2,972.9L312.2,972.9z"/>
	<path class="st0" d="M311.6,635.4c-10.2,0-18.5,8.3-18.5,18.5s8.3,18.5,18.5,18.5s18.5-8.3,18.5-18.5S321.8,635.4,311.6,635.4
		L311.6,635.4z"/>
	<path class="st0" d="M317,548.2c-10.2,0-18.5,8.3-18.5,18.5c0,10.2,8.3,18.5,18.5,18.5s18.5-8.3,18.5-18.5
		C335.5,556.5,327.2,548.2,317,548.2L317,548.2z"/>
	<path class="st0" d="M330.4,223.5c-13.5,0-24.5,11-24.5,24.5s11,24.5,24.5,24.5c13.5,0,24.5-11,24.5-24.5S343.9,223.5,330.4,223.5
		L330.4,223.5z"/>
	<path class="st0" d="M326.7,506.4c-10.2,0-18.5,8.3-18.5,18.5s8.3,18.5,18.5,18.5c10.2,0,18.5-8.3,18.5-18.5
		S336.9,506.4,326.7,506.4L326.7,506.4z"/>
	<path class="st0" d="M338.8,923.8c-13.5,0-24.5,11-24.5,24.5s11,24.5,24.5,24.5c13.5,0,24.5-11,24.5-24.5
		C363.4,934.8,352.4,923.8,338.8,923.8L338.8,923.8z"/>
	<path class="st0" d="M340.7,342.8c-13.5,0-24.5,11-24.5,24.5s11,24.5,24.5,24.5c13.5,0,24.5-11,24.5-24.5
		C365.2,353.8,354.2,342.8,340.7,342.8L340.7,342.8z"/>
	<path class="st0" d="M341.3,1729c-13.5,0-24.5,11-24.5,24.5s11,24.5,24.5,24.5c13.5,0,24.5-11,24.5-24.5S354.8,1729,341.3,1729
		L341.3,1729z"/>
	<path class="st0" d="M335.8,1380c-10.2,0-18.5,8.3-18.5,18.5s8.3,18.5,18.5,18.5s18.5-8.3,18.5-18.5S346,1380,335.8,1380
		L335.8,1380z"/>
	<path class="st0" d="M343.7,589.4c-13.5,0-24.5,11-24.5,24.5s11,24.5,24.5,24.5c13.5,0,24.5-11,24.5-24.5S357.2,589.4,343.7,589.4
		L343.7,589.4z"/>
	<path class="st0" d="M354,2062.2c-13.5,0-24.5,11-24.5,24.5s11,24.5,24.5,24.5c13.5,0,24.5-11,24.5-24.5S367.5,2062.2,354,2062.2
		L354,2062.2z"/>
	<path class="st0" d="M354.6,458.5c-13.5,0-24.5,11-24.5,24.5s11,24.5,24.5,24.5c13.5,0,24.5-11,24.5-24.5
		C379.1,469.5,368.2,458.5,354.6,458.5L354.6,458.5z"/>
	<path class="st0" d="M349.8,664.5c-10.2,0-18.5,8.3-18.5,18.5s8.3,18.5,18.5,18.5c10.2,0,18.5-8.3,18.5-18.5S360,664.5,349.8,664.5
		L349.8,664.5z"/>
	<path class="st0" d="M351,706.9c-10.2,0-18.5,8.3-18.5,18.5s8.3,18.5,18.5,18.5c10.2,0,18.5-8.3,18.5-18.5S361.2,706.9,351,706.9
		L351,706.9z"/>
	<path class="st0" d="M359.4,2000.4c-13.5,0-24.5,11-24.5,24.5s11,24.5,24.5,24.5c13.5,0,24.5-11,24.5-24.5
		C384,2011.4,373,2000.4,359.4,2000.4L359.4,2000.4z"/>
	<path class="st0" d="M353.4,1149.2c-10.2,0-18.5,8.3-18.5,18.5s8.3,18.5,18.5,18.5c10.2,0,18.5-8.3,18.5-18.5
		C371.9,1157.5,363.6,1149.2,353.4,1149.2L353.4,1149.2z"/>
	<path class="st0" d="M360.1,397.3c-13.5,0-24.5,11-24.5,24.5s11,24.5,24.5,24.5c13.5,0,24.5-11,24.5-24.5S373.6,397.3,360.1,397.3
		L360.1,397.3z"/>
	<path class="st0" d="M361.3,156.2c-13.5,0-24.5,11-24.5,24.5s11,24.5,24.5,24.5c13.5,0,24.5-11,24.5-24.5
		C385.8,167.2,374.8,156.2,361.3,156.2L361.3,156.2z"/>
	<path class="st0" d="M363.1,1915.6c-13.5,0-24.5,11-24.5,24.5s11,24.5,24.5,24.5c13.5,0,24.5-11,24.5-24.5
		S376.6,1915.6,363.1,1915.6L363.1,1915.6z"/>
	<path class="st0" d="M364.9,748.7c-13.5,0-24.5,11-24.5,24.5s11,24.5,24.5,24.5c13.5,0,24.5-11,24.5-24.5
		C389.4,759.7,378.5,748.7,364.9,748.7L364.9,748.7z"/>
	<path class="st0" d="M359.4,1022c-10.2,0-18.5,8.3-18.5,18.5s8.3,18.5,18.5,18.5c10.2,0,18.5-8.3,18.5-18.5S369.7,1022,359.4,1022
		L359.4,1022z"/>
	<path class="st0" d="M360.7,975.3c-10.2,0-18.5,8.3-18.5,18.5s8.3,18.5,18.5,18.5c10.2,0,18.5-8.3,18.5-18.5
		S370.9,975.3,360.7,975.3L360.7,975.3z"/>
	<path class="st0" d="M361.9,821.4c-10.2,0-18.5,8.3-18.5,18.5s8.3,18.5,18.5,18.5s18.5-8.3,18.5-18.5S372.1,821.4,361.9,821.4
		L361.9,821.4z"/>
	<path class="st0" d="M367.9,862.6c-13.5,0-24.5,11-24.5,24.5s11,24.5,24.5,24.5c13.5,0,24.5-11,24.5-24.5
		C392.5,873.6,381.5,862.6,367.9,862.6L367.9,862.6z"/>
	<path class="st0" d="M369.7,288.9c-13.5,0-24.5,11-24.5,24.5s11,24.5,24.5,24.5c13.5,0,24.5-11,24.5-24.5
		C394.3,299.9,383.3,288.9,369.7,288.9L369.7,288.9z"/>
	<path class="st0" d="M372.8,1435.8c-13.5,0-24.5,11-24.5,24.5s11,24.5,24.5,24.5c13.5,0,24.5-11,24.5-24.5
		S386.3,1435.8,372.8,1435.8L372.8,1435.8z"/>
	<path class="st0" d="M375.8,530.6c-13.5,0-24.5,11-24.5,24.5s11,24.5,24.5,24.5c13.5,0,24.5-11,24.5-24.5
		C400.3,541.6,389.4,530.6,375.8,530.6L375.8,530.6z"/>
	<path class="st0" d="M377,1662.4c-13.5,0-24.5,11-24.5,24.5s11,24.5,24.5,24.5c13.5,0,24.5-11,24.5-24.5S390.6,1662.4,377,1662.4
		L377,1662.4z"/>
	<path class="st0" d="M377,1393.4c-10.2,0-18.5,8.3-18.5,18.5s8.3,18.5,18.5,18.5c10.2,0,18.5-8.3,18.5-18.5
		S387.2,1393.4,377,1393.4L377,1393.4z"/>
	<path class="st0" d="M387.3,1716.9c-10.2,0-18.5,8.3-18.5,18.5s8.3,18.5,18.5,18.5s18.5-8.3,18.5-18.5S397.5,1716.9,387.3,1716.9
		L387.3,1716.9z"/>
	<path class="st0" d="M394,614.2c-13.5,0-24.5,11-24.5,24.5s11,24.5,24.5,24.5c13.5,0,24.5-11,24.5-24.5
		C418.5,625.2,407.5,614.2,394,614.2L394,614.2z"/>
	<path class="st0" d="M395.2,677.9c-13.5,0-24.5,11-24.5,24.5s11,24.5,24.5,24.5c13.5,0,24.5-11,24.5-24.5
		C419.7,688.8,408.7,677.9,395.2,677.9L395.2,677.9z"/>
	<path class="st0" d="M394,1961.6c-10.2,0-18.5,8.3-18.5,18.5s8.3,18.5,18.5,18.5s18.5-8.3,18.5-18.5S404.2,1961.6,394,1961.6
		L394,1961.6z"/>
	<path class="st0" d="M401.9,1612.1c-13.5,0-24.5,11-24.5,24.5s11,24.5,24.5,24.5c13.5,0,24.5-11,24.5-24.5
		S415.4,1612.1,401.9,1612.1L401.9,1612.1z"/>
	<path class="st0" d="M398.2,2039.8c-10.2,0-18.5,8.3-18.5,18.5s8.3,18.5,18.5,18.5s18.5-8.3,18.5-18.5
		C416.7,2048.1,408.4,2039.8,398.2,2039.8L398.2,2039.8z"/>
	<path class="st0" d="M398.8,997.1c-10.2,0-18.5,8.3-18.5,18.5c0,10.2,8.3,18.5,18.5,18.5s18.5-8.3,18.5-18.5
		C417.3,1005.4,409,997.1,398.8,997.1L398.8,997.1z"/>
	<path class="st0" d="M405.5,190.7c-13.5,0-24.5,11-24.5,24.5s11,24.5,24.5,24.5c13.5,0,24.5-11,24.5-24.5
		C430,201.7,419,190.7,405.5,190.7L405.5,190.7z"/>
	<path class="st0" d="M407.3,927.5c-13.5,0-24.5,11-24.5,24.5s11,24.5,24.5,24.5c13.5,0,24.5-11,24.5-24.5S420.9,927.5,407.3,927.5
		L407.3,927.5z"/>
	<path class="st0" d="M401.9,245.9c-10.2,0-18.5,8.3-18.5,18.5c0,10.2,8.3,18.5,18.5,18.5s18.5-8.3,18.5-18.5
		C420.3,254.2,412.1,245.9,401.9,245.9L401.9,245.9z"/>
	<path class="st0" d="M407.9,1535.1c-13.5,0-24.5,11-24.5,24.5s11,24.5,24.5,24.5c13.5,0,24.5-11,24.5-24.5
		S421.5,1535.1,407.9,1535.1L407.9,1535.1z"/>
	<path class="st0" d="M408.5,479.7c-13.5,0-24.5,11-24.5,24.5s11,24.5,24.5,24.5c13.5,0,24.5-11,24.5-24.5
		C433.1,490.7,422.1,479.7,408.5,479.7L408.5,479.7z"/>
	<path class="st0" d="M407.3,808.1c-10.2,0-18.5,8.3-18.5,18.5s8.3,18.5,18.5,18.5s18.5-8.3,18.5-18.5
		C425.8,816.4,417.5,808.1,407.3,808.1L407.3,808.1z"/>
	<path class="st0" d="M414,2080.4c-13.5,0-24.5,11-24.5,24.5s11,24.5,24.5,24.5s24.5-11,24.5-24.5S427.5,2080.4,414,2080.4
		L414,2080.4z"/>
	<path class="st0" d="M414,1763.5c-13.5,0-24.5,11-24.5,24.5s11,24.5,24.5,24.5s24.5-11,24.5-24.5S427.5,1763.5,414,1763.5
		L414,1763.5z"/>
	<path class="st0" d="M419.4,397.3c-13.5,0-24.5,11-24.5,24.5s11,24.5,24.5,24.5s24.5-11,24.5-24.5C444,408.3,433,397.3,419.4,397.3
		L419.4,397.3z"/>
	<path class="st0" d="M415.2,1469.1c-10.2,0-18.5,8.3-18.5,18.5s8.3,18.5,18.5,18.5s18.5-8.3,18.5-18.5S425.4,1469.1,415.2,1469.1
		L415.2,1469.1z"/>
	<path class="st0" d="M421.9,342.2c-13.5,0-24.5,11-24.5,24.5s11,24.5,24.5,24.5s24.5-11,24.5-24.5
		C446.4,353.2,435.4,342.2,421.9,342.2L421.9,342.2z"/>
	<path class="st0" d="M421.9,849.9c-13.5,0-24.5,11-24.5,24.5s11,24.5,24.5,24.5s24.5-11,24.5-24.5S435.4,849.9,421.9,849.9
		L421.9,849.9z"/>
	<path class="st0" d="M432.8,1898c-13.5,0-24.5,11-24.5,24.5s11,24.5,24.5,24.5s24.5-11,24.5-24.5S446.3,1898,432.8,1898L432.8,1898
		z"/>
	<path class="st0" d="M433.4,759c-13.5,0-24.5,11-24.5,24.5s11,24.5,24.5,24.5s24.5-11,24.5-24.5C457.9,770,446.9,759,433.4,759
		L433.4,759z"/>
	<path class="st0" d="M435.2,1701.7c-13.5,0-24.5,11-24.5,24.5s11,24.5,24.5,24.5s24.5-11,24.5-24.5
		C459.7,1712.7,448.7,1701.7,435.2,1701.7L435.2,1701.7z"/>
	<path class="st0" d="M437,275.6c-13.5,0-24.5,11-24.5,24.5s11,24.5,24.5,24.5s24.5-11,24.5-24.5C461.5,286.5,450.5,275.6,437,275.6
		L437,275.6z"/>
	<path class="st0" d="M438.8,549.4c-13.5,0-24.5,11-24.5,24.5s11,24.5,24.5,24.5s24.5-11,24.5-24.5
		C463.4,560.4,452.4,549.4,438.8,549.4L438.8,549.4z"/>
	<path class="st0" d="M443.7,1403.1c-13.5,0-24.5,11-24.5,24.5s11,24.5,24.5,24.5s24.5-11,24.5-24.5
		C468.2,1414,457.2,1403.1,443.7,1403.1L443.7,1403.1z"/>
	<path class="st0" d="M444.9,141.1c-13.5,0-24.5,11-24.5,24.5s11,24.5,24.5,24.5s24.5-11,24.5-24.5
		C469.4,152,458.4,141.1,444.9,141.1L444.9,141.1z"/>
	<path class="st0" d="M439.4,2027.7c-10.2,0-18.5,8.3-18.5,18.5s8.3,18.5,18.5,18.5c10.2,0,18.5-8.3,18.5-18.5
		C457.9,2036,449.6,2027.7,439.4,2027.7L439.4,2027.7z"/>
	<path class="st0" d="M439.4,1652.1c-10.2,0-18.5,8.3-18.5,18.5s8.3,18.5,18.5,18.5c10.2,0,18.5-8.3,18.5-18.5
		S449.6,1652.1,439.4,1652.1L439.4,1652.1z"/>
	<path class="st0" d="M440.6,603.9c-10.2,0-18.5,8.3-18.5,18.5s8.3,18.5,18.5,18.5c10.2,0,18.5-8.3,18.5-18.5
		C459.1,612.2,450.8,603.9,440.6,603.9L440.6,603.9z"/>
	<path class="st0" d="M445.5,1814.4c-10.2,0-18.5,8.3-18.5,18.5s8.3,18.5,18.5,18.5c10.2,0,18.5-8.3,18.5-18.5
		C464,1822.7,455.7,1814.4,445.5,1814.4L445.5,1814.4z"/>
	<path class="st0" d="M452.1,1973.8c-13.5,0-24.5,11-24.5,24.5s11,24.5,24.5,24.5s24.5-11,24.5-24.5
		C476.7,1984.8,465.7,1973.8,452.1,1973.8L452.1,1973.8z"/>
	<path class="st0" d="M454.6,700.9c-13.5,0-24.5,11-24.5,24.5s11,24.5,24.5,24.5s24.5-11,24.5-24.5
		C479.1,711.9,468.1,700.9,454.6,700.9L454.6,700.9z"/>
	<path class="st0" d="M449.7,444c-10.2,0-18.5,8.3-18.5,18.5c0,10.2,8.3,18.5,18.5,18.5s18.5-8.3,18.5-18.5S459.9,444,449.7,444
		L449.7,444z"/>
	<path class="st0" d="M456.4,983.2c-13.5,0-24.5,11-24.5,24.5s11,24.5,24.5,24.5s24.5-11,24.5-24.5S469.9,983.2,456.4,983.2
		L456.4,983.2z"/>
	<path class="st0" d="M461.2,1503.6c-13.5,0-24.5,11-24.5,24.5s11,24.5,24.5,24.5s24.5-11,24.5-24.5
		C485.8,1514.6,474.8,1503.6,461.2,1503.6L461.2,1503.6z"/>
	<path class="st0" d="M456.4,1457c-10.2,0-18.5,8.3-18.5,18.5s8.3,18.5,18.5,18.5c10.2,0,18.5-8.3,18.5-18.5S466.6,1457,456.4,1457
		L456.4,1457z"/>
	<path class="st0" d="M460,1751.4c-10.2,0-18.5,8.3-18.5,18.5s8.3,18.5,18.5,18.5c10.2,0,18.5-8.3,18.5-18.5
		C478.5,1759.7,470.2,1751.4,460,1751.4L460,1751.4z"/>
	<path class="st0" d="M466.7,894.7c-13.5,0-24.5,11-24.5,24.5s11,24.5,24.5,24.5s24.5-11,24.5-24.5
		C491.2,905.7,480.2,894.7,466.7,894.7L466.7,894.7z"/>
	<path class="st0" d="M469.1,1565.4c-13.5,0-24.5,11-24.5,24.5s11,24.5,24.5,24.5s24.5-11,24.5-24.5
		C493.6,1576.4,482.7,1565.4,469.1,1565.4L469.1,1565.4z"/>
	<path class="st0" d="M469.1,370.1c-10.2,0-18.5,8.3-18.5,18.5s8.3,18.5,18.5,18.5s18.5-8.3,18.5-18.5S479.3,370.1,469.1,370.1
		L469.1,370.1z"/>
	<path class="st0" d="M477.6,635.4c-13.5,0-24.5,11-24.5,24.5s11,24.5,24.5,24.5s24.5-11,24.5-24.5S491.1,635.4,477.6,635.4
		L477.6,635.4z"/>
	<path class="st0" d="M480,793c-13.5,0-24.5,11-24.5,24.5s11,24.5,24.5,24.5s24.5-11,24.5-24.5C504.5,803.9,493.6,793,480,793
		L480,793z"/>
	<path class="st0" d="M484.9,200.4c-13.5,0-24.5,11-24.5,24.5s11,24.5,24.5,24.5s24.5-11,24.5-24.5
		C509.4,211.4,498.4,200.4,484.9,200.4L484.9,200.4z"/>
	<path class="st0" d="M483,520.3c-10.2,0-18.5,8.3-18.5,18.5s8.3,18.5,18.5,18.5s18.5-8.3,18.5-18.5S493.2,520.3,483,520.3
		L483,520.3z"/>
	<path class="st0" d="M490.9,465.8c-13.5,0-24.5,11-24.5,24.5s11,24.5,24.5,24.5s24.5-11,24.5-24.5S504.5,465.8,490.9,465.8
		L490.9,465.8z"/>
	<path class="st0" d="M485.5,855.4c-10.2,0-18.5,8.3-18.5,18.5s8.3,18.5,18.5,18.5s18.5-8.3,18.5-18.5
		C503.9,863.6,495.7,855.4,485.5,855.4L485.5,855.4z"/>
	<path class="st0" d="M492.7,1394.6c-10.2,0-18.5,8.3-18.5,18.5s8.3,18.5,18.5,18.5s18.5-8.3,18.5-18.5
		C511.2,1402.8,502.9,1394.6,492.7,1394.6L492.7,1394.6z"/>
	<path class="st0" d="M498.8,1804.1c-13.5,0-24.5,11-24.5,24.5s11,24.5,24.5,24.5s24.5-11,24.5-24.5S512.3,1804.1,498.8,1804.1
		L498.8,1804.1z"/>
	<path class="st0" d="M499.4,1677.5c-13.5,0-24.5,11-24.5,24.5s11,24.5,24.5,24.5s24.5-11,24.5-24.5S513,1677.5,499.4,1677.5
		L499.4,1677.5z"/>
	<path class="st0" d="M502.4,401c-13.5,0-24.5,11-24.5,24.5s11,24.5,24.5,24.5s24.5-11,24.5-24.5C527,412,516,401,502.4,401
		L502.4,401z"/>
	<path class="st0" d="M503,1616.3c-13.5,0-24.5,11-24.5,24.5s11,24.5,24.5,24.5s24.5-11,24.5-24.5S516.6,1616.3,503,1616.3
		L503,1616.3z"/>
	<path class="st0" d="M503.6,952.9c-13.5,0-24.5,11-24.5,24.5s11,24.5,24.5,24.5s24.5-11,24.5-24.5
		C528.2,963.9,517.2,952.9,503.6,952.9L503.6,952.9z"/>
	<path class="st0" d="M504.9,1450.3c-13.5,0-24.5,11-24.5,24.5s11,24.5,24.5,24.5s24.5-11,24.5-24.5S518.4,1450.3,504.9,1450.3
		L504.9,1450.3z"/>
	<path class="st0" d="M507.9,579.7c-13.5,0-24.5,11-24.5,24.5s11,24.5,24.5,24.5s24.5-11,24.5-24.5
		C532.4,590.7,521.4,579.7,507.9,579.7L507.9,579.7z"/>
	<path class="st0" d="M506.1,1536.9c-10.2,0-18.5,8.3-18.5,18.5s8.3,18.5,18.5,18.5s18.5-8.3,18.5-18.5
		C524.5,1545.2,516.3,1536.9,506.1,1536.9L506.1,1536.9z"/>
	<path class="st0" d="M507.3,754.2c-10.2,0-18.5,8.3-18.5,18.5s8.3,18.5,18.5,18.5s18.5-8.3,18.5-18.5
		C525.8,762.5,517.5,754.2,507.3,754.2L507.3,754.2z"/>
	<path class="st0" d="M509.7,1944.1c-10.2,0-18.5,8.3-18.5,18.5s8.3,18.5,18.5,18.5c10.2,0,18.5-8.3,18.5-18.5
		C528.2,1952.4,519.9,1944.1,509.7,1944.1L509.7,1944.1z"/>
	<path class="st0" d="M517,134.4c-13.5,0-24.5,11-24.5,24.5s11,24.5,24.5,24.5s24.5-11,24.5-24.5S530.5,134.4,517,134.4L517,134.4z"
		/>
	<path class="st0" d="M518.2,1985.3c-13.5,0-24.5,11-24.5,24.5s11,24.5,24.5,24.5s24.5-11,24.5-24.5
		C542.7,1996.3,531.7,1985.3,518.2,1985.3L518.2,1985.3z"/>
	<path class="st0" d="M518.8,1125c-13.5,0-24.5,11-24.5,24.5s11,24.5,24.5,24.5s24.5-11,24.5-24.5
		C543.3,1135.9,532.3,1125,518.8,1125L518.8,1125z"/>
	<path class="st0" d="M513.3,1076.5c-10.2,0-18.5,8.3-18.5,18.5s8.3,18.5,18.5,18.5s18.5-8.3,18.5-18.5S523.5,1076.5,513.3,1076.5
		L513.3,1076.5z"/>
	<path class="st0" d="M520,1746.6c-13.5,0-24.5,11-24.5,24.5s11,24.5,24.5,24.5s24.5-11,24.5-24.5S533.6,1746.6,520,1746.6
		L520,1746.6z"/>
	<path class="st0" d="M530.3,698.5c-13.5,0-24.5,11-24.5,24.5s11,24.5,24.5,24.5s24.5-11,24.5-24.5S543.8,698.5,530.3,698.5
		L530.3,698.5z"/>
	<path class="st0" d="M524.8,654.8c-10.2,0-18.5,8.3-18.5,18.5s8.3,18.5,18.5,18.5c10.2,0,18.5-8.3,18.5-18.5
		C543.3,663.1,535.1,654.8,524.8,654.8L524.8,654.8z"/>
	<path class="st0" d="M535.1,354.9c-13.5,0-24.5,11-24.5,24.5s11,24.5,24.5,24.5s24.5-11,24.5-24.5S548.7,354.9,535.1,354.9
		L535.1,354.9z"/>
	<path class="st0" d="M535.1,504c-13.5,0-24.5,11-24.5,24.5s11,24.5,24.5,24.5s24.5-11,24.5-24.5C559.7,515,548.7,504,535.1,504
		L535.1,504z"/>
	<path class="st0" d="M535.1,1025c-13.5,0-24.5,11-24.5,24.5s11,24.5,24.5,24.5s24.5-11,24.5-24.5C559.7,1036,548.7,1025,535.1,1025
		L535.1,1025z"/>
	<path class="st0" d="M530.3,806.9c-10.2,0-18.5,8.3-18.5,18.5s8.3,18.5,18.5,18.5s18.5-8.3,18.5-18.5
		C548.8,815.2,540.5,806.9,530.3,806.9L530.3,806.9z"/>
	<path class="st0" d="M532.7,195c-10.2,0-18.5,8.3-18.5,18.5s8.3,18.5,18.5,18.5s18.5-8.3,18.5-18.5S542.9,195,532.7,195L532.7,195z
		"/>
	<path class="st0" d="M540,1567.2c-13.5,0-24.5,11-24.5,24.5s11,24.5,24.5,24.5s24.5-11,24.5-24.5
		C564.5,1578.2,553.5,1567.2,540,1567.2L540,1567.2z"/>
	<path class="st0" d="M546,431.9c-10.2,0-18.5,8.3-18.5,18.5c0,10.2,8.3,18.5,18.5,18.5c10.2,0,18.5-8.3,18.5-18.5
		C564.5,440.1,556.3,431.9,546,431.9L546,431.9z"/>
	<path class="st0" d="M547.9,616.7c-10.2,0-18.5,8.3-18.5,18.5s8.3,18.5,18.5,18.5s18.5-8.3,18.5-18.5S558.1,616.7,547.9,616.7
		L547.9,616.7z"/>
	<path class="st0" d="M554.5,896c-13.5,0-24.5,11-24.5,24.5s11,24.5,24.5,24.5s24.5-11,24.5-24.5C579.1,906.9,568.1,896,554.5,896
		L554.5,896z"/>
	<path class="st0" d="M549.1,1403.1c-10.2,0-18.5,8.3-18.5,18.5s8.3,18.5,18.5,18.5s18.5-8.3,18.5-18.5S559.3,1403.1,549.1,1403.1
		L549.1,1403.1z"/>
	<path class="st0" d="M555.7,1887.1c-13.5,0-24.5,11-24.5,24.5s11,24.5,24.5,24.5s24.5-11,24.5-24.5S569.3,1887.1,555.7,1887.1
		L555.7,1887.1z"/>
	<path class="st0" d="M552.1,951.1c-10.2,0-18.5,8.3-18.5,18.5s8.3,18.5,18.5,18.5s18.5-8.3,18.5-18.5
		C570.6,959.4,562.3,951.1,552.1,951.1L552.1,951.1z"/>
	<path class="st0" d="M552.7,1444.9c-10.2,0-18.5,8.3-18.5,18.5s8.3,18.5,18.5,18.5s18.5-8.3,18.5-18.5
		C571.2,1453.1,562.9,1444.9,552.7,1444.9L552.7,1444.9z"/>
	<path class="st0" d="M560,840.8c-13.5,0-24.5,11-24.5,24.5s11,24.5,24.5,24.5s24.5-11,24.5-24.5S573.5,840.8,560,840.8L560,840.8z"
		/>
	<path class="st0" d="M560.6,1673.3c-13.5,0-24.5,11-24.5,24.5s11,24.5,24.5,24.5s24.5-11,24.5-24.5S574.1,1673.3,560.6,1673.3
		L560.6,1673.3z"/>
	<path class="st0" d="M557.6,1632.1c-10.2,0-18.5,8.3-18.5,18.5s8.3,18.5,18.5,18.5s18.5-8.3,18.5-18.5
		C576,1640.3,567.8,1632.1,557.6,1632.1L557.6,1632.1z"/>
	<path class="st0" d="M566.6,1337.6c-13.5,0-24.5,11-24.5,24.5s11,24.5,24.5,24.5s24.5-11,24.5-24.5S580.2,1337.6,566.6,1337.6
		L566.6,1337.6z"/>
	<path class="st0" d="M566.6,1492.7c-13.5,0-24.5,11-24.5,24.5s11,24.5,24.5,24.5s24.5-11,24.5-24.5S580.2,1492.7,566.6,1492.7
		L566.6,1492.7z"/>
	<path class="st0" d="M562.4,162.3c-10.2,0-18.5,8.3-18.5,18.5s8.3,18.5,18.5,18.5s18.5-8.3,18.5-18.5S572.6,162.3,562.4,162.3
		L562.4,162.3z"/>
	<path class="st0" d="M563,1727.8c-10.2,0-18.5,8.3-18.5,18.5s8.3,18.5,18.5,18.5c10.2,0,18.5-8.3,18.5-18.5
		S573.2,1727.8,563,1727.8L563,1727.8z"/>
	<path class="st0" d="M569.7,1775.7c-13.5,0-24.5,11-24.5,24.5s11,24.5,24.5,24.5s24.5-11,24.5-24.5
		C594.2,1786.6,583.2,1775.7,569.7,1775.7L569.7,1775.7z"/>
	<path class="st0" d="M564.8,1112.2c-10.2,0-18.5,8.3-18.5,18.5s8.3,18.5,18.5,18.5s18.5-8.3,18.5-18.5
		C583.3,1120.5,575,1112.2,564.8,1112.2L564.8,1112.2z"/>
	<path class="st0" d="M575.1,1948.9c-13.5,0-24.5,11-24.5,24.5s11,24.5,24.5,24.5s24.5-11,24.5-24.5
		C599.7,1959.9,588.7,1948.9,575.1,1948.9L575.1,1948.9z"/>
	<path class="st0" d="M578.2,783.9c-13.5,0-24.5,11-24.5,24.5s11,24.5,24.5,24.5s24.5-11,24.5-24.5
		C602.7,794.9,591.7,783.9,578.2,783.9L578.2,783.9z"/>
	<path class="st0" d="M578.8,1836.2c-13.5,0-24.5,11-24.5,24.5s11,24.5,24.5,24.5s24.5-11,24.5-24.5
		C603.3,1847.2,592.3,1836.2,578.8,1836.2L578.8,1836.2z"/>
	<path class="st0" d="M573.3,120.5c-10.2,0-18.5,8.3-18.5,18.5s8.3,18.5,18.5,18.5s18.5-8.3,18.5-18.5S583.5,120.5,573.3,120.5
		L573.3,120.5z"/>
	<path class="st0" d="M581.8,1281.9c-13.5,0-24.5,11-24.5,24.5s11,24.5,24.5,24.5s24.5-11,24.5-24.5
		C606.3,1292.9,595.3,1281.9,581.8,1281.9L581.8,1281.9z"/>
	<path class="st0" d="M584.2,554.3c-13.5,0-24.5,11-24.5,24.5s11,24.5,24.5,24.5s24.5-11,24.5-24.5
		C608.8,565.2,597.8,554.3,584.2,554.3L584.2,554.3z"/>
	<path class="st0" d="M580,12.6c-10.2,0-18.5,8.3-18.5,18.5c0,10.2,8.3,18.5,18.5,18.5c10.2,0,18.5-8.3,18.5-18.5
		C598.5,20.9,590.2,12.6,580,12.6L580,12.6z"/>
	<path class="st0" d="M588.5,1062c-13.5,0-24.5,11-24.5,24.5s11,24.5,24.5,24.5s24.5-11,24.5-24.5S602,1062,588.5,1062L588.5,1062z"
		/>
	<path class="st0" d="M583,1018.9c-10.2,0-18.5,8.3-18.5,18.5s8.3,18.5,18.5,18.5s18.5-8.3,18.5-18.5S593.2,1018.9,583,1018.9
		L583,1018.9z"/>
	<path class="st0" d="M592.1,666.3c-13.5,0-24.5,11-24.5,24.5s11,24.5,24.5,24.5s24.5-11,24.5-24.5
		C616.6,677.3,605.6,666.3,592.1,666.3L592.1,666.3z"/>
	<path class="st0" d="M592.1,1157.1c-13.5,0-24.5,11-24.5,24.5s11,24.5,24.5,24.5s24.5-11,24.5-24.5
		C616.6,1168.1,605.6,1157.1,592.1,1157.1L592.1,1157.1z"/>
	<path class="st0" d="M587.9,977.1c-10.2,0-18.5,8.3-18.5,18.5s8.3,18.5,18.5,18.5s18.5-8.3,18.5-18.5
		C606.3,985.4,598.1,977.1,587.9,977.1L587.9,977.1z"/>
	<path class="st0" d="M587.9,1586c-10.2,0-18.5,8.3-18.5,18.5s8.3,18.5,18.5,18.5s18.5-8.3,18.5-18.5
		C606.3,1594.3,598.1,1586,587.9,1586L587.9,1586z"/>
	<path class="st0" d="M594.5,1212.8c-13.5,0-24.5,11-24.5,24.5s11,24.5,24.5,24.5s24.5-11,24.5-24.5S608.1,1212.8,594.5,1212.8
		L594.5,1212.8z"/>
	<path class="st0" d="M596.3,356.8c-13.5,0-24.5,11-24.5,24.5s11,24.5,24.5,24.5s24.5-11,24.5-24.5S609.9,356.8,596.3,356.8
		L596.3,356.8z"/>
	<path class="st0" d="M596.3,465.2c-13.5,0-24.5,11-24.5,24.5s11,24.5,24.5,24.5s24.5-11,24.5-24.5
		C620.9,476.2,609.9,465.2,596.3,465.2L596.3,465.2z"/>
	<path class="st0" d="M596.9,608.2c-13.5,0-24.5,11-24.5,24.5s11,24.5,24.5,24.5s24.5-11,24.5-24.5S610.5,608.2,596.9,608.2
		L596.9,608.2z"/>
	<path class="st0" d="M592.7,935.3c-10.2,0-18.5,8.3-18.5,18.5s8.3,18.5,18.5,18.5s18.5-8.3,18.5-18.5S602.9,935.3,592.7,935.3
		L592.7,935.3z"/>
	<path class="st0" d="M599.4,410.7c-13.5,0-24.5,11-24.5,24.5s11,24.5,24.5,24.5s24.5-11,24.5-24.5S612.9,410.7,599.4,410.7
		L599.4,410.7z"/>
	<path class="st0" d="M604.2,1885.9c-10.2,0-18.5,8.3-18.5,18.5s8.3,18.5,18.5,18.5s18.5-8.3,18.5-18.5
		C622.7,1894.2,614.4,1885.9,604.2,1885.9L604.2,1885.9z"/>
	<path class="st0" d="M610.9,2007.1c-13.5,0-24.5,11-24.5,24.5s11,24.5,24.5,24.5s24.5-11,24.5-24.5S624.4,2007.1,610.9,2007.1
		L610.9,2007.1z"/>
	<path class="st0" d="M612.1,1447.9c-13.5,0-24.5,11-24.5,24.5s11,24.5,24.5,24.5s24.5-11,24.5-24.5S625.6,1447.9,612.1,1447.9
		L612.1,1447.9z"/>
	<path class="st0" d="M606,1659.9c-10.2,0-18.5,8.3-18.5,18.5s8.3,18.5,18.5,18.5c10.2,0,18.5-8.3,18.5-18.5
		C624.5,1668.2,616.2,1659.9,606,1659.9L606,1659.9z"/>
	<path class="st0" d="M607.2,831.7c-10.2,0-18.5,8.3-18.5,18.5s8.3,18.5,18.5,18.5s18.5-8.3,18.5-18.5
		C625.7,840,617.4,831.7,607.2,831.7L607.2,831.7z"/>
	<path class="st0" d="M615.7,1364.9c-13.5,0-24.5,11-24.5,24.5s11,24.5,24.5,24.5s24.5-11,24.5-24.5S629.3,1364.9,615.7,1364.9
		L615.7,1364.9z"/>
	<path class="st0" d="M616.3,1701.1c-13.5,0-24.5,11-24.5,24.5s11,24.5,24.5,24.5s24.5-11,24.5-24.5S629.9,1701.1,616.3,1701.1
		L616.3,1701.1z"/>
	<path class="st0" d="M616.9,879c-13.5,0-24.5,11-24.5,24.5s11,24.5,24.5,24.5s24.5-11,24.5-24.5S630.5,879,616.9,879L616.9,879z"/>
	<path class="st0" d="M611.5,518.5c-10.2,0-18.5,8.3-18.5,18.5s8.3,18.5,18.5,18.5c10.2,0,18.5-8.3,18.5-18.5
		S621.7,518.5,611.5,518.5L611.5,518.5z"/>
	<path class="st0" d="M617.5,1323.7c-10.2,0-18.5,8.3-18.5,18.5s8.3,18.5,18.5,18.5s18.5-8.3,18.5-18.5
		C636,1332,627.7,1323.7,617.5,1323.7L617.5,1323.7z"/>
	<path class="st0" d="M626,1526.6c-13.5,0-24.5,11-24.5,24.5s11,24.5,24.5,24.5s24.5-11,24.5-24.5
		C650.6,1537.6,639.6,1526.6,626,1526.6L626,1526.6z"/>
	<path class="st0" d="M627.2,1775.7c-13.5,0-24.5,11-24.5,24.5s11,24.5,24.5,24.5s24.5-11,24.5-24.5
		C651.8,1786.6,640.8,1775.7,627.2,1775.7L627.2,1775.7z"/>
	<path class="st0" d="M621.2,1937.4c-10.2,0-18.5,8.3-18.5,18.5s8.3,18.5,18.5,18.5s18.5-8.3,18.5-18.5
		C639.7,1945.7,631.4,1937.4,621.2,1937.4L621.2,1937.4z"/>
	<path class="st0" d="M635.7,759.6c-13.5,0-24.5,11-24.5,24.5s11,24.5,24.5,24.5s24.5-11,24.5-24.5S649.3,759.6,635.7,759.6
		L635.7,759.6z"/>
	<path class="st0" d="M636.9,1613.9c-13.5,0-24.5,11-24.5,24.5s11,24.5,24.5,24.5s24.5-11,24.5-24.5S650.5,1613.9,636.9,1613.9
		L636.9,1613.9z"/>
	<path class="st0" d="M638.1,1022.6c-13.5,0-24.5,11-24.5,24.5s11,24.5,24.5,24.5s24.5-11,24.5-24.5S651.7,1022.6,638.1,1022.6
		L638.1,1022.6z"/>
	<path class="st0" d="M633.9,1250.4c-10.2,0-18.5,8.3-18.5,18.5s8.3,18.5,18.5,18.5c10.2,0,18.5-8.3,18.5-18.5
		S644.1,1250.4,633.9,1250.4L633.9,1250.4z"/>
	<path class="st0" d="M643,1087.4c-13.5,0-24.5,11-24.5,24.5s11,24.5,24.5,24.5s24.5-11,24.5-24.5S656.5,1087.4,643,1087.4
		L643,1087.4z"/>
	<path class="st0" d="M641.8,1413.9c-10.2,0-18.5,8.3-18.5,18.5s8.3,18.5,18.5,18.5s18.5-8.3,18.5-18.5S652,1413.9,641.8,1413.9
		L641.8,1413.9z"/>
	<path class="st0" d="M650.3,955.3c-13.5,0-24.5,11-24.5,24.5s11,24.5,24.5,24.5s24.5-11,24.5-24.5S663.8,955.3,650.3,955.3
		L650.3,955.3z"/>
	<path class="st0" d="M645.4,435.5c-10.2,0-18.5,8.3-18.5,18.5c0,10.2,8.3,18.5,18.5,18.5c10.2,0,18.5-8.3,18.5-18.5
		C663.9,443.8,655.6,435.5,645.4,435.5L645.4,435.5z"/>
	<path class="st0" d="M647.8,1668.4c-10.2,0-18.5,8.3-18.5,18.5s8.3,18.5,18.5,18.5s18.5-8.3,18.5-18.5S658,1668.4,647.8,1668.4
		L647.8,1668.4z"/>
	<path class="st0" d="M648.4,1143.8c-10.2,0-18.5,8.3-18.5,18.5s8.3,18.5,18.5,18.5s18.5-8.3,18.5-18.5S658.6,1143.8,648.4,1143.8
		L648.4,1143.8z"/>
	<path class="st0" d="M657.5,533.7c-13.5,0-24.5,11-24.5,24.5s11,24.5,24.5,24.5s24.5-11,24.5-24.5
		C682.1,544.6,671.1,533.7,657.5,533.7L657.5,533.7z"/>
	<path class="st0" d="M660.6,1823.5c-13.5,0-24.5,11-24.5,24.5s11,24.5,24.5,24.5s24.5-11,24.5-24.5S674.1,1823.5,660.6,1823.5
		L660.6,1823.5z"/>
	<path class="st0" d="M655.1,1739.9c-10.2,0-18.5,8.3-18.5,18.5s8.3,18.5,18.5,18.5s18.5-8.3,18.5-18.5
		C673.6,1748.2,665.3,1739.9,655.1,1739.9L655.1,1739.9z"/>
	<path class="st0" d="M661.2,1964.7c-13.5,0-24.5,11-24.5,24.5s11,24.5,24.5,24.5s24.5-11,24.5-24.5S674.7,1964.7,661.2,1964.7
		L661.2,1964.7z"/>
	<path class="st0" d="M657.5,1341.3c-10.2,0-18.5,8.3-18.5,18.5s8.3,18.5,18.5,18.5c10.2,0,18.5-8.3,18.5-18.5
		C676,1349.5,667.7,1341.3,657.5,1341.3L657.5,1341.3z"/>
	<path class="st0" d="M658.7,2025.9c-10.2,0-18.5,8.3-18.5,18.5s8.3,18.5,18.5,18.5s18.5-8.3,18.5-18.5
		C677.2,2034.1,668.9,2025.9,658.7,2025.9L658.7,2025.9z"/>
	<path class="st0" d="M658.7,913.5c-10.2,0-18.5,8.3-18.5,18.5s8.3,18.5,18.5,18.5s18.5-8.3,18.5-18.5
		C677.2,921.8,668.9,913.5,658.7,913.5L658.7,913.5z"/>
	<path class="st0" d="M668.4,832.9c-13.5,0-24.5,11-24.5,24.5s11,24.5,24.5,24.5s24.5-11,24.5-24.5C693,843.9,682,832.9,668.4,832.9
		L668.4,832.9z"/>
	<path class="st0" d="M669,359.2c-13.5,0-24.5,11-24.5,24.5s11,24.5,24.5,24.5s24.5-11,24.5-24.5S682.6,359.2,669,359.2L669,359.2z"
		/>
	<path class="st0" d="M672.1,1286.7c-13.5,0-24.5,11-24.5,24.5s11,24.5,24.5,24.5s24.5-11,24.5-24.5S685.6,1286.7,672.1,1286.7
		L672.1,1286.7z"/>
	<path class="st0" d="M673.3,1895.6c-13.5,0-24.5,11-24.5,24.5s11,24.5,24.5,24.5s24.5-11,24.5-24.5S686.8,1895.6,673.3,1895.6
		L673.3,1895.6z"/>
	<path class="st0" d="M673.9,1180.1c-13.5,0-24.5,11-24.5,24.5s11,24.5,24.5,24.5s24.5-11,24.5-24.5S687.4,1180.1,673.9,1180.1
		L673.9,1180.1z"/>
	<path class="st0" d="M671.5,1563c-10.2,0-18.5,8.3-18.5,18.5s8.3,18.5,18.5,18.5s18.5-8.3,18.5-18.5
		C689.9,1571.3,681.7,1563,671.5,1563L671.5,1563z"/>
	<path class="st0" d="M676.9,1244.9c-10.2,0-18.5,8.3-18.5,18.5s8.3,18.5,18.5,18.5c10.2,0,18.5-8.3,18.5-18.5
		S687.1,1244.9,676.9,1244.9L676.9,1244.9z"/>
	<path class="st0" d="M685.4,1469.7c-13.5,0-24.5,11-24.5,24.5s11,24.5,24.5,24.5s24.5-11,24.5-24.5
		C709.9,1480.7,698.9,1469.7,685.4,1469.7L685.4,1469.7z"/>
	<path class="st0" d="M687.8,467.6c-13.5,0-24.5,11-24.5,24.5s11,24.5,24.5,24.5s24.5-11,24.5-24.5S701.4,467.6,687.8,467.6
		L687.8,467.6z"/>
	<path class="st0" d="M684.2,1604.2c-10.2,0-18.5,8.3-18.5,18.5c0,10.2,8.3,18.5,18.5,18.5c10.2,0,18.5-8.3,18.5-18.5
		C702.7,1612.5,694.4,1604.2,684.2,1604.2L684.2,1604.2z"/>
	<path class="st0" d="M685.4,786.3c-10.2,0-18.5,8.3-18.5,18.5s8.3,18.5,18.5,18.5c10.2,0,18.5-8.3,18.5-18.5
		C703.9,794.6,695.6,786.3,685.4,786.3L685.4,786.3z"/>
	<path class="st0" d="M691.5,1387.9c-13.5,0-24.5,11-24.5,24.5s11,24.5,24.5,24.5s24.5-11,24.5-24.5
		C716,1398.9,705,1387.9,691.5,1387.9L691.5,1387.9z"/>
	<path class="st0" d="M695.7,1060.7c-13.5,0-24.5,11-24.5,24.5s11,24.5,24.5,24.5s24.5-11,24.5-24.5
		C720.2,1071.7,709.2,1060.7,695.7,1060.7L695.7,1060.7z"/>
	<path class="st0" d="M693.3,1677.5c-10.2,0-18.5,8.3-18.5,18.5s8.3,18.5,18.5,18.5s18.5-8.3,18.5-18.5
		C711.7,1685.8,703.5,1677.5,693.3,1677.5L693.3,1677.5z"/>
	<path class="st0" d="M703,1718.7c-13.5,0-24.5,11-24.5,24.5s11,24.5,24.5,24.5s24.5-11,24.5-24.5S716.5,1718.7,703,1718.7
		L703,1718.7z"/>
	<path class="st0" d="M705.4,1005.6c-13.5,0-24.5,11-24.5,24.5c0,13.6,11,24.5,24.5,24.5s24.5-11,24.5-24.5
		C729.9,1016.6,718.9,1005.6,705.4,1005.6L705.4,1005.6z"/>
	<path class="st0" d="M708.4,411.3c-13.5,0-24.5,11-24.5,24.5s11,24.5,24.5,24.5s24.5-11,24.5-24.5C733,422.3,722,411.3,708.4,411.3
		L708.4,411.3z"/>
	<path class="st0" d="M708.4,928.1c-13.5,0-24.5,11-24.5,24.5s11,24.5,24.5,24.5s24.5-11,24.5-24.5C733,939,722,928.1,708.4,928.1
		L708.4,928.1z"/>
	<path class="st0" d="M709,1117.1c-13.5,0-24.5,11-24.5,24.5s11,24.5,24.5,24.5s24.5-11,24.5-24.5
		C733.6,1128.1,722.6,1117.1,709,1117.1L709,1117.1z"/>
	<path class="st0" d="M712.7,1782.9c-13.5,0-24.5,11-24.5,24.5s11,24.5,24.5,24.5s24.5-11,24.5-24.5S726.2,1782.9,712.7,1782.9
		L712.7,1782.9z"/>
	<path class="st0" d="M713.9,1985.9c-13.5,0-24.5,11-24.5,24.5s11,24.5,24.5,24.5s24.5-11,24.5-24.5S727.4,1985.9,713.9,1985.9
		L713.9,1985.9z"/>
	<path class="st0" d="M719.3,1551.5c-13.5,0-24.5,11-24.5,24.5s11,24.5,24.5,24.5s24.5-11,24.5-24.5
		C743.9,1562.5,732.9,1551.5,719.3,1551.5L719.3,1551.5z"/>
	<path class="st0" d="M719.9,1852.6c-13.5,0-24.5,11-24.5,24.5s11,24.5,24.5,24.5s24.5-11,24.5-24.5S733.5,1852.6,719.9,1852.6
		L719.9,1852.6z"/>
	<path class="st0" d="M722.4,845.7c-13.5,0-24.5,11-24.5,24.5s11,24.5,24.5,24.5s24.5-11,24.5-24.5
		C746.9,856.6,735.9,845.7,722.4,845.7L722.4,845.7z"/>
	<path class="st0" d="M722.4,1218.9c-13.5,0-24.5,11-24.5,24.5s11,24.5,24.5,24.5s24.5-11,24.5-24.5
		C746.9,1229.9,735.9,1218.9,722.4,1218.9L722.4,1218.9z"/>
	<path class="st0" d="M716.9,355.5c-10.2,0-18.5,8.3-18.5,18.5s8.3,18.5,18.5,18.5s18.5-8.3,18.5-18.5S727.1,355.5,716.9,355.5
		L716.9,355.5z"/>
	<path class="st0" d="M716.9,1941.7c-10.2,0-18.5,8.3-18.5,18.5s8.3,18.5,18.5,18.5s18.5-8.3,18.5-18.5S727.1,1941.7,716.9,1941.7
		L716.9,1941.7z"/>
	<path class="st0" d="M717.5,1273.4c-10.2,0-18.5,8.3-18.5,18.5s8.3,18.5,18.5,18.5c10.2,0,18.5-8.3,18.5-18.5
		S727.7,1273.4,717.5,1273.4L717.5,1273.4z"/>
	<path class="st0" d="M723.6,1329.7c-13.5,0-24.5,11-24.5,24.5s11,24.5,24.5,24.5s24.5-11,24.5-24.5S737.1,1329.7,723.6,1329.7
		L723.6,1329.7z"/>
	<path class="st0" d="M722.4,1510.3c-10.2,0-18.5,8.3-18.5,18.5s8.3,18.5,18.5,18.5c10.2,0,18.5-8.3,18.5-18.5
		S732.6,1510.3,722.4,1510.3L722.4,1510.3z"/>
	<path class="st0" d="M735.1,1622.4c-13.5,0-24.5,11-24.5,24.5s11,24.5,24.5,24.5s24.5-11,24.5-24.5S748.6,1622.4,735.1,1622.4
		L735.1,1622.4z"/>
	<path class="st0" d="M740.5,1434.6c-13.5,0-24.5,11-24.5,24.5s11,24.5,24.5,24.5s24.5-11,24.5-24.5
		C765.1,1445.5,754.1,1434.6,740.5,1434.6L740.5,1434.6z"/>
	<path class="st0" d="M739.3,1384.3c-10.2,0-18.5,8.3-18.5,18.5s8.3,18.5,18.5,18.5c10.2,0,18.5-8.3,18.5-18.5
		S749.5,1384.3,739.3,1384.3L739.3,1384.3z"/>
	<path class="st0" d="M746.6,896c-10.2,0-18.5,8.3-18.5,18.5s8.3,18.5,18.5,18.5c10.2,0,18.5-8.3,18.5-18.5S756.8,896,746.6,896
		L746.6,896z"/>
	<path class="st0" d="M747.2,1156.5c-10.2,0-18.5,8.3-18.5,18.5s8.3,18.5,18.5,18.5s18.5-8.3,18.5-18.5S757.4,1156.5,747.2,1156.5
		L747.2,1156.5z"/>
	<path class="st0" d="M748.4,1704.8c-10.2,0-18.5,8.3-18.5,18.5s8.3,18.5,18.5,18.5s18.5-8.3,18.5-18.5S758.6,1704.8,748.4,1704.8
		L748.4,1704.8z"/>
	<path class="st0" d="M755.7,959c-13.5,0-24.5,11-24.5,24.5s11,24.5,24.5,24.5s24.5-11,24.5-24.5S769.2,959,755.7,959L755.7,959z"/>
	<path class="st0" d="M758.1,1969.5c-10.2,0-18.5,8.3-18.5,18.5s8.3,18.5,18.5,18.5s18.5-8.3,18.5-18.5
		C776.6,1977.8,768.3,1969.5,758.1,1969.5L758.1,1969.5z"/>
	<path class="st0" d="M762.9,1068.6c-10.2,0-18.5,8.3-18.5,18.5s8.3,18.5,18.5,18.5s18.5-8.3,18.5-18.5S773.1,1068.6,762.9,1068.6
		L762.9,1068.6z"/>
	<path class="st0" d="M769.6,1749.6c-13.5,0-24.5,11-24.5,24.5s11,24.5,24.5,24.5s24.5-11,24.5-24.5S783.2,1749.6,769.6,1749.6
		L769.6,1749.6z"/>
	<path class="st0" d="M769.6,1915c-13.5,0-24.5,11-24.5,24.5s11,24.5,24.5,24.5s24.5-11,24.5-24.5S783.2,1915,769.6,1915L769.6,1915
		z"/>
	<path class="st0" d="M773.2,1014.1c-13.5,0-24.5,11-24.5,24.5s11,24.5,24.5,24.5s24.5-11,24.5-24.5
		C797.8,1025.1,786.8,1014.1,773.2,1014.1L773.2,1014.1z"/>
	<path class="st0" d="M773.8,1501.2c-13.5,0-24.5,11-24.5,24.5s11,24.5,24.5,24.5s24.5-11,24.5-24.5S787.4,1501.2,773.8,1501.2
		L773.8,1501.2z"/>
	<path class="st0" d="M767.8,1555.7c-10.2,0-18.5,8.3-18.5,18.5s8.3,18.5,18.5,18.5s18.5-8.3,18.5-18.5
		C786.3,1564,778,1555.7,767.8,1555.7L767.8,1555.7z"/>
	<path class="st0" d="M778.1,1109.2c-13.5,0-24.5,11-24.5,24.5s11,24.5,24.5,24.5s24.5-11,24.5-24.5
		C802.6,1120.2,791.6,1109.2,778.1,1109.2L778.1,1109.2z"/>
	<path class="st0" d="M778.1,1255.8c-13.5,0-24.5,11-24.5,24.5s11,24.5,24.5,24.5s24.5-11,24.5-24.5S791.6,1255.8,778.1,1255.8
		L778.1,1255.8z"/>
	<path class="st0" d="M775.7,2026.5c-10.2,0-18.5,8.3-18.5,18.5s8.3,18.5,18.5,18.5s18.5-8.3,18.5-18.5
		C794.1,2034.7,785.9,2026.5,775.7,2026.5L775.7,2026.5z"/>
	<path class="st0" d="M782.3,1344.3c-13.5,0-24.5,11-24.5,24.5s11,24.5,24.5,24.5s24.5-11,24.5-24.5S795.9,1344.3,782.3,1344.3
		L782.3,1344.3z"/>
	<path class="st0" d="M789.6,1832c-13.5,0-24.5,11-24.5,24.5s11,24.5,24.5,24.5s24.5-11,24.5-24.5S803.2,1832,789.6,1832L789.6,1832
		z"/>
	<path class="st0" d="M790.8,1407.3c-13.5,0-24.5,11-24.5,24.5s11,24.5,24.5,24.5s24.5-11,24.5-24.5
		C815.3,1418.3,804.4,1407.3,790.8,1407.3L790.8,1407.3z"/>
	<path class="st0" d="M792.6,1592.7c-13.5,0-24.5,11-24.5,24.5s11,24.5,24.5,24.5s24.5-11,24.5-24.5S806.2,1592.7,792.6,1592.7
		L792.6,1592.7z"/>
	<path class="st0" d="M792.6,1461.8c-10.2,0-18.5,8.3-18.5,18.5s8.3,18.5,18.5,18.5s18.5-8.3,18.5-18.5
		C811.1,1470.1,802.8,1461.8,792.6,1461.8L792.6,1461.8z"/>
	<path class="st0" d="M807.8,1192.2c-13.5,0-24.5,11-24.5,24.5s11,24.5,24.5,24.5s24.5-11,24.5-24.5
		C832.3,1203.2,821.3,1192.2,807.8,1192.2L807.8,1192.2z"/>
	<path class="st0" d="M812.6,1678.7c-13.5,0-24.5,11-24.5,24.5s11,24.5,24.5,24.5s24.5-11,24.5-24.5S826.2,1678.7,812.6,1678.7
		L812.6,1678.7z"/>
	<path class="st0" d="M816.9,1539.4c-13.5,0-24.5,11-24.5,24.5s11,24.5,24.5,24.5s24.5-11,24.5-24.5S830.4,1539.4,816.9,1539.4
		L816.9,1539.4z"/>
	<path class="st0" d="M818.7,1948.3c-13.5,0-24.5,11-24.5,24.5s11,24.5,24.5,24.5s24.5-11,24.5-24.5S832.2,1948.3,818.7,1948.3
		L818.7,1948.3z"/>
	<path class="st0" d="M813.8,1733.2c-10.2,0-18.5,8.3-18.5,18.5s8.3,18.5,18.5,18.5c10.2,0,18.5-8.3,18.5-18.5
		S824,1733.2,813.8,1733.2L813.8,1733.2z"/>
	<path class="st0" d="M821.7,1496.4c-10.2,0-18.5,8.3-18.5,18.5s8.3,18.5,18.5,18.5c10.2,0,18.5-8.3,18.5-18.5
		C840.2,1504.6,831.9,1496.4,821.7,1496.4L821.7,1496.4z"/>
	<path class="st0" d="M823.5,1907.1c-10.2,0-18.5,8.3-18.5,18.5s8.3,18.5,18.5,18.5c10.2,0,18.5-8.3,18.5-18.5
		S833.7,1907.1,823.5,1907.1L823.5,1907.1z"/>
	<path class="st0" d="M825.3,1637.5c-10.2,0-18.5,8.3-18.5,18.5s8.3,18.5,18.5,18.5s18.5-8.3,18.5-18.5
		C843.8,1645.8,835.6,1637.5,825.3,1637.5L825.3,1637.5z"/>
	<path class="st0" d="M832,1099.5c-13.5,0-24.5,11-24.5,24.5s11,24.5,24.5,24.5s24.5-11,24.5-24.5
		C856.5,1110.5,845.6,1099.5,832,1099.5L832,1099.5z"/>
	<path class="st0" d="M828.4,1253.4c-10.2,0-18.5,8.3-18.5,18.5s8.3,18.5,18.5,18.5s18.5-8.3,18.5-18.5S838.6,1253.4,828.4,1253.4
		L828.4,1253.4z"/>
	<path class="st0" d="M830.2,1154c-10.2,0-18.5,8.3-18.5,18.5s8.3,18.5,18.5,18.5s18.5-8.3,18.5-18.5
		C848.7,1162.3,840.4,1154,830.2,1154L830.2,1154z"/>
	<path class="st0" d="M842.3,1802.9c-13.5,0-24.5,11-24.5,24.5s11,24.5,24.5,24.5s24.5-11,24.5-24.5S855.9,1802.9,842.3,1802.9
		L842.3,1802.9z"/>
	<path class="st0" d="M844.7,1303.1c-13.5,0-24.5,11-24.5,24.5s11,24.5,24.5,24.5s24.5-11,24.5-24.5
		C869.3,1314.1,858.3,1303.1,844.7,1303.1L844.7,1303.1z"/>
	<path class="st0" d="M846.6,1395.2c-13.5,0-24.5,11-24.5,24.5s11,24.5,24.5,24.5s24.5-11,24.5-24.5S860.1,1395.2,846.6,1395.2
		L846.6,1395.2z"/>
	<path class="st0" d="M864.1,1211.6c-13.5,0-24.5,11-24.5,24.5s11,24.5,24.5,24.5s24.5-11,24.5-24.5
		C888.7,1222.6,877.7,1211.6,864.1,1211.6L864.1,1211.6z"/>
	<path class="st0" d="M858.7,1666.6c-10.2,0-18.5,8.3-18.5,18.5s8.3,18.5,18.5,18.5s18.5-8.3,18.5-18.5
		C877.1,1674.9,868.9,1666.6,858.7,1666.6L858.7,1666.6z"/>
	<path class="st0" d="M859.3,1519.4c-10.2,0-18.5,8.3-18.5,18.5s8.3,18.5,18.5,18.5c10.2,0,18.5-8.3,18.5-18.5
		C877.8,1527.6,869.5,1519.4,859.3,1519.4L859.3,1519.4z"/>
	<path class="st0" d="M865.3,1979.8c-13.5,0-24.5,11-24.5,24.5s11,24.5,24.5,24.5s24.5-11,24.5-24.5
		C889.9,1990.8,878.9,1979.8,865.3,1979.8L865.3,1979.8z"/>
	<path class="st0" d="M869,1460c-13.5,0-24.5,11-24.5,24.5s11,24.5,24.5,24.5s24.5-11,24.5-24.5S882.5,1460,869,1460L869,1460z"/>
	<path class="st0" d="M864.1,1872c-10.2,0-18.5,8.3-18.5,18.5s8.3,18.5,18.5,18.5c10.2,0,18.5-8.3,18.5-18.5
		C882.6,1880.3,874.3,1872,864.1,1872L864.1,1872z"/>
	<path class="st0" d="M876.8,1573.9c-13.5,0-24.5,11-24.5,24.5s11,24.5,24.5,24.5s24.5-11,24.5-24.5S890.4,1573.9,876.8,1573.9
		L876.8,1573.9z"/>
	<path class="st0" d="M878.7,1912.6c-13.5,0-24.5,11-24.5,24.5s11,24.5,24.5,24.5s24.5-11,24.5-24.5S892.2,1912.6,878.7,1912.6
		L878.7,1912.6z"/>
	<path class="st0" d="M879.9,1128.6c-13.5,0-24.5,11-24.5,24.5s11,24.5,24.5,24.5s24.5-11,24.5-24.5
		C904.4,1139.6,893.4,1128.6,879.9,1128.6L879.9,1128.6z"/>
	<path class="st0" d="M882.9,1722.3c-13.5,0-24.5,11-24.5,24.5s11,24.5,24.5,24.5s24.5-11,24.5-24.5
		C907.4,1733.3,896.5,1722.3,882.9,1722.3L882.9,1722.3z"/>
	<path class="st0" d="M880.5,1264.9c-10.2,0-18.5,8.3-18.5,18.5s8.3,18.5,18.5,18.5c10.2,0,18.5-8.3,18.5-18.5
		S890.7,1264.9,880.5,1264.9L880.5,1264.9z"/>
	<path class="st0" d="M880.5,1628.4c-10.2,0-18.5,8.3-18.5,18.5s8.3,18.5,18.5,18.5c10.2,0,18.5-8.3,18.5-18.5
		C899,1636.7,890.7,1628.4,880.5,1628.4L880.5,1628.4z"/>
	<path class="st0" d="M888.4,1349.1c-13.5,0-24.5,11-24.5,24.5s11,24.5,24.5,24.5s24.5-11,24.5-24.5S901.9,1349.1,888.4,1349.1
		L888.4,1349.1z"/>
	<path class="st0" d="M907.7,1502.4c-13.5,0-24.5,11-24.5,24.5s11,24.5,24.5,24.5c13.6,0,24.5-11,24.5-24.5
		C932.3,1513.4,921.3,1502.4,907.7,1502.4L907.7,1502.4z"/>
	<path class="st0" d="M908.3,1792.6c-13.5,0-24.5,11-24.5,24.5s11,24.5,24.5,24.5c13.6,0,24.5-11,24.5-24.5
		S921.9,1792.6,908.3,1792.6L908.3,1792.6z"/>
	<path class="st0" d="M915.6,1295.8c-13.5,0-24.5,11-24.5,24.5s11,24.5,24.5,24.5c13.6,0,24.5-11,24.5-24.5
		S929.2,1295.8,915.6,1295.8L915.6,1295.8z"/>
	<path class="st0" d="M919.9,1395.8c-13.5,0-24.5,11-24.5,24.5s11,24.5,24.5,24.5c13.6,0,24.5-11,24.5-24.5
		C944.4,1406.8,933.4,1395.8,919.9,1395.8L919.9,1395.8z"/>
	<path class="st0" d="M919.9,1659.9c-13.5,0-24.5,11-24.5,24.5s11,24.5,24.5,24.5c13.6,0,24.5-11,24.5-24.5
		C944.4,1670.9,933.4,1659.9,919.9,1659.9L919.9,1659.9z"/>
	<path class="st0" d="M922.3,1618.7c-10.2,0-18.5,8.3-18.5,18.5c0,10.2,8.3,18.5,18.5,18.5s18.5-8.3,18.5-18.5
		C940.8,1627,932.5,1618.7,922.3,1618.7L922.3,1618.7z"/>
	<path class="st0" d="M929.6,1211.6c-13.6,0-24.5,11-24.5,24.5s11,24.5,24.5,24.5c13.6,0,24.5-11,24.5-24.5
		C954.1,1222.6,943.1,1211.6,929.6,1211.6L929.6,1211.6z"/>
	<path class="st0" d="M927.1,1752c-10.2,0-18.5,8.3-18.5,18.5s8.3,18.5,18.5,18.5s18.5-8.3,18.5-18.5S937.3,1752,927.1,1752
		L927.1,1752z"/>
	<path class="st0" d="M928.3,1450.3c-10.2,0-18.5,8.3-18.5,18.5s8.3,18.5,18.5,18.5s18.5-8.3,18.5-18.5
		C946.8,1458.6,938.5,1450.3,928.3,1450.3L928.3,1450.3z"/>
	<path class="st0" d="M929.6,1919.2c-10.2,0-18.5,8.3-18.5,18.5s8.3,18.5,18.5,18.5s18.5-8.3,18.5-18.5
		C948,1927.5,939.8,1919.2,929.6,1919.2L929.6,1919.2z"/>
	<path class="st0" d="M942.9,1967.7c-13.6,0-24.5,11-24.5,24.5s11,24.5,24.5,24.5s24.5-11,24.5-24.5S956.4,1967.7,942.9,1967.7
		L942.9,1967.7z"/>
	<path class="st0" d="M944.1,1844.7c-13.6,0-24.5,11-24.5,24.5s11,24.5,24.5,24.5s24.5-11,24.5-24.5
		C968.6,1855.7,957.6,1844.7,944.1,1844.7L944.1,1844.7z"/>
	<path class="st0" d="M952.6,1339.4c-13.6,0-24.5,11-24.5,24.5s11,24.5,24.5,24.5s24.5-11,24.5-24.5S966.1,1339.4,952.6,1339.4
		L952.6,1339.4z"/>
	<path class="st0" d="M953.8,1564.8c-13.6,0-24.5,11-24.5,24.5s11,24.5,24.5,24.5s24.5-11,24.5-24.5
		C978.3,1575.8,967.3,1564.8,953.8,1564.8L953.8,1564.8z"/>
	<path class="st0" d="M962.9,1288.5c-10.2,0-18.5,8.3-18.5,18.5s8.3,18.5,18.5,18.5s18.5-8.3,18.5-18.5
		C981.4,1296.8,973.1,1288.5,962.9,1288.5L962.9,1288.5z"/>
	<path class="st0" d="M972,1637.5c-13.6,0-24.5,11-24.5,24.5s11,24.5,24.5,24.5s24.5-11,24.5-24.5S985.5,1637.5,972,1637.5
		L972,1637.5z"/>
	<path class="st0" d="M973.8,1390.9c-13.6,0-24.5,11-24.5,24.5s11,24.5,24.5,24.5s24.5-11,24.5-24.5
		C998.3,1401.9,987.3,1390.9,973.8,1390.9L973.8,1390.9z"/>
	<path class="st0" d="M968.9,1789.6c-10.2,0-18.5,8.3-18.5,18.5s8.3,18.5,18.5,18.5s18.5-8.3,18.5-18.5S979.1,1789.6,968.9,1789.6
		L968.9,1789.6z"/>
	<path class="st0" d="M976.8,1463.6c-13.6,0-24.5,11-24.5,24.5s11,24.5,24.5,24.5s24.5-11,24.5-24.5
		C1001.3,1474.6,990.4,1463.6,976.8,1463.6L976.8,1463.6z"/>
	<path class="st0" d="M977.4,1914.4c-13.6,0-24.5,11-24.5,24.5s11,24.5,24.5,24.5s24.5-11,24.5-24.5
		C1002,1925.4,991,1914.4,977.4,1914.4L977.4,1914.4z"/>
	<path class="st0" d="M986.5,1736.9c-13.6,0-24.5,11-24.5,24.5s11,24.5,24.5,24.5s24.5-11,24.5-24.5S1000.1,1736.9,986.5,1736.9
		L986.5,1736.9z"/>
	<path class="st0" d="M981.1,1692c-10.2,0-18.5,8.3-18.5,18.5s8.3,18.5,18.5,18.5s18.5-8.3,18.5-18.5
		C999.5,1700.3,991.3,1692,981.1,1692L981.1,1692z"/>
	<path class="st0" d="M995.6,1521.2c-13.6,0-24.5,11-24.5,24.5s11,24.5,24.5,24.5s24.5-11,24.5-24.5
		C1020.1,1532.2,1009.1,1521.2,995.6,1521.2L995.6,1521.2z"/>
	<path class="st0" d="M1002.3,1843.5c-13.6,0-24.5,11-24.5,24.5s11,24.5,24.5,24.5s24.5-11,24.5-24.5
		C1026.8,1854.5,1015.8,1843.5,1002.3,1843.5L1002.3,1843.5z"/>
	<path class="st0" d="M1010.1,1432.1c-10.2,0-18.5,8.3-18.5,18.5s8.3,18.5,18.5,18.5s18.5-8.3,18.5-18.5
		C1028.6,1440.4,1020.3,1432.1,1010.1,1432.1L1010.1,1432.1z"/>
	<path class="st0" d="M1016.8,1666c-10.2,0-18.5,8.3-18.5,18.5s8.3,18.5,18.5,18.5s18.5-8.3,18.5-18.5S1027,1666,1016.8,1666
		L1016.8,1666z"/>
	<path class="st0" d="M1030.1,1787.2c-13.6,0-24.5,11-24.5,24.5s11,24.5,24.5,24.5s24.5-11,24.5-24.5S1043.7,1787.2,1030.1,1787.2
		L1030.1,1787.2z"/>
	<path class="st0" d="M1031.3,1915.6c-13.6,0-24.5,11-24.5,24.5s11,24.5,24.5,24.5s24.5-11,24.5-24.5S1044.9,1915.6,1031.3,1915.6
		L1031.3,1915.6z"/>
	<path class="st0" d="M1025.3,1979.8c-10.2,0-18.5,8.3-18.5,18.5s8.3,18.5,18.5,18.5s18.5-8.3,18.5-18.5
		S1035.5,1979.8,1025.3,1979.8L1025.3,1979.8z"/>
	<path class="st0" d="M1033.8,1575.1c-13.6,0-24.5,11-24.5,24.5s11,24.5,24.5,24.5s24.5-11,24.5-24.5
		C1058.3,1586.1,1047.3,1575.1,1033.8,1575.1L1033.8,1575.1z"/>
	<path class="st0" d="M1051.9,1522.4c-13.6,0-24.5,11-24.5,24.5s11,24.5,24.5,24.5s24.5-11,24.5-24.5
		C1076.5,1533.4,1065.5,1522.4,1051.9,1522.4L1051.9,1522.4z"/>
	<path class="st0" d="M1057.4,1698.7c-13.6,0-24.5,11-24.5,24.5s11,24.5,24.5,24.5s24.5-11,24.5-24.5S1070.9,1698.7,1057.4,1698.7
		L1057.4,1698.7z"/>
	<path class="st0" d="M1057.4,1862.3c-13.6,0-24.5,11-24.5,24.5s11,24.5,24.5,24.5s24.5-11,24.5-24.5S1070.9,1862.3,1057.4,1862.3
		L1057.4,1862.3z"/>
	<path class="st0" d="M1063.4,1623c-13.6,0-24.5,11-24.5,24.5s11,24.5,24.5,24.5s24.5-11,24.5-24.5S1077,1623,1063.4,1623
		L1063.4,1623z"/>
	<path class="st0" d="M1071.3,1955.6c-13.6,0-24.5,11-24.5,24.5s11,24.5,24.5,24.5s24.5-11,24.5-24.5S1084.9,1955.6,1071.3,1955.6
		L1071.3,1955.6z"/>
	<path class="st0" d="M1083.4,1911.4c-10.2,0-18.5,8.3-18.5,18.5s8.3,18.5,18.5,18.5s18.5-8.3,18.5-18.5
		S1093.6,1911.4,1083.4,1911.4L1083.4,1911.4z"/>
	<path class="st0" d="M1093.1,1765.4c-13.6,0-24.5,11-24.5,24.5s11,24.5,24.5,24.5s24.5-11,24.5-24.5S1106.7,1765.4,1093.1,1765.4
		L1093.1,1765.4z"/>
	<path class="st0" d="M1087.7,1564.2c-10.2,0-18.5,8.3-18.5,18.5s8.3,18.5,18.5,18.5s18.5-8.3,18.5-18.5
		C1106.2,1572.5,1097.9,1564.2,1087.7,1564.2L1087.7,1564.2z"/>
	<path class="st0" d="M1095,1503.6c-10.2,0-18.5,8.3-18.5,18.5s8.3,18.5,18.5,18.5s18.5-8.3,18.5-18.5
		C1113.4,1511.9,1105.2,1503.6,1095,1503.6L1095,1503.6z"/>
	<path class="st0" d="M1102.8,1685.4c-10.2,0-18.5,8.3-18.5,18.5s8.3,18.5,18.5,18.5s18.5-8.3,18.5-18.5S1113,1685.4,1102.8,1685.4
		L1102.8,1685.4z"/>
	<path class="st0" d="M1110.1,1601.8c-10.2,0-18.5,8.3-18.5,18.5s8.3,18.5,18.5,18.5s18.5-8.3,18.5-18.5
		S1120.3,1601.8,1110.1,1601.8L1110.1,1601.8z"/>
	<path class="st0" d="M1113.7,1643.6c-10.2,0-18.5,8.3-18.5,18.5s8.3,18.5,18.5,18.5s18.5-8.3,18.5-18.5
		S1123.9,1643.6,1113.7,1643.6L1113.7,1643.6z"/>
	<path class="st0" d="M1116.8,1940.4c-10.2,0-18.5,8.3-18.5,18.5s8.3,18.5,18.5,18.5s18.5-8.3,18.5-18.5
		C1135.2,1948.7,1127,1940.4,1116.8,1940.4L1116.8,1940.4z"/>
	<path class="st0" d="M1131.3,1880.5c-13.6,0-24.5,11-24.5,24.5s11,24.5,24.5,24.5s24.5-11,24.5-24.5S1144.9,1880.5,1131.3,1880.5
		L1131.3,1880.5z"/>
	<path class="st0" d="M1145.8,1497c-13.6,0-24.5,11-24.5,24.5s11,24.5,24.5,24.5s24.5-11,24.5-24.5
		C1170.4,1507.9,1159.4,1497,1145.8,1497L1145.8,1497z"/>
	<path class="st0" d="M1147.1,1716.3c-13.6,0-24.5,11-24.5,24.5s11,24.5,24.5,24.5s24.5-11,24.5-24.5S1160.6,1716.3,1147.1,1716.3
		L1147.1,1716.3z"/>
	<path class="st0" d="M1158,1660.5c-13.6,0-24.5,11-24.5,24.5s11,24.5,24.5,24.5s24.5-11,24.5-24.5S1171.5,1660.5,1158,1660.5
		L1158,1660.5z"/>
	<path class="st0" d="M1160.4,1560c-13.6,0-24.5,11-24.5,24.5s11,24.5,24.5,24.5s24.5-11,24.5-24.5
		C1184.9,1570.9,1173.9,1560,1160.4,1560L1160.4,1560z"/>
	<path class="st0" d="M1156.1,1614.5c-10.2,0-18.5,8.3-18.5,18.5c0,10.2,8.3,18.5,18.5,18.5s18.5-8.3,18.5-18.5
		C1174.6,1622.8,1166.3,1614.5,1156.1,1614.5L1156.1,1614.5z"/>
	<path class="st0" d="M1202.2,1626c-13.6,0-24.5,11-24.5,24.5s11,24.5,24.5,24.5s24.5-11,24.5-24.5S1215.7,1626,1202.2,1626
		L1202.2,1626z"/>
	<path class="st0" d="M1202.8,1530.9c-10.2,0-18.5,8.3-18.5,18.5s8.3,18.5,18.5,18.5s18.5-8.3,18.5-18.5
		C1221.3,1539.2,1213,1530.9,1202.8,1530.9L1202.8,1530.9z"/>
	<path class="st0" d="M1214.3,1572.1c-13.6,0-24.5,11-24.5,24.5s11,24.5,24.5,24.5s24.5-11,24.5-24.5S1227.9,1572.1,1214.3,1572.1
		L1214.3,1572.1z"/>
</g>
</svg>
