<?xml version="1.0" encoding="utf-8"?>
<!-- Generator: Adobe Illustrator 23.0.3, SVG Export Plug-In . SVG Version: 6.00 Build 0)  -->
<svg version="1.1" id="Layer_1" xmlns="http://www.w3.org/2000/svg" xmlns:xlink="http://www.w3.org/1999/xlink" x="0px" y="0px"
	 viewBox="0 0 3152 2712.38" style="enable-background:new 0 0 3152 2712.38;" xml:space="preserve">
<style type="text/css">
	.st0{fill:#555555;}
</style>
<path d="M2390.64,593.07c-5.11,0-9.25,4.14-9.25,9.25c0,5.11,4.14,9.25,9.25,9.25c5.11,0,9.25-4.14,9.25-9.25
	C2399.89,597.21,2395.75,593.07,2390.64,593.07L2390.64,593.07z"/>
<path d="M2530.02,263.99c-5.11,0-9.25,4.14-9.25,9.25s4.14,9.25,9.25,9.25s9.25-4.14,9.25-9.25S2535.13,263.99,2530.02,263.99
	L2530.02,263.99z"/>
<path d="M2671.14,210.78c-5.11,0-9.25,4.14-9.25,9.25c0,5.11,4.14,9.25,9.25,9.25c5.11,0,9.25-4.14,9.25-9.25
	C2680.39,214.92,2676.25,210.78,2671.14,210.78L2671.14,210.78z"/>
<path d="M2658.99,133.28c-5.11,0-9.25,4.14-9.25,9.25c0,5.11,4.14,9.25,9.25,9.25c5.11,0,9.25-4.14,9.25-9.25
	C2668.24,137.42,2664.1,133.28,2658.99,133.28L2658.99,133.28z"/>
<path d="M2621.98,220.61c-5.11,0-9.25,4.14-9.25,9.25c0,5.11,4.14,9.25,9.25,9.25s9.25-4.14,9.25-9.25
	C2631.23,224.75,2627.09,220.61,2621.98,220.61L2621.98,220.61z"/>
<path d="M2640.48,277.29c-5.11,0-9.25,4.14-9.25,9.25c0,5.11,4.14,9.25,9.25,9.25s9.25-4.14,9.25-9.25
	C2649.74,281.43,2645.59,277.29,2640.48,277.29L2640.48,277.29z"/>
<path d="M2611.57,338.02c-5.11,0-9.25,4.14-9.25,9.25c0,5.11,4.14,9.25,9.25,9.25s9.25-4.14,9.25-9.25
	C2620.82,342.16,2616.68,338.02,2611.57,338.02L2611.57,338.02z"/>
<path d="M2567.03,414.94c-5.11,0-9.25,4.14-9.25,9.25c0,5.11,4.14,9.25,9.25,9.25s9.25-4.14,9.25-9.25
	C2576.29,419.08,2572.14,414.94,2567.03,414.94L2567.03,414.94z"/>
<path d="M2421.87,456.58c-5.11,0-9.25,4.14-9.25,9.25c0,5.11,4.14,9.25,9.25,9.25s9.25-4.14,9.25-9.25
	C2431.12,460.72,2426.98,456.58,2421.87,456.58L2421.87,456.58z"/>
<path d="M2477.39,451.95c-5.11,0-9.25,4.14-9.25,9.25c0,5.11,4.14,9.25,9.25,9.25s9.25-4.14,9.25-9.25
	C2486.64,456.09,2482.5,451.95,2477.39,451.95L2477.39,451.95z"/>
<path d="M2482.6,465.25c-5.11,0-9.25,4.14-9.25,9.25s4.14,9.25,9.25,9.25c5.11,0,9.25-4.14,9.25-9.25S2487.71,465.25,2482.6,465.25
	L2482.6,465.25z"/>
<path d="M2450.79,513.25c-5.11,0-9.25,4.14-9.25,9.25c0,5.11,4.14,9.25,9.25,9.25c5.11,0,9.25-4.14,9.25-9.25
	C2460.04,517.4,2455.9,513.25,2450.79,513.25L2450.79,513.25z"/>
<path d="M2405.68,520.19c-5.11,0-9.25,4.14-9.25,9.25s4.14,9.25,9.25,9.25c5.11,0,9.25-4.14,9.25-9.25
	S2410.79,520.19,2405.68,520.19L2405.68,520.19z"/>
<path d="M2388.33,524.24c-5.11,0-9.25,4.14-9.25,9.25s4.14,9.25,9.25,9.25c5.11,0,9.25-4.14,9.25-9.25
	S2393.44,524.24,2388.33,524.24L2388.33,524.24z"/>
<path d="M1729.59,734.76c-5.11,0-9.25,4.14-9.25,9.25s4.14,9.25,9.25,9.25c5.11,0,9.25-4.14,9.25-9.25S1734.7,734.76,1729.59,734.76
	L1729.59,734.76z"/>
<path d="M1834.27,2560.59c-5.11,0-9.25,4.14-9.25,9.25c0,5.11,4.14,9.25,9.25,9.25c5.11,0,9.25-4.14,9.25-9.25
	C1843.52,2564.74,1839.38,2560.59,1834.27,2560.59L1834.27,2560.59z"/>
<path d="M2369.24,1120.52c-5.11,0-9.25,4.14-9.25,9.25c0,5.11,4.14,9.25,9.25,9.25s9.25-4.14,9.25-9.25
	C2378.49,1124.66,2374.35,1120.52,2369.24,1120.52L2369.24,1120.52z"/>
<path d="M2303.31,1202.64c-5.11,0-9.25,4.14-9.25,9.25c0,5.11,4.14,9.25,9.25,9.25s9.25-4.14,9.25-9.25
	C2312.56,1206.78,2308.42,1202.64,2303.31,1202.64L2303.31,1202.64z"/>
<path d="M2256.46,848.69c-5.11,0-9.25,4.14-9.25,9.25c0,5.11,4.14,9.25,9.25,9.25s9.25-4.14,9.25-9.25
	C2265.72,852.84,2261.57,848.69,2256.46,848.69L2256.46,848.69z"/>
<path d="M2092.79,749.8c-5.11,0-9.25,4.14-9.25,9.25c0,5.11,4.14,9.25,9.25,9.25c5.11,0,9.25-4.14,9.25-9.25
	C2102.04,753.94,2097.9,749.8,2092.79,749.8L2092.79,749.8z"/>
<path d="M1984.06,752.11c-5.11,0-9.25,4.14-9.25,9.25s4.14,9.25,9.25,9.25c5.11,0,9.25-4.14,9.25-9.25
	S1989.17,752.11,1984.06,752.11L1984.06,752.11z"/>
<path d="M1915.24,662.47c-5.11,0-9.25,4.14-9.25,9.25c0,5.11,4.14,9.25,9.25,9.25s9.25-4.14,9.25-9.25
	C1924.49,666.61,1920.35,662.47,1915.24,662.47L1915.24,662.47z"/>
<path d="M2011.24,659c-5.11,0-9.25,4.14-9.25,9.25s4.14,9.25,9.25,9.25s9.25-4.14,9.25-9.25S2016.36,659,2011.24,659L2011.24,659z"
	/>
<path d="M1985.22,730.71c-5.11,0-9.25,4.14-9.25,9.25s4.14,9.25,9.25,9.25c5.11,0,9.25-4.14,9.25-9.25
	S1990.33,730.71,1985.22,730.71L1985.22,730.71z"/>
<path d="M1907.14,760.79c-5.11,0-9.25,4.14-9.25,9.25c0,5.11,4.14,9.25,9.25,9.25s9.25-4.14,9.25-9.25
	C1916.4,764.93,1912.25,760.79,1907.14,760.79L1907.14,760.79z"/>
<path d="M1824.44,826.72c-5.11,0-9.25,4.14-9.25,9.25s4.14,9.25,9.25,9.25c5.11,0,9.25-4.14,9.25-9.25
	S1829.55,826.72,1824.44,826.72L1824.44,826.72z"/>
<path d="M1812.87,990.39c-5.11,0-9.25,4.14-9.25,9.25s4.14,9.25,9.25,9.25s9.25-4.14,9.25-9.25S1817.98,990.39,1812.87,990.39
	L1812.87,990.39z"/>
<path d="M1837.16,803c-5.11,0-9.25,4.14-9.25,9.25c0,5.11,4.14,9.25,9.25,9.25c5.11,0,9.25-4.14,9.25-9.25
	C1846.42,807.15,1842.27,803,1837.16,803L1837.16,803z"/>
<path d="M1888.64,777.56c-5.11,0-9.25,4.14-9.25,9.25s4.14,9.25,9.25,9.25c5.11,0,9.25-4.14,9.25-9.25
	S1893.75,777.56,1888.64,777.56L1888.64,777.56z"/>
<path d="M1837.74,926.19c-5.11,0-9.25,4.14-9.25,9.25c0,5.11,4.14,9.25,9.25,9.25s9.25-4.14,9.25-9.25
	C1846.99,930.33,1842.85,926.19,1837.74,926.19L1837.74,926.19z"/>
<path d="M1956.3,947.01c-5.11,0-9.25,4.14-9.25,9.25c0,5.11,4.14,9.25,9.25,9.25c5.11,0,9.25-4.14,9.25-9.25
	C1965.56,951.16,1961.41,947.01,1956.3,947.01L1956.3,947.01z"/>
<path d="M1978.28,971.3c-5.11,0-9.25,4.14-9.25,9.25s4.14,9.25,9.25,9.25s9.25-4.14,9.25-9.25S1983.39,971.3,1978.28,971.3
	L1978.28,971.3z"/>
<path d="M1927.38,1053.43c-5.11,0-9.25,4.14-9.25,9.25s4.14,9.25,9.25,9.25c5.11,0,9.25-4.14,9.25-9.25
	S1932.5,1053.43,1927.38,1053.43L1927.38,1053.43z"/>
<path d="M1982.33,1159.26c-5.11,0-9.25,4.14-9.25,9.25c0,5.11,4.14,9.25,9.25,9.25s9.25-4.14,9.25-9.25
	C1991.58,1163.41,1987.44,1159.26,1982.33,1159.26L1982.33,1159.26z"/>
<path d="M2151.2,1209.58c-5.11,0-9.25,4.14-9.25,9.25c0,5.11,4.14,9.25,9.25,9.25s9.25-4.14,9.25-9.25
	C2160.46,1213.72,2156.31,1209.58,2151.2,1209.58L2151.2,1209.58z"/>
<path d="M2020.5,1278.98c-5.11,0-9.25,4.14-9.25,9.25c0,5.11,4.14,9.25,9.25,9.25s9.25-4.14,9.25-9.25
	C2029.75,1283.12,2025.61,1278.98,2020.5,1278.98L2020.5,1278.98z"/>
<path d="M2080.07,1261.05c-5.11,0-9.25,4.14-9.25,9.25s4.14,9.25,9.25,9.25c5.11,0,9.25-4.14,9.25-9.25
	S2085.18,1261.05,2080.07,1261.05L2080.07,1261.05z"/>
<path d="M2095.68,1329.3c-5.11,0-9.25,4.14-9.25,9.25c0,5.11,4.14,9.25,9.25,9.25s9.25-4.14,9.25-9.25
	C2104.94,1333.44,2100.79,1329.3,2095.68,1329.3L2095.68,1329.3z"/>
<path d="M2116.5,1641.03c-5.11,0-9.25,4.14-9.25,9.25c0,5.11,4.14,9.25,9.25,9.25s9.25-4.14,9.25-9.25
	C2125.76,1645.17,2121.61,1641.03,2116.5,1641.03L2116.5,1641.03z"/>
<path d="M2167.98,1596.49c-5.11,0-9.25,4.14-9.25,9.25s4.14,9.25,9.25,9.25c5.11,0,9.25-4.14,9.25-9.25
	S2173.09,1596.49,2167.98,1596.49L2167.98,1596.49z"/>
<path d="M2092.79,2298.6c-5.11,0-9.25,4.14-9.25,9.25s4.14,9.25,9.25,9.25c5.11,0,9.25-4.14,9.25-9.25S2097.9,2298.6,2092.79,2298.6
	L2092.79,2298.6z"/>
<path d="M2984.02,2120.47c-5.11,0-9.25,4.14-9.25,9.25s4.14,9.25,9.25,9.25c5.11,0,9.25-4.14,9.25-9.25
	S2989.13,2120.47,2984.02,2120.47L2984.02,2120.47z"/>
<path d="M2942.38,2176.57c-5.11,0-9.25,4.14-9.25,9.25c0,5.11,4.14,9.25,9.25,9.25s9.25-4.14,9.25-9.25
	C2951.63,2180.72,2947.49,2176.57,2942.38,2176.57L2942.38,2176.57z"/>
<path d="M2878.76,2241.35c-5.11,0-9.25,4.14-9.25,9.25s4.14,9.25,9.25,9.25s9.25-4.14,9.25-9.25S2883.87,2241.35,2878.76,2241.35
	L2878.76,2241.35z"/>
<path d="M2934.86,2277.2c-5.11,0-9.25,4.14-9.25,9.25s4.14,9.25,9.25,9.25s9.25-4.14,9.25-9.25S2939.97,2277.2,2934.86,2277.2
	L2934.86,2277.2z"/>
<path d="M2966.67,2323.47c-5.11,0-9.25,4.14-9.25,9.25s4.14,9.25,9.25,9.25c5.11,0,9.25-4.14,9.25-9.25
	S2971.78,2323.47,2966.67,2323.47L2966.67,2323.47z"/>
<path d="M2905.37,2372.63c-5.11,0-9.25,4.14-9.25,9.25s4.14,9.25,9.25,9.25c5.11,0,9.25-4.14,9.25-9.25
	S2910.48,2372.63,2905.37,2372.63L2905.37,2372.63z"/>
<path d="M2835.96,2407.91c-5.11,0-9.25,4.14-9.25,9.25s4.14,9.25,9.25,9.25s9.25-4.14,9.25-9.25S2841.07,2407.91,2835.96,2407.91
	L2835.96,2407.91z"/>
<path d="M2761.94,2420.06c-5.11,0-9.25,4.14-9.25,9.25c0,5.11,4.14,9.25,9.25,9.25s9.25-4.14,9.25-9.25
	C2771.19,2424.2,2767.05,2420.06,2761.94,2420.06L2761.94,2420.06z"/>
<path d="M2668.24,2421.79c-5.11,0-9.25,4.14-9.25,9.25s4.14,9.25,9.25,9.25s9.25-4.14,9.25-9.25S2673.35,2421.79,2668.24,2421.79
	L2668.24,2421.79z"/>
<path d="M2584.96,2439.72c-5.11,0-9.25,4.14-9.25,9.25s4.14,9.25,9.25,9.25s9.25-4.14,9.25-9.25S2590.07,2439.72,2584.96,2439.72
	L2584.96,2439.72z"/>
<path d="M2529.44,2433.36c-5.11,0-9.25,4.14-9.25,9.25s4.14,9.25,9.25,9.25s9.25-4.14,9.25-9.25S2534.55,2433.36,2529.44,2433.36
	L2529.44,2433.36z"/>
<path d="M2460.04,2460.54c-5.11,0-9.25,4.14-9.25,9.25s4.14,9.25,9.25,9.25s9.25-4.14,9.25-9.25S2465.15,2460.54,2460.04,2460.54
	L2460.04,2460.54z"/>
<path d="M2401.63,2469.79c-5.11,0-9.25,4.14-9.25,9.25c0,5.11,4.14,9.25,9.25,9.25s9.25-4.14,9.25-9.25
	C2410.88,2473.94,2406.74,2469.79,2401.63,2469.79L2401.63,2469.79z"/>
<path d="M2336.85,2425.26c-5.11,0-9.25,4.14-9.25,9.25s4.14,9.25,9.25,9.25s9.25-4.14,9.25-9.25S2341.96,2425.26,2336.85,2425.26
	L2336.85,2425.26z"/>
<path d="M2259.35,2458.23c-5.11,0-9.25,4.14-9.25,9.25s4.14,9.25,9.25,9.25s9.25-4.14,9.25-9.25S2264.47,2458.23,2259.35,2458.23
	L2259.35,2458.23z"/>
<path d="M2232.17,2521.84c-5.11,0-9.25,4.14-9.25,9.25c0,5.11,4.14,9.25,9.25,9.25s9.25-4.14,9.25-9.25
	C2241.43,2525.99,2237.28,2521.84,2232.17,2521.84L2232.17,2521.84z"/>
<path d="M2165.66,2512.59c-5.11,0-9.25,4.14-9.25,9.25c0,5.11,4.14,9.25,9.25,9.25c5.11,0,9.25-4.14,9.25-9.25
	C2174.92,2516.73,2170.77,2512.59,2165.66,2512.59L2165.66,2512.59z"/>
<path d="M2091.63,2503.92c-5.11,0-9.25,4.14-9.25,9.25c0,5.11,4.14,9.25,9.25,9.25s9.25-4.14,9.25-9.25
	C2100.89,2508.06,2096.75,2503.92,2091.63,2503.92L2091.63,2503.92z"/>
<path d="M2008.35,2555.97c-5.11,0-9.25,4.14-9.25,9.25c0,5.11,4.14,9.25,9.25,9.25c5.11,0,9.25-4.14,9.25-9.25
	C2017.61,2560.11,2013.46,2555.97,2008.35,2555.97L2008.35,2555.97z"/>
<path d="M1922.18,2557.12c-5.11,0-9.25,4.14-9.25,9.25s4.14,9.25,9.25,9.25c5.11,0,9.25-4.14,9.25-9.25
	S1927.29,2557.12,1922.18,2557.12L1922.18,2557.12z"/>
<path d="M1969.03,2513.17c-5.11,0-9.25,4.14-9.25,9.25s4.14,9.25,9.25,9.25c5.11,0,9.25-4.14,9.25-9.25
	S1974.14,2513.17,1969.03,2513.17L1969.03,2513.17z"/>
<path d="M2025.13,2459.96c-5.11,0-9.25,4.14-9.25,9.25s4.14,9.25,9.25,9.25c5.11,0,9.25-4.14,9.25-9.25
	S2030.24,2459.96,2025.13,2459.96L2025.13,2459.96z"/>
<path d="M2081.8,2410.8c-5.11,0-9.25,4.14-9.25,9.25s4.14,9.25,9.25,9.25c5.11,0,9.25-4.14,9.25-9.25S2086.91,2410.8,2081.8,2410.8
	L2081.8,2410.8z"/>
<path d="M2118.82,2339.67c-5.11,0-9.25,4.14-9.25,9.25s4.14,9.25,9.25,9.25s9.25-4.14,9.25-9.25S2123.93,2339.67,2118.82,2339.67
	L2118.82,2339.67z"/>
<path d="M2162.77,2302.07c-5.11,0-9.25,4.14-9.25,9.25s4.14,9.25,9.25,9.25s9.25-4.14,9.25-9.25S2167.88,2302.07,2162.77,2302.07
	L2162.77,2302.07z"/>
<path d="M2259.35,2302.07c-5.11,0-9.25,4.14-9.25,9.25s4.14,9.25,9.25,9.25s9.25-4.14,9.25-9.25S2264.47,2302.07,2259.35,2302.07
	L2259.35,2302.07z"/>
<path d="M2380.81,2229.2c-5.11,0-9.25,4.14-9.25,9.25c0,5.11,4.14,9.25,9.25,9.25s9.25-4.14,9.25-9.25
	C2390.06,2233.34,2385.92,2229.2,2380.81,2229.2L2380.81,2229.2z"/>
<path d="M2317.77,2274.89c-5.11,0-9.25,4.14-9.25,9.25c0,5.11,4.14,9.25,9.25,9.25c5.11,0,9.25-4.14,9.25-9.25
	C2327.02,2279.03,2322.88,2274.89,2317.77,2274.89L2317.77,2274.89z"/>
<path d="M2232.75,2246.55c-5.11,0-9.25,4.14-9.25,9.25s4.14,9.25,9.25,9.25s9.25-4.14,9.25-9.25S2237.86,2246.55,2232.75,2246.55
	L2232.75,2246.55z"/>
<path d="M2158.14,2212.43c-5.11,0-9.25,4.14-9.25,9.25c0,5.11,4.14,9.25,9.25,9.25s9.25-4.14,9.25-9.25
	C2167.4,2216.57,2163.25,2212.43,2158.14,2212.43L2158.14,2212.43z"/>
<path d="M2087.59,2199.13c-5.11,0-9.25,4.14-9.25,9.25s4.14,9.25,9.25,9.25s9.25-4.14,9.25-9.25S2092.7,2199.13,2087.59,2199.13
	L2087.59,2199.13z"/>
<path d="M2018.18,2162.69c-5.11,0-9.25,4.14-9.25,9.25s4.14,9.25,9.25,9.25s9.25-4.14,9.25-9.25S2023.3,2162.69,2018.18,2162.69
	L2018.18,2162.69z"/>
<path d="M2060.4,2106.59c-5.11,0-9.25,4.14-9.25,9.25s4.14,9.25,9.25,9.25s9.25-4.14,9.25-9.25S2065.51,2106.59,2060.4,2106.59
	L2060.4,2106.59z"/>
<path d="M2134.43,2079.41c-5.11,0-9.25,4.14-9.25,9.25s4.14,9.25,9.25,9.25s9.25-4.14,9.25-9.25S2139.54,2079.41,2134.43,2079.41
	L2134.43,2079.41z"/>
<path d="M2189.38,2023.89c-5.11,0-9.25,4.14-9.25,9.25c0,5.11,4.14,9.25,9.25,9.25c5.11,0,9.25-4.14,9.25-9.25
	C2198.63,2028.03,2194.49,2023.89,2189.38,2023.89L2189.38,2023.89z"/>
<path d="M2144.26,1923.26c-5.11,0-9.25,4.14-9.25,9.25s4.14,9.25,9.25,9.25s9.25-4.14,9.25-9.25S2149.37,1923.26,2144.26,1923.26
	L2144.26,1923.26z"/>
<path d="M2143.11,1820.31c-5.11,0-9.25,4.14-9.25,9.25c0,5.11,4.14,9.25,9.25,9.25c5.11,0,9.25-4.14,9.25-9.25
	C2152.36,1824.46,2148.22,1820.31,2143.11,1820.31L2143.11,1820.31z"/>
<path d="M2237.96,1826.67c-5.11,0-9.25,4.14-9.25,9.25c0,5.11,4.14,9.25,9.25,9.25s9.25-4.14,9.25-9.25
	C2247.21,1830.82,2243.07,1826.67,2237.96,1826.67L2237.96,1826.67z"/>
<path d="M2333.38,1831.3c-5.11,0-9.25,4.14-9.25,9.25s4.14,9.25,9.25,9.25c5.11,0,9.25-4.14,9.25-9.25
	S2338.49,1831.3,2333.38,1831.3L2333.38,1831.3z"/>
<path d="M2341.48,1764.79c-5.11,0-9.25,4.14-9.25,9.25c0,5.11,4.14,9.25,9.25,9.25s9.25-4.14,9.25-9.25
	C2350.73,1768.93,2346.59,1764.79,2341.48,1764.79L2341.48,1764.79z"/>
<path d="M2355.94,1652.01c-5.11,0-9.25,4.14-9.25,9.25c0,5.11,4.14,9.25,9.25,9.25s9.25-4.14,9.25-9.25
	C2365.19,1656.16,2361.05,1652.01,2355.94,1652.01L2355.94,1652.01z"/>
<path d="M2295.79,1582.61c-5.11,0-9.25,4.14-9.25,9.25c0,5.11,4.14,9.25,9.25,9.25s9.25-4.14,9.25-9.25
	C2305.04,1586.76,2300.9,1582.61,2295.79,1582.61L2295.79,1582.61z"/>
<path d="M2315.45,1450.75c-5.11,0-9.25,4.14-9.25,9.25c0,5.11,4.14,9.25,9.25,9.25c5.11,0,9.25-4.14,9.25-9.25
	C2324.71,1454.89,2320.56,1450.75,2315.45,1450.75L2315.45,1450.75z"/>
<path d="M2273.81,1496.44c-5.11,0-9.25,4.14-9.25,9.25c0,5.11,4.14,9.25,9.25,9.25s9.25-4.14,9.25-9.25
	C2283.07,1500.58,2278.92,1496.44,2273.81,1496.44L2273.81,1496.44z"/>
<path d="M2144.84,1490.08c-5.11,0-9.25,4.14-9.25,9.25c0,5.11,4.14,9.25,9.25,9.25s9.25-4.14,9.25-9.25
	C2154.1,1494.22,2149.95,1490.08,2144.84,1490.08L2144.84,1490.08z"/>
<path d="M2082.38,1456.53c-5.11,0-9.25,4.14-9.25,9.25c0,5.11,4.14,9.25,9.25,9.25s9.25-4.14,9.25-9.25
	C2091.63,1460.68,2087.49,1456.53,2082.38,1456.53L2082.38,1456.53z"/>
<path d="M2113.61,1388.87c-5.11,0-9.25,4.14-9.25,9.25s4.14,9.25,9.25,9.25s9.25-4.14,9.25-9.25S2118.72,1388.87,2113.61,1388.87
	L2113.61,1388.87z"/>
<path d="M2158.72,1322.94c-5.11,0-9.25,4.14-9.25,9.25c0,5.11,4.14,9.25,9.25,9.25s9.25-4.14,9.25-9.25
	C2167.98,1327.08,2163.83,1322.94,2158.72,1322.94L2158.72,1322.94z"/>
<path d="M2027.44,1326.41c-5.11,0-9.25,4.14-9.25,9.25c0,5.11,4.14,9.25,9.25,9.25c5.11,0,9.25-4.14,9.25-9.25
	C2036.69,1330.55,2032.55,1326.41,2027.44,1326.41L2027.44,1326.41z"/>
<path d="M2065.61,1248.33c-5.11,0-9.25,4.14-9.25,9.25s4.14,9.25,9.25,9.25s9.25-4.14,9.25-9.25S2070.72,1248.33,2065.61,1248.33
	L2065.61,1248.33z"/>
<path d="M1949.94,1238.5c-5.11,0-9.25,4.14-9.25,9.25c0,5.11,4.14,9.25,9.25,9.25c5.11,0,9.25-4.14,9.25-9.25
	C1959.19,1242.64,1955.05,1238.5,1949.94,1238.5L1949.94,1238.5z"/>
<path d="M2062.14,1077.14c-5.11,0-9.25,4.14-9.25,9.25c0,5.11,4.14,9.25,9.25,9.25s9.25-4.14,9.25-9.25
	C2071.39,1081.28,2067.25,1077.14,2062.14,1077.14L2062.14,1077.14z"/>
<path d="M2012.98,1142.49c-5.11,0-9.25,4.14-9.25,9.25c0,5.11,4.14,9.25,9.25,9.25c5.11,0,9.25-4.14,9.25-9.25
	C2022.23,1146.64,2018.09,1142.49,2012.98,1142.49L2012.98,1142.49z"/>
<path d="M1960.35,1085.81c-5.11,0-9.25,4.14-9.25,9.25c0,5.11,4.14,9.25,9.25,9.25c5.11,0,9.25-4.14,9.25-9.25
	C1969.6,1089.96,1965.46,1085.81,1960.35,1085.81L1960.35,1085.81z"/>
<path d="M2011.24,1017.57c-5.11,0-9.25,4.14-9.25,9.25c0,5.11,4.14,9.25,9.25,9.25s9.25-4.14,9.25-9.25
	C2020.5,1021.71,2016.36,1017.57,2011.24,1017.57L2011.24,1017.57z"/>
<path d="M1958.04,844.65c-5.11,0-9.25,4.14-9.25,9.25c0,5.11,4.14,9.25,9.25,9.25s9.25-4.14,9.25-9.25
	C1967.29,848.79,1963.15,844.65,1958.04,844.65L1958.04,844.65z"/>
<path d="M2033.22,899.59c-5.11,0-9.25,4.14-9.25,9.25c0,5.11,4.14,9.25,9.25,9.25s9.25-4.14,9.25-9.25
	C2042.47,903.73,2038.33,899.59,2033.22,899.59L2033.22,899.59z"/>
<path d="M2036.11,824.4c-5.11,0-9.25,4.14-9.25,9.25s4.14,9.25,9.25,9.25c5.11,0,9.25-4.14,9.25-9.25S2041.22,824.4,2036.11,824.4
	L2036.11,824.4z"/>
<path d="M2108.41,733.02c-5.11,0-9.25,4.14-9.25,9.25c0,5.11,4.14,9.25,9.25,9.25s9.25-4.14,9.25-9.25
	C2117.66,737.17,2113.52,733.02,2108.41,733.02L2108.41,733.02z"/>
<path d="M2139.64,669.41c-5.11,0-9.25,4.14-9.25,9.25s4.14,9.25,9.25,9.25s9.25-4.14,9.25-9.25S2144.75,669.41,2139.64,669.41
	L2139.64,669.41z"/>
<path d="M2161.61,598.85c-5.11,0-9.25,4.14-9.25,9.25c0,5.11,4.14,9.25,9.25,9.25c5.11,0,9.25-4.14,9.25-9.25
	C2170.87,602.99,2166.73,598.85,2161.61,598.85L2161.61,598.85z"/>
<path d="M2225.81,613.89c-5.11,0-9.25,4.14-9.25,9.25c0,5.11,4.14,9.25,9.25,9.25s9.25-4.14,9.25-9.25
	C2235.06,618.03,2230.92,613.89,2225.81,613.89L2225.81,613.89z"/>
<path d="M2288.85,616.2c-5.11,0-9.25,4.14-9.25,9.25c0,5.11,4.14,9.25,9.25,9.25s9.25-4.14,9.25-9.25
	C2298.1,620.34,2293.96,616.2,2288.85,616.2L2288.85,616.2z"/>
<path d="M2363.46,599.43c-5.11,0-9.25,4.14-9.25,9.25c0,5.11,4.14,9.25,9.25,9.25s9.25-4.14,9.25-9.25
	C2372.71,603.57,2368.57,599.43,2363.46,599.43L2363.46,599.43z"/>
<path d="M2398.74,646.27c-5.11,0-9.25,4.14-9.25,9.25c0,5.11,4.14,9.25,9.25,9.25s9.25-4.14,9.25-9.25
	C2407.99,650.42,2403.85,646.27,2398.74,646.27L2398.74,646.27z"/>
<path d="M2347.84,705.26c-5.11,0-9.25,4.14-9.25,9.25s4.14,9.25,9.25,9.25s9.25-4.14,9.25-9.25S2352.95,705.26,2347.84,705.26
	L2347.84,705.26z"/>
<path d="M2294.63,767.73c-5.11,0-9.25,4.14-9.25,9.25c0,5.11,4.14,9.25,9.25,9.25s9.25-4.14,9.25-9.25
	C2303.89,771.87,2299.74,767.73,2294.63,767.73L2294.63,767.73z"/>
<path d="M2272.66,839.44c-5.11,0-9.25,4.14-9.25,9.25c0,5.11,4.14,9.25,9.25,9.25s9.25-4.14,9.25-9.25
	C2281.91,843.58,2277.77,839.44,2272.66,839.44L2272.66,839.44z"/>
<path d="M2357.67,815.73c-5.11,0-9.25,4.14-9.25,9.25s4.14,9.25,9.25,9.25s9.25-4.14,9.25-9.25S2362.78,815.73,2357.67,815.73
	L2357.67,815.73z"/>
<path d="M2443.27,827.29c-5.11,0-9.25,4.14-9.25,9.25c0,5.11,4.14,9.25,9.25,9.25s9.25-4.14,9.25-9.25
	C2452.52,831.44,2448.38,827.29,2443.27,827.29L2443.27,827.29z"/>
<path d="M2529.44,833.66c-5.11,0-9.25,4.14-9.25,9.25c0,5.11,4.14,9.25,9.25,9.25s9.25-4.14,9.25-9.25
	C2538.69,837.8,2534.55,833.66,2529.44,833.66L2529.44,833.66z"/>
<path d="M2528.28,910c-5.11,0-9.25,4.14-9.25,9.25s4.14,9.25,9.25,9.25s9.25-4.14,9.25-9.25S2533.4,910,2528.28,910L2528.28,910z"/>
<path d="M2498.79,981.13c-5.11,0-9.25,4.14-9.25,9.25c0,5.11,4.14,9.25,9.25,9.25s9.25-4.14,9.25-9.25
	C2508.04,985.28,2503.9,981.13,2498.79,981.13L2498.79,981.13z"/>
<path d="M2458.3,1051.69c-5.11,0-9.25,4.14-9.25,9.25c0,5.11,4.14,9.25,9.25,9.25s9.25-4.14,9.25-9.25
	C2467.56,1055.84,2463.42,1051.69,2458.3,1051.69L2458.3,1051.69z"/>
<path d="M2409.72,1111.84c-5.11,0-9.25,4.14-9.25,9.25s4.14,9.25,9.25,9.25c5.11,0,9.25-4.14,9.25-9.25
	S2414.83,1111.84,2409.72,1111.84L2409.72,1111.84z"/>
<path d="M2343.79,1204.38c-5.11,0-9.25,4.14-9.25,9.25s4.14,9.25,9.25,9.25c5.11,0,9.25-4.14,9.25-9.25
	S2348.9,1204.38,2343.79,1204.38L2343.79,1204.38z"/>
<path d="M2404.52,1186.45c-5.11,0-9.25,4.14-9.25,9.25c0,5.11,4.14,9.25,9.25,9.25s9.25-4.14,9.25-9.25
	C2413.77,1190.59,2409.63,1186.45,2404.52,1186.45L2404.52,1186.45z"/>
<path d="M2471.61,1231.56c-5.11,0-9.25,4.14-9.25,9.25s4.14,9.25,9.25,9.25s9.25-4.14,9.25-9.25S2476.72,1231.56,2471.61,1231.56
	L2471.61,1231.56z"/>
<path d="M2525.97,1288.24c-5.11,0-9.25,4.14-9.25,9.25s4.14,9.25,9.25,9.25s9.25-4.14,9.25-9.25S2531.08,1288.24,2525.97,1288.24
	L2525.97,1288.24z"/>
<path d="M2557.78,1359.37c-5.11,0-9.25,4.14-9.25,9.25s4.14,9.25,9.25,9.25s9.25-4.14,9.25-9.25S2562.89,1359.37,2557.78,1359.37
	L2557.78,1359.37z"/>
<path d="M2579.76,1444.97c-5.11,0-9.25,4.14-9.25,9.25c0,5.11,4.14,9.25,9.25,9.25s9.25-4.14,9.25-9.25
	C2589.01,1449.11,2584.87,1444.97,2579.76,1444.97L2579.76,1444.97z"/>
<path d="M2610.41,1525.36c-5.11,0-9.25,4.14-9.25,9.25s4.14,9.25,9.25,9.25s9.25-4.14,9.25-9.25S2615.52,1525.36,2610.41,1525.36
	L2610.41,1525.36z"/>
<path d="M2682.12,1564.68c-5.11,0-9.25,4.14-9.25,9.25s4.14,9.25,9.25,9.25c5.11,0,9.25-4.14,9.25-9.25
	S2687.24,1564.68,2682.12,1564.68L2682.12,1564.68z"/>
<path d="M2728.97,1628.88c-5.11,0-9.25,4.14-9.25,9.25c0,5.11,4.14,9.25,9.25,9.25s9.25-4.14,9.25-9.25
	C2738.22,1633.02,2734.08,1628.88,2728.97,1628.88L2728.97,1628.88z"/>
<path d="M2741.69,1690.18c-5.11,0-9.25,4.14-9.25,9.25c0,5.11,4.14,9.25,9.25,9.25s9.25-4.14,9.25-9.25
	C2750.95,1694.33,2746.8,1690.18,2741.69,1690.18L2741.69,1690.18z"/>
<path d="M2764.25,1772.31c-5.11,0-9.25,4.14-9.25,9.25s4.14,9.25,9.25,9.25s9.25-4.14,9.25-9.25S2769.36,1772.31,2764.25,1772.31
	L2764.25,1772.31z"/>
<path d="M2812.25,1854.43c-5.11,0-9.25,4.14-9.25,9.25s4.14,9.25,9.25,9.25c5.11,0,9.25-4.14,9.25-9.25
	S2817.36,1854.43,2812.25,1854.43L2812.25,1854.43z"/>
<path d="M2801.26,1926.73c-5.11,0-9.25,4.14-9.25,9.25c0,5.11,4.14,9.25,9.25,9.25s9.25-4.14,9.25-9.25
	C2810.52,1930.87,2806.37,1926.73,2801.26,1926.73L2801.26,1926.73z"/>
<path d="M2908.26,1913.43c-5.11,0-9.25,4.14-9.25,9.25s4.14,9.25,9.25,9.25s9.25-4.14,9.25-9.25S2913.37,1913.43,2908.26,1913.43
	L2908.26,1913.43z"/>
<path d="M2982.86,1949.86c-5.11,0-9.25,4.14-9.25,9.25c0,5.11,4.14,9.25,9.25,9.25c5.11,0,9.25-4.14,9.25-9.25
	C2992.12,1954,2987.97,1949.86,2982.86,1949.86L2982.86,1949.86z"/>
<path d="M3009.47,2034.3c-5.11,0-9.25,4.14-9.25,9.25c0,5.11,4.14,9.25,9.25,9.25s9.25-4.14,9.25-9.25
	C3018.72,2038.44,3014.58,2034.3,3009.47,2034.3L3009.47,2034.3z"/>
<g>
	<path class="st0" d="M151.76,739.13c-10.21,0-18.48,8.27-18.48,18.48s8.27,18.48,18.48,18.48c10.21,0,18.48-8.27,18.48-18.48
		S161.97,739.13,151.76,739.13L151.76,739.13z"/>
	<path class="st0" d="M213.56,615.54c-13.55,0-24.54,10.99-24.54,24.54c0,13.55,10.99,24.54,24.54,24.54
		c13.55,0,24.54-10.98,24.54-24.54C238.09,626.52,227.11,615.54,213.56,615.54L213.56,615.54z"/>
	<path class="st0" d="M246.88,659.77c-10.21,0-18.48,8.27-18.48,18.48c0,10.21,8.27,18.48,18.48,18.48s18.48-8.27,18.48-18.48
		C265.36,668.04,257.08,659.77,246.88,659.77L246.88,659.77z"/>
	<path class="st0" d="M257.18,1180.8c-13.55,0-24.54,10.99-24.54,24.54c0,13.55,10.99,24.54,24.54,24.54
		c13.55,0,24.54-10.98,24.54-24.54C281.71,1191.78,270.73,1180.8,257.18,1180.8L257.18,1180.8z"/>
	<path class="st0" d="M259,593.73c-10.21,0-18.48,8.27-18.48,18.48s8.27,18.48,18.48,18.48s18.48-8.27,18.48-18.48
		S269.2,593.73,259,593.73L259,593.73z"/>
	<path class="st0" d="M277.78,797.29c-13.55,0-24.54,10.99-24.54,24.54c0,13.55,10.99,24.54,24.54,24.54
		c13.55,0,24.54-10.98,24.54-24.54C302.31,808.28,291.33,797.29,277.78,797.29L277.78,797.29z"/>
	<path class="st0" d="M283.84,2542.14c-10.21,0-18.48,8.27-18.48,18.48c0,10.21,8.27,18.48,18.48,18.48
		c10.21,0,18.48-8.27,18.48-18.48C302.31,2550.42,294.04,2542.14,283.84,2542.14L283.84,2542.14z"/>
	<path class="st0" d="M294.14,567.07c-10.21,0-18.48,8.27-18.48,18.48c0,10.21,8.27,18.48,18.48,18.48
		c10.21,0,18.48-8.27,18.48-18.48C312.61,575.34,304.34,567.07,294.14,567.07L294.14,567.07z"/>
	<path class="st0" d="M306.86,1037.21c-13.55,0-24.54,10.99-24.54,24.54s10.99,24.54,24.54,24.54c13.55,0,24.54-10.98,24.54-24.54
		S320.41,1037.21,306.86,1037.21L306.86,1037.21z"/>
	<path class="st0" d="M306.86,845.16c-10.21,0-18.48,8.27-18.48,18.48s8.27,18.48,18.48,18.48c10.21,0,18.48-8.27,18.48-18.48
		S317.06,845.16,306.86,845.16L306.86,845.16z"/>
	<path class="st0" d="M327.46,2511.24c-13.55,0-24.54,10.99-24.54,24.54s10.99,24.54,24.54,24.54c13.55,0,24.54-10.98,24.54-24.54
		S341.01,2511.24,327.46,2511.24L327.46,2511.24z"/>
	<path class="st0" d="M323.82,1295.91c-10.21,0-18.48,8.27-18.48,18.48c0,10.21,8.27,18.48,18.48,18.48
		c10.21,0,18.48-8.27,18.48-18.48C342.3,1304.18,334.03,1295.91,323.82,1295.91L323.82,1295.91z"/>
	<path class="st0" d="M338.97,1243.81c-10.21,0-18.48,8.27-18.48,18.48c0,10.21,8.27,18.48,18.48,18.48s18.48-8.27,18.48-18.48
		C357.45,1252.08,349.17,1243.81,338.97,1243.81L338.97,1243.81z"/>
	<path class="st0" d="M345.63,962.69c-13.55,0-24.54,10.99-24.54,24.54c0,13.55,10.99,24.54,24.54,24.54
		c13.55,0,24.54-10.98,24.54-24.54C370.17,973.68,359.18,962.69,345.63,962.69L345.63,962.69z"/>
	<path class="st0" d="M340.79,2130.16c-10.21,0-18.48,8.27-18.48,18.48s8.27,18.48,18.48,18.48c10.21,0,18.48-8.27,18.48-18.48
		S350.99,2130.16,340.79,2130.16L340.79,2130.16z"/>
	<path class="st0" d="M349.87,1149.29c-10.21,0-18.48,8.27-18.48,18.48c0,10.21,8.27,18.48,18.48,18.48s18.48-8.27,18.48-18.48
		C368.35,1157.57,360.08,1149.29,349.87,1149.29L349.87,1149.29z"/>
	<path class="st0" d="M351.09,1191.7c-10.21,0-18.48,8.27-18.48,18.48c0,10.21,8.27,18.48,18.48,18.48s18.48-8.27,18.48-18.48
		C369.56,1199.98,361.29,1191.7,351.09,1191.7L351.09,1191.7z"/>
	<path class="st0" d="M353.51,2474.89c-10.21,0-18.48,8.27-18.48,18.48c0,10.21,8.27,18.48,18.48,18.48s18.48-8.27,18.48-18.48
		C371.99,2483.17,363.71,2474.89,353.51,2474.89L353.51,2474.89z"/>
	<path class="st0" d="M368.65,874.24c-10.21,0-18.48,8.27-18.48,18.48s8.27,18.48,18.48,18.48s18.48-8.27,18.48-18.48
		S378.86,874.24,368.65,874.24L368.65,874.24z"/>
	<path class="st0" d="M377.74,916.65c-13.55,0-24.54,10.99-24.54,24.54c0,13.55,10.99,24.54,24.54,24.54
		c13.55,0,24.54-10.98,24.54-24.54C402.28,927.63,391.29,916.65,377.74,916.65L377.74,916.65z"/>
	<path class="st0" d="M377.74,1058.42c-13.55,0-24.54,10.99-24.54,24.54c0,13.55,10.99,24.54,24.54,24.54
		c13.55,0,24.54-10.98,24.54-24.54C402.28,1069.4,391.29,1058.42,377.74,1058.42L377.74,1058.42z"/>
	<path class="st0" d="M380.77,770.64c-13.55,0-24.54,10.99-24.54,24.54s10.99,24.54,24.54,24.54c13.55,0,24.54-10.98,24.54-24.54
		S394.32,770.64,380.77,770.64L380.77,770.64z"/>
	<path class="st0" d="M383.2,2160.46c-13.55,0-24.54,10.99-24.54,24.54s10.99,24.54,24.54,24.54c13.55,0,24.54-10.98,24.54-24.54
		S396.75,2160.46,383.2,2160.46L383.2,2160.46z"/>
	<path class="st0" d="M381.98,1235.32c-10.21,0-18.48,8.27-18.48,18.48c0,10.21,8.27,18.48,18.48,18.48s18.48-8.27,18.48-18.48
		C400.46,1243.6,392.19,1235.32,381.98,1235.32L381.98,1235.32z"/>
	<path class="st0" d="M394.71,823.95c-13.55,0-24.54,10.99-24.54,24.54c0,13.55,10.99,24.54,24.54,24.54
		c13.55,0,24.54-10.98,24.54-24.54C419.24,834.94,408.26,823.95,394.71,823.95L394.71,823.95z"/>
	<path class="st0" d="M398.34,2442.78c-13.55,0-24.54,10.99-24.54,24.54s10.99,24.54,24.54,24.54c13.55,0,24.54-10.98,24.54-24.54
		S411.89,2442.78,398.34,2442.78L398.34,2442.78z"/>
	<path class="st0" d="M392.28,1163.83c-10.21,0-18.48,8.27-18.48,18.48c0,10.21,8.27,18.48,18.48,18.48
		c10.21,0,18.48-8.27,18.48-18.48C410.76,1172.11,402.49,1163.83,392.28,1163.83L392.28,1163.83z"/>
	<path class="st0" d="M392.89,2500.34c-10.21,0-18.48,8.27-18.48,18.48c0,10.21,8.27,18.48,18.48,18.48
		c10.21,0,18.48-8.27,18.48-18.48C411.37,2508.61,403.09,2500.34,392.89,2500.34L392.89,2500.34z"/>
	<path class="st0" d="M404.4,1008.13c-13.55,0-24.54,10.99-24.54,24.54c0,13.55,10.99,24.54,24.54,24.54
		c13.55,0,24.54-10.98,24.54-24.54C428.94,1019.12,417.95,1008.13,404.4,1008.13L404.4,1008.13z"/>
	<path class="st0" d="M410.46,2111.38c-13.55,0-24.54,10.99-24.54,24.54s10.99,24.54,24.54,24.54c13.55,0,24.54-10.98,24.54-24.54
		S424.01,2111.38,410.46,2111.38L410.46,2111.38z"/>
	<path class="st0" d="M412.28,708.84c-13.55,0-24.54,10.99-24.54,24.54c0,13.55,10.99,24.54,24.54,24.54
		c13.55,0,24.54-10.98,24.54-24.54C436.81,719.83,425.83,708.84,412.28,708.84L412.28,708.84z"/>
	<path class="st0" d="M410.46,882.72c-10.21,0-18.48,8.27-18.48,18.48c0,10.21,8.27,18.48,18.48,18.48
		c10.21,0,18.48-8.27,18.48-18.48C428.94,890.99,420.66,882.72,410.46,882.72L410.46,882.72z"/>
	<path class="st0" d="M418.33,1109.91c-13.55,0-24.54,10.99-24.54,24.54c0,13.55,10.99,24.54,24.54,24.54
		c13.55,0,24.54-10.98,24.54-24.54C442.87,1120.9,431.89,1109.91,418.33,1109.91L418.33,1109.91z"/>
	<path class="st0" d="M418.33,2402.19c-10.21,0-18.48,8.27-18.48,18.48s8.27,18.48,18.48,18.48s18.48-8.27,18.48-18.48
		S428.54,2402.19,418.33,2402.19L418.33,2402.19z"/>
	<path class="st0" d="M426.82,1397.09c-13.55,0-24.54,10.99-24.54,24.54c0,13.55,10.99,24.54,24.54,24.54
		c13.55,0,24.54-10.98,24.54-24.54C451.35,1408.07,440.37,1397.09,426.82,1397.09L426.82,1397.09z"/>
	<path class="st0" d="M426.21,1059.63c-10.21,0-18.48,8.27-18.48,18.48c0,10.21,8.27,18.48,18.48,18.48s18.48-8.27,18.48-18.48
		C444.69,1067.9,436.42,1059.63,426.21,1059.63L426.21,1059.63z"/>
	<path class="st0" d="M431.66,972.38c-10.21,0-18.48,8.27-18.48,18.48c0,10.21,8.27,18.48,18.48,18.48s18.48-8.27,18.48-18.48
		C450.14,980.66,441.87,972.38,431.66,972.38L431.66,972.38z"/>
	<path class="st0" d="M444.99,647.65c-13.55,0-24.54,10.99-24.54,24.54c0,13.55,10.99,24.54,24.54,24.54
		c13.55,0,24.54-10.98,24.54-24.54C469.53,658.63,458.54,647.65,444.99,647.65L444.99,647.65z"/>
	<path class="st0" d="M441.36,930.58c-10.21,0-18.48,8.27-18.48,18.48s8.27,18.48,18.48,18.48c10.21,0,18.48-8.27,18.48-18.48
		S451.56,930.58,441.36,930.58L441.36,930.58z"/>
	<path class="st0" d="M453.47,1348.01c-13.55,0-24.54,10.99-24.54,24.54c0,13.55,10.99,24.54,24.54,24.54
		c13.55,0,24.54-10.98,24.54-24.54C478.01,1359,467.03,1348.01,453.47,1348.01L453.47,1348.01z"/>
	<path class="st0" d="M455.29,767c-13.55,0-24.54,10.99-24.54,24.54c0,13.55,10.99,24.54,24.54,24.54
		c13.55,0,24.54-10.98,24.54-24.54C479.83,777.99,468.84,767,455.29,767L455.29,767z"/>
	<path class="st0" d="M455.9,2153.19c-13.55,0-24.54,10.99-24.54,24.54s10.99,24.54,24.54,24.54c13.55,0,24.54-10.98,24.54-24.54
		S469.45,2153.19,455.9,2153.19L455.9,2153.19z"/>
	<path class="st0" d="M450.44,1804.22c-10.21,0-18.48,8.27-18.48,18.48c0,10.21,8.27,18.48,18.48,18.48s18.48-8.27,18.48-18.48
		C468.92,1812.49,460.65,1804.22,450.44,1804.22L450.44,1804.22z"/>
	<path class="st0" d="M458.32,1013.58c-13.55,0-24.54,10.99-24.54,24.54s10.99,24.54,24.54,24.54c13.55,0,24.54-10.98,24.54-24.54
		S471.87,1013.58,458.32,1013.58L458.32,1013.58z"/>
	<path class="st0" d="M468.62,2486.4c-13.55,0-24.54,10.99-24.54,24.54s10.99,24.54,24.54,24.54c13.55,0,24.54-10.98,24.54-24.54
		S482.17,2486.4,468.62,2486.4L468.62,2486.4z"/>
	<path class="st0" d="M469.23,882.72c-13.55,0-24.54,10.99-24.54,24.54c0,13.55,10.99,24.54,24.54,24.54
		c13.55,0,24.54-10.98,24.54-24.54C493.76,893.7,482.78,882.72,469.23,882.72L469.23,882.72z"/>
	<path class="st0" d="M464.38,1088.71c-10.21,0-18.48,8.27-18.48,18.48s8.27,18.48,18.48,18.48c10.21,0,18.48-8.27,18.48-18.48
		S474.58,1088.71,464.38,1088.71L464.38,1088.71z"/>
	<path class="st0" d="M465.59,1131.12c-10.21,0-18.48,8.27-18.48,18.48c0,10.21,8.27,18.48,18.48,18.48
		c10.21,0,18.48-8.27,18.48-18.48C484.07,1139.39,475.8,1131.12,465.59,1131.12L465.59,1131.12z"/>
	<path class="st0" d="M474.07,2424.61c-13.55,0-24.54,10.99-24.54,24.54c0,13.55,10.99,24.54,24.54,24.54
		c13.55,0,24.54-10.98,24.54-24.54C498.61,2435.59,487.62,2424.61,474.07,2424.61L474.07,2424.61z"/>
	<path class="st0" d="M468.01,1573.39c-10.21,0-18.48,8.27-18.48,18.48c0,10.21,8.27,18.48,18.48,18.48
		c10.21,0,18.48-8.27,18.48-18.48C486.49,1581.66,478.22,1573.39,468.01,1573.39L468.01,1573.39z"/>
	<path class="st0" d="M474.68,821.53c-13.55,0-24.54,10.99-24.54,24.54c0,13.55,10.99,24.54,24.54,24.54
		c13.55,0,24.54-10.98,24.54-24.54C499.22,832.51,488.23,821.53,474.68,821.53L474.68,821.53z"/>
	<path class="st0" d="M475.89,580.4c-13.55,0-24.54,10.99-24.54,24.54c0,13.55,10.99,24.54,24.54,24.54
		c13.55,0,24.54-10.98,24.54-24.54C500.43,591.39,489.44,580.4,475.89,580.4L475.89,580.4z"/>
	<path class="st0" d="M477.71,2339.79c-13.55,0-24.54,10.99-24.54,24.54s10.99,24.54,24.54,24.54c13.55,0,24.54-10.98,24.54-24.54
		S491.26,2339.79,477.71,2339.79L477.71,2339.79z"/>
	<path class="st0" d="M479.53,1172.92c-13.55,0-24.54,10.99-24.54,24.54c0,13.55,10.99,24.54,24.54,24.54
		c13.55,0,24.54-10.98,24.54-24.54C504.06,1183.91,493.08,1172.92,479.53,1172.92L479.53,1172.92z"/>
	<path class="st0" d="M474.07,1446.16c-10.21,0-18.48,8.27-18.48,18.48s8.27,18.48,18.48,18.48c10.21,0,18.48-8.27,18.48-18.48
		S484.28,1446.16,474.07,1446.16L474.07,1446.16z"/>
	<path class="st0" d="M475.28,1399.51c-10.21,0-18.48,8.27-18.48,18.48c0,10.21,8.27,18.48,18.48,18.48
		c10.21,0,18.48-8.27,18.48-18.48C493.76,1407.78,485.49,1399.51,475.28,1399.51L475.28,1399.51z"/>
	<path class="st0" d="M476.5,1245.62c-10.21,0-18.48,8.27-18.48,18.48s8.27,18.48,18.48,18.48s18.48-8.27,18.48-18.48
		S486.7,1245.62,476.5,1245.62L476.5,1245.62z"/>
	<path class="st0" d="M482.56,1286.82c-13.55,0-24.54,10.99-24.54,24.54c0,13.55,10.99,24.54,24.54,24.54
		c13.55,0,24.54-10.98,24.54-24.54C507.09,1297.81,496.11,1286.82,482.56,1286.82L482.56,1286.82z"/>
	<path class="st0" d="M484.37,713.08c-13.55,0-24.54,10.99-24.54,24.54c0,13.55,10.99,24.54,24.54,24.54
		c13.55,0,24.54-10.98,24.54-24.54C508.91,724.07,497.92,713.08,484.37,713.08L484.37,713.08z"/>
	<path class="st0" d="M487.4,1859.96c-13.55,0-24.54,10.99-24.54,24.54s10.99,24.54,24.54,24.54c13.55,0,24.54-10.98,24.54-24.54
		S500.95,1859.96,487.4,1859.96L487.4,1859.96z"/>
	<path class="st0" d="M490.43,954.81c-13.55,0-24.54,10.99-24.54,24.54c0,13.55,10.99,24.54,24.54,24.54
		c13.55,0,24.54-10.98,24.54-24.54C514.97,965.8,503.98,954.81,490.43,954.81L490.43,954.81z"/>
	<path class="st0" d="M491.64,2086.54c-13.55,0-24.54,10.99-24.54,24.54s10.99,24.54,24.54,24.54c13.55,0,24.54-10.98,24.54-24.54
		S505.19,2086.54,491.64,2086.54L491.64,2086.54z"/>
	<path class="st0" d="M491.64,1817.55c-10.21,0-18.48,8.27-18.48,18.48s8.27,18.48,18.48,18.48c10.21,0,18.48-8.27,18.48-18.48
		S501.85,1817.55,491.64,1817.55L491.64,1817.55z"/>
	<path class="st0" d="M501.94,2141.07c-10.21,0-18.48,8.27-18.48,18.48s8.27,18.48,18.48,18.48c10.21,0,18.48-8.27,18.48-18.48
		S512.15,2141.07,501.94,2141.07L501.94,2141.07z"/>
	<path class="st0" d="M508.61,1038.42c-13.55,0-24.54,10.99-24.54,24.54c0,13.55,10.99,24.54,24.54,24.54
		c13.55,0,24.54-10.98,24.54-24.54C533.14,1049.41,522.16,1038.42,508.61,1038.42L508.61,1038.42z"/>
	<path class="st0" d="M509.82,1102.04c-13.55,0-24.54,10.99-24.54,24.54c0,13.55,10.99,24.54,24.54,24.54
		c13.55,0,24.54-10.98,24.54-24.54C534.35,1113.02,523.37,1102.04,509.82,1102.04L509.82,1102.04z"/>
	<path class="st0" d="M508.61,2385.83c-10.21,0-18.48,8.27-18.48,18.48s8.27,18.48,18.48,18.48c10.21,0,18.48-8.27,18.48-18.48
		S518.81,2385.83,508.61,2385.83L508.61,2385.83z"/>
	<path class="st0" d="M516.48,2036.26c-13.55,0-24.54,10.99-24.54,24.54s10.99,24.54,24.54,24.54c13.55,0,24.54-10.98,24.54-24.54
		S530.03,2036.26,516.48,2036.26L516.48,2036.26z"/>
	<path class="st0" d="M512.85,2463.99c-10.21,0-18.48,8.27-18.48,18.48c0,10.21,8.27,18.48,18.48,18.48s18.48-8.27,18.48-18.48
		C531.33,2472.26,523.05,2463.99,512.85,2463.99L512.85,2463.99z"/>
	<path class="st0" d="M513.45,1421.32c-10.21,0-18.48,8.27-18.48,18.48c0,10.21,8.27,18.48,18.48,18.48
		c10.21,0,18.48-8.27,18.48-18.48C531.93,1429.59,523.66,1421.32,513.45,1421.32L513.45,1421.32z"/>
	<path class="st0" d="M520.12,614.93c-13.55,0-24.54,10.99-24.54,24.54c0,13.55,10.99,24.54,24.54,24.54
		c13.55,0,24.54-10.98,24.54-24.54C544.65,625.92,533.67,614.93,520.12,614.93L520.12,614.93z"/>
	<path class="st0" d="M521.94,1351.65c-13.55,0-24.54,10.99-24.54,24.54s10.99,24.54,24.54,24.54c13.55,0,24.54-10.98,24.54-24.54
		S535.49,1351.65,521.94,1351.65L521.94,1351.65z"/>
	<path class="st0" d="M516.48,670.07c-10.21,0-18.48,8.27-18.48,18.48c0,10.21,8.27,18.48,18.48,18.48s18.48-8.27,18.48-18.48
		C534.96,678.34,526.69,670.07,516.48,670.07L516.48,670.07z"/>
	<path class="st0" d="M522.54,1959.31c-13.55,0-24.54,10.99-24.54,24.54s10.99,24.54,24.54,24.54c13.55,0,24.54-10.98,24.54-24.54
		S536.09,1959.31,522.54,1959.31L522.54,1959.31z"/>
	<path class="st0" d="M523.15,903.92c-13.55,0-24.54,10.99-24.54,24.54c0,13.55,10.99,24.54,24.54,24.54
		c13.55,0,24.54-10.98,24.54-24.54C547.68,914.91,536.7,903.92,523.15,903.92L523.15,903.92z"/>
	<path class="st0" d="M521.94,1232.29c-10.21,0-18.48,8.27-18.48,18.48c0,10.21,8.27,18.48,18.48,18.48
		c10.21,0,18.48-8.27,18.48-18.48C540.41,1240.57,532.14,1232.29,521.94,1232.29L521.94,1232.29z"/>
	<path class="st0" d="M528.6,2504.58c-13.55,0-24.54,10.99-24.54,24.54s10.99,24.54,24.54,24.54c13.55,0,24.54-10.98,24.54-24.54
		S542.15,2504.58,528.6,2504.58L528.6,2504.58z"/>
	<path class="st0" d="M528.6,2187.72c-13.55,0-24.54,10.99-24.54,24.54s10.99,24.54,24.54,24.54c13.55,0,24.54-10.98,24.54-24.54
		S542.15,2187.72,528.6,2187.72L528.6,2187.72z"/>
	<path class="st0" d="M534.05,821.53c-13.55,0-24.54,10.99-24.54,24.54c0,13.55,10.99,24.54,24.54,24.54
		c13.55,0,24.54-10.98,24.54-24.54C558.59,832.51,547.6,821.53,534.05,821.53L534.05,821.53z"/>
	<path class="st0" d="M529.81,1893.28c-10.21,0-18.48,8.27-18.48,18.48c0,10.21,8.27,18.48,18.48,18.48
		c10.21,0,18.48-8.27,18.48-18.48C548.29,1901.55,540.02,1893.28,529.81,1893.28L529.81,1893.28z"/>
	<path class="st0" d="M536.48,766.4c-13.55,0-24.54,10.99-24.54,24.54c0,13.55,10.99,24.54,24.54,24.54
		c13.55,0,24.54-10.98,24.54-24.54C561.01,777.38,550.03,766.4,536.48,766.4L536.48,766.4z"/>
	<path class="st0" d="M536.48,1274.1c-13.55,0-24.54,10.99-24.54,24.54s10.99,24.54,24.54,24.54c13.55,0,24.54-10.98,24.54-24.54
		S550.03,1274.1,536.48,1274.1L536.48,1274.1z"/>
	<path class="st0" d="M547.38,2322.22c-13.55,0-24.54,10.99-24.54,24.54s10.99,24.54,24.54,24.54c13.55,0,24.54-10.98,24.54-24.54
		S560.93,2322.22,547.38,2322.22L547.38,2322.22z"/>
	<path class="st0" d="M547.99,1183.22c-13.55,0-24.54,10.99-24.54,24.54c0,13.55,10.99,24.54,24.54,24.54
		c13.55,0,24.54-10.98,24.54-24.54C572.52,1194.21,561.54,1183.22,547.99,1183.22L547.99,1183.22z"/>
	<path class="st0" d="M549.8,2125.92c-13.55,0-24.54,10.99-24.54,24.54c0,13.55,10.99,24.54,24.54,24.54
		c13.55,0,24.54-10.98,24.54-24.54C574.34,2136.91,563.36,2125.92,549.8,2125.92L549.8,2125.92z"/>
	<path class="st0" d="M551.62,699.75c-13.55,0-24.54,10.99-24.54,24.54c0,13.55,10.99,24.54,24.54,24.54
		c13.55,0,24.54-10.98,24.54-24.54C576.16,710.74,565.17,699.75,551.62,699.75L551.62,699.75z"/>
	<path class="st0" d="M553.44,973.6c-13.55,0-24.54,10.99-24.54,24.54c0,13.55,10.99,24.54,24.54,24.54
		c13.55,0,24.54-10.98,24.54-24.54C577.98,984.58,566.99,973.6,553.44,973.6L553.44,973.6z"/>
	<path class="st0" d="M558.29,1827.24c-13.55,0-24.54,10.99-24.54,24.54c0,13.55,10.99,24.54,24.54,24.54
		c13.55,0,24.54-10.98,24.54-24.54C582.82,1838.23,571.84,1827.24,558.29,1827.24L558.29,1827.24z"/>
	<path class="st0" d="M559.5,565.25c-13.55,0-24.54,10.99-24.54,24.54c0,13.55,10.99,24.54,24.54,24.54
		c13.55,0,24.54-10.98,24.54-24.54C584.03,576.24,573.05,565.25,559.5,565.25L559.5,565.25z"/>
	<path class="st0" d="M554.05,2451.87c-10.21,0-18.48,8.27-18.48,18.48c0,10.21,8.27,18.48,18.48,18.48
		c10.21,0,18.48-8.27,18.48-18.48C572.52,2460.15,564.25,2451.87,554.05,2451.87L554.05,2451.87z"/>
	<path class="st0" d="M554.05,2076.24c-10.21,0-18.48,8.27-18.48,18.48s8.27,18.48,18.48,18.48c10.21,0,18.48-8.27,18.48-18.48
		S564.25,2076.24,554.05,2076.24L554.05,2076.24z"/>
	<path class="st0" d="M555.26,1028.12c-10.21,0-18.48,8.27-18.48,18.48c0,10.21,8.27,18.48,18.48,18.48
		c10.21,0,18.48-8.27,18.48-18.48C573.73,1036.4,565.46,1028.12,555.26,1028.12L555.26,1028.12z"/>
	<path class="st0" d="M560.1,2238.61c-10.21,0-18.48,8.27-18.48,18.48c0,10.21,8.27,18.48,18.48,18.48
		c10.21,0,18.48-8.27,18.48-18.48C578.58,2246.89,570.31,2238.61,560.1,2238.61L560.1,2238.61z"/>
	<path class="st0" d="M566.77,2397.95c-13.55,0-24.54,10.99-24.54,24.54c0,13.55,10.99,24.54,24.54,24.54
		c13.55,0,24.54-10.98,24.54-24.54C591.3,2408.94,580.32,2397.95,566.77,2397.95L566.77,2397.95z"/>
	<path class="st0" d="M569.19,1125.06c-13.55,0-24.54,10.99-24.54,24.54c0,13.55,10.99,24.54,24.54,24.54
		c13.55,0,24.54-10.98,24.54-24.54C593.73,1136.05,582.74,1125.06,569.19,1125.06L569.19,1125.06z"/>
	<path class="st0" d="M564.34,868.18c-10.21,0-18.48,8.27-18.48,18.48c0,10.21,8.27,18.48,18.48,18.48s18.48-8.27,18.48-18.48
		C582.82,876.45,574.55,868.18,564.34,868.18L564.34,868.18z"/>
	<path class="st0" d="M571.01,1407.39c-13.55,0-24.54,10.99-24.54,24.54s10.99,24.54,24.54,24.54c13.55,0,24.54-10.98,24.54-24.54
		S584.56,1407.39,571.01,1407.39L571.01,1407.39z"/>
	<path class="st0" d="M575.86,1927.81c-13.55,0-24.54,10.99-24.54,24.54c0,13.55,10.99,24.54,24.54,24.54
		c13.55,0,24.54-10.98,24.54-24.54C600.39,1938.8,589.41,1927.81,575.86,1927.81L575.86,1927.81z"/>
	<path class="st0" d="M571.01,1881.16c-10.21,0-18.48,8.27-18.48,18.48c0,10.21,8.27,18.48,18.48,18.48
		c10.21,0,18.48-8.27,18.48-18.48C589.49,1889.43,581.21,1881.16,571.01,1881.16L571.01,1881.16z"/>
	<path class="st0" d="M574.64,2175.6c-10.21,0-18.48,8.27-18.48,18.48c0,10.21,8.27,18.48,18.48,18.48
		c10.21,0,18.48-8.27,18.48-18.48C593.12,2183.88,584.85,2175.6,574.64,2175.6L574.64,2175.6z"/>
	<path class="st0" d="M581.31,1318.93c-13.55,0-24.54,10.99-24.54,24.54c0,13.55,10.99,24.54,24.54,24.54
		c13.55,0,24.54-10.98,24.54-24.54C605.84,1329.92,594.86,1318.93,581.31,1318.93L581.31,1318.93z"/>
	<path class="st0" d="M583.73,1989.61c-13.55,0-24.54,10.99-24.54,24.54c0,13.55,10.99,24.54,24.54,24.54
		c13.55,0,24.54-10.98,24.54-24.54C608.27,2000.59,597.28,1989.61,583.73,1989.61L583.73,1989.61z"/>
	<path class="st0" d="M583.73,794.26c-10.21,0-18.48,8.27-18.48,18.48s8.27,18.48,18.48,18.48s18.48-8.27,18.48-18.48
		S593.94,794.26,583.73,794.26L583.73,794.26z"/>
	<path class="st0" d="M592.21,1059.63c-13.55,0-24.54,10.99-24.54,24.54c0,13.55,10.99,24.54,24.54,24.54
		c13.55,0,24.54-10.98,24.54-24.54C616.75,1070.61,605.77,1059.63,592.21,1059.63L592.21,1059.63z"/>
	<path class="st0" d="M594.64,1217.15c-13.55,0-24.54,10.99-24.54,24.54c0,13.55,10.99,24.54,24.54,24.54
		c13.55,0,24.54-10.98,24.54-24.54C619.17,1228.13,608.19,1217.15,594.64,1217.15L594.64,1217.15z"/>
	<path class="st0" d="M599.48,624.63c-13.55,0-24.54,10.99-24.54,24.54c0,13.55,10.99,24.54,24.54,24.54
		c13.55,0,24.54-10.98,24.54-24.54C624.02,635.61,613.04,624.63,599.48,624.63L599.48,624.63z"/>
	<path class="st0" d="M597.67,944.52c-10.21,0-18.48,8.27-18.48,18.48s8.27,18.48,18.48,18.48s18.48-8.27,18.48-18.48
		S607.87,944.52,597.67,944.52L597.67,944.52z"/>
	<path class="st0" d="M605.54,889.99c-13.55,0-24.54,10.99-24.54,24.54s10.99,24.54,24.54,24.54c13.55,0,24.54-10.98,24.54-24.54
		S619.09,889.99,605.54,889.99L605.54,889.99z"/>
	<path class="st0" d="M600.09,1279.55c-10.21,0-18.48,8.27-18.48,18.48c0,10.21,8.27,18.48,18.48,18.48s18.48-8.27,18.48-18.48
		C618.57,1287.82,610.3,1279.55,600.09,1279.55L600.09,1279.55z"/>
	<path class="st0" d="M607.36,1818.76c-10.21,0-18.48,8.27-18.48,18.48c0,10.21,8.27,18.48,18.48,18.48s18.48-8.27,18.48-18.48
		C625.84,1827.03,617.57,1818.76,607.36,1818.76L607.36,1818.76z"/>
	<path class="st0" d="M613.42,2228.31c-13.55,0-24.54,10.99-24.54,24.54s10.99,24.54,24.54,24.54c13.55,0,24.54-10.98,24.54-24.54
		S626.97,2228.31,613.42,2228.31L613.42,2228.31z"/>
	<path class="st0" d="M614.02,2101.69c-13.55,0-24.54,10.99-24.54,24.54s10.99,24.54,24.54,24.54c13.55,0,24.54-10.98,24.54-24.54
		S627.58,2101.69,614.02,2101.69L614.02,2101.69z"/>
	<path class="st0" d="M617.05,825.16c-13.55,0-24.54,10.99-24.54,24.54c0,13.55,10.99,24.54,24.54,24.54
		c13.55,0,24.54-10.98,24.54-24.54C641.59,836.15,630.61,825.16,617.05,825.16L617.05,825.16z"/>
	<path class="st0" d="M617.66,2040.5c-13.55,0-24.54,10.99-24.54,24.54s10.99,24.54,24.54,24.54c13.55,0,24.54-10.98,24.54-24.54
		S631.21,2040.5,617.66,2040.5L617.66,2040.5z"/>
	<path class="st0" d="M618.27,1377.09c-13.55,0-24.54,10.99-24.54,24.54c0,13.55,10.99,24.54,24.54,24.54
		c13.55,0,24.54-10.98,24.54-24.54C642.8,1388.08,631.82,1377.09,618.27,1377.09L618.27,1377.09z"/>
	<path class="st0" d="M619.48,1874.5c-13.55,0-24.54,10.99-24.54,24.54s10.99,24.54,24.54,24.54s24.54-10.98,24.54-24.54
		S633.03,1874.5,619.48,1874.5L619.48,1874.5z"/>
	<path class="st0" d="M622.51,1003.89c-13.55,0-24.54,10.99-24.54,24.54c0,13.55,10.99,24.54,24.54,24.54
		c13.55,0,24.54-10.98,24.54-24.54C647.04,1014.87,636.06,1003.89,622.51,1003.89L622.51,1003.89z"/>
	<path class="st0" d="M620.69,1961.13c-10.21,0-18.48,8.27-18.48,18.48c0,10.21,8.27,18.48,18.48,18.48s18.48-8.27,18.48-18.48
		C639.17,1969.41,630.89,1961.13,620.69,1961.13L620.69,1961.13z"/>
	<path class="st0" d="M621.9,1178.37c-10.21,0-18.48,8.27-18.48,18.48c0,10.21,8.27,18.48,18.48,18.48s18.48-8.27,18.48-18.48
		C640.38,1186.65,632.11,1178.37,621.9,1178.37L621.9,1178.37z"/>
	<path class="st0" d="M624.32,2368.26c-10.21,0-18.48,8.27-18.48,18.48c0,10.21,8.27,18.48,18.48,18.48
		c10.21,0,18.48-8.27,18.48-18.48C642.8,2376.54,634.53,2368.26,624.32,2368.26L624.32,2368.26z"/>
	<path class="st0" d="M631.59,558.59c-13.55,0-24.54,10.99-24.54,24.54c0,13.55,10.99,24.54,24.54,24.54s24.54-10.98,24.54-24.54
		C656.13,569.57,645.15,558.59,631.59,558.59L631.59,558.59z"/>
	<path class="st0" d="M632.81,2409.46c-13.55,0-24.54,10.99-24.54,24.54s10.99,24.54,24.54,24.54c13.55,0,24.54-10.98,24.54-24.54
		C657.34,2420.45,646.36,2409.46,632.81,2409.46L632.81,2409.46z"/>
	<path class="st0" d="M633.41,1549.15c-13.55,0-24.54,10.99-24.54,24.54c0,13.55,10.99,24.54,24.54,24.54
		c13.55,0,24.54-10.98,24.54-24.54C657.95,1560.14,646.96,1549.15,633.41,1549.15L633.41,1549.15z"/>
	<path class="st0" d="M627.96,1500.69c-10.21,0-18.48,8.27-18.48,18.48c0,10.21,8.27,18.48,18.48,18.48s18.48-8.27,18.48-18.48
		C646.44,1508.96,638.16,1500.69,627.96,1500.69L627.96,1500.69z"/>
	<path class="st0" d="M634.62,2170.76c-13.55,0-24.54,10.99-24.54,24.54s10.99,24.54,24.54,24.54c13.55,0,24.54-10.98,24.54-24.54
		S648.18,2170.76,634.62,2170.76L634.62,2170.76z"/>
	<path class="st0" d="M644.92,1122.64c-13.55,0-24.54,10.99-24.54,24.54s10.99,24.54,24.54,24.54c13.55,0,24.54-10.98,24.54-24.54
		S658.47,1122.64,644.92,1122.64L644.92,1122.64z"/>
	<path class="st0" d="M639.47,1079.01c-10.21,0-18.48,8.27-18.48,18.48c0,10.21,8.27,18.48,18.48,18.48
		c10.21,0,18.48-8.27,18.48-18.48C657.95,1087.29,649.68,1079.01,639.47,1079.01L639.47,1079.01z"/>
	<path class="st0" d="M649.77,779.12c-13.55,0-24.54,10.99-24.54,24.54c0,13.55,10.99,24.54,24.54,24.54
		c13.55,0,24.54-10.98,24.54-24.54C674.31,790.1,663.32,779.12,649.77,779.12L649.77,779.12z"/>
	<path class="st0" d="M649.77,928.16c-13.55,0-24.54,10.99-24.54,24.54c0,13.55,10.99,24.54,24.54,24.54
		c13.55,0,24.54-10.98,24.54-24.54C674.31,939.14,663.32,928.16,649.77,928.16L649.77,928.16z"/>
	<path class="st0" d="M649.77,1449.19c-13.55,0-24.54,10.99-24.54,24.54c0,13.55,10.99,24.54,24.54,24.54
		c13.55,0,24.54-10.98,24.54-24.54C674.31,1460.18,663.32,1449.19,649.77,1449.19L649.77,1449.19z"/>
	<path class="st0" d="M644.92,1231.08c-10.21,0-18.48,8.27-18.48,18.48c0,10.21,8.27,18.48,18.48,18.48s18.48-8.27,18.48-18.48
		C663.4,1239.36,655.13,1231.08,644.92,1231.08L644.92,1231.08z"/>
	<path class="st0" d="M647.35,619.17c-10.21,0-18.48,8.27-18.48,18.48s8.27,18.48,18.48,18.48s18.48-8.27,18.48-18.48
		S657.55,619.17,647.35,619.17L647.35,619.17z"/>
	<path class="st0" d="M654.62,1991.43c-13.55,0-24.54,10.99-24.54,24.54c0,13.55,10.99,24.54,24.54,24.54
		c13.55,0,24.54-10.98,24.54-24.54C679.15,2002.41,668.17,1991.43,654.62,1991.43L654.62,1991.43z"/>
	<path class="st0" d="M660.67,856.06c-10.21,0-18.48,8.27-18.48,18.48c0,10.21,8.27,18.48,18.48,18.48
		c10.21,0,18.48-8.27,18.48-18.48C679.15,864.33,670.88,856.06,660.67,856.06L660.67,856.06z"/>
	<path class="st0" d="M662.49,1040.85c-10.21,0-18.48,8.27-18.48,18.48s8.27,18.48,18.48,18.48s18.48-8.27,18.48-18.48
		S672.7,1040.85,662.49,1040.85L662.49,1040.85z"/>
	<path class="st0" d="M669.16,1320.14c-13.55,0-24.54,10.99-24.54,24.54c0,13.55,10.99,24.54,24.54,24.54
		c13.55,0,24.54-10.98,24.54-24.54C693.69,1331.13,682.71,1320.14,669.16,1320.14L669.16,1320.14z"/>
	<path class="st0" d="M663.7,1827.24c-10.21,0-18.48,8.27-18.48,18.48s8.27,18.48,18.48,18.48s18.48-8.27,18.48-18.48
		S673.91,1827.24,663.7,1827.24L663.7,1827.24z"/>
	<path class="st0" d="M670.37,2311.31c-13.55,0-24.54,10.99-24.54,24.54s10.99,24.54,24.54,24.54c13.55,0,24.54-10.98,24.54-24.54
		S683.92,2311.31,670.37,2311.31L670.37,2311.31z"/>
	<path class="st0" d="M666.73,1375.28c-10.21,0-18.48,8.27-18.48,18.48c0,10.21,8.27,18.48,18.48,18.48s18.48-8.27,18.48-18.48
		C685.21,1383.55,676.94,1375.28,666.73,1375.28L666.73,1375.28z"/>
	<path class="st0" d="M667.34,1869.04c-10.21,0-18.48,8.27-18.48,18.48c0,10.21,8.27,18.48,18.48,18.48s18.48-8.27,18.48-18.48
		C685.82,1877.32,677.54,1869.04,667.34,1869.04L667.34,1869.04z"/>
	<path class="st0" d="M674.61,1265.01c-13.55,0-24.54,10.99-24.54,24.54s10.99,24.54,24.54,24.54c13.55,0,24.54-10.98,24.54-24.54
		S688.16,1265.01,674.61,1265.01L674.61,1265.01z"/>
	<path class="st0" d="M675.22,2097.45c-13.55,0-24.54,10.99-24.54,24.54s10.99,24.54,24.54,24.54c13.55,0,24.54-10.98,24.54-24.54
		S688.77,2097.45,675.22,2097.45L675.22,2097.45z"/>
	<path class="st0" d="M672.19,2056.25c-10.21,0-18.48,8.27-18.48,18.48c0,10.21,8.27,18.48,18.48,18.48s18.48-8.27,18.48-18.48
		C690.66,2064.52,682.39,2056.25,672.19,2056.25L672.19,2056.25z"/>
	<path class="st0" d="M681.27,1761.81c-13.55,0-24.54,10.99-24.54,24.54c0,13.55,10.99,24.54,24.54,24.54
		c13.55,0,24.54-10.98,24.54-24.54C705.81,1772.79,694.83,1761.81,681.27,1761.81L681.27,1761.81z"/>
	<path class="st0" d="M681.27,1916.91c-13.55,0-24.54,10.99-24.54,24.54c0,13.55,10.99,24.54,24.54,24.54
		c13.55,0,24.54-10.98,24.54-24.54C705.81,1927.89,694.83,1916.91,681.27,1916.91L681.27,1916.91z"/>
	<path class="st0" d="M677.03,586.46c-10.21,0-18.48,8.27-18.48,18.48s8.27,18.48,18.48,18.48s18.48-8.27,18.48-18.48
		S687.24,586.46,677.03,586.46L677.03,586.46z"/>
	<path class="st0" d="M677.64,2151.98c-10.21,0-18.48,8.27-18.48,18.48s8.27,18.48,18.48,18.48c10.21,0,18.48-8.27,18.48-18.48
		S687.84,2151.98,677.64,2151.98L677.64,2151.98z"/>
	<path class="st0" d="M684.3,2199.84c-13.55,0-24.54,10.99-24.54,24.54c0,13.55,10.99,24.54,24.54,24.54s24.54-10.98,24.54-24.54
		C708.84,2210.82,697.85,2199.84,684.3,2199.84L684.3,2199.84z"/>
	<path class="st0" d="M679.46,1536.43c-10.21,0-18.48,8.27-18.48,18.48c0,10.21,8.27,18.48,18.48,18.48s18.48-8.27,18.48-18.48
		C697.93,1544.7,689.66,1536.43,679.46,1536.43L679.46,1536.43z"/>
	<path class="st0" d="M689.76,2373.11c-13.55,0-24.54,10.99-24.54,24.54c0,13.55,10.99,24.54,24.54,24.54
		c13.55,0,24.54-10.98,24.54-24.54C714.29,2384.1,703.31,2373.11,689.76,2373.11L689.76,2373.11z"/>
	<path class="st0" d="M692.79,1208.06c-13.55,0-24.54,10.99-24.54,24.54c0,13.55,10.99,24.54,24.54,24.54
		c13.55,0,24.54-10.98,24.54-24.54C717.32,1219.05,706.34,1208.06,692.79,1208.06L692.79,1208.06z"/>
	<path class="st0" d="M693.39,2260.42c-13.55,0-24.54,10.99-24.54,24.54c0,13.55,10.99,24.54,24.54,24.54
		c13.55,0,24.54-10.98,24.54-24.54C717.93,2271.41,706.94,2260.42,693.39,2260.42L693.39,2260.42z"/>
	<path class="st0" d="M687.94,544.65c-10.21,0-18.48,8.27-18.48,18.48s8.27,18.48,18.48,18.48s18.48-8.27,18.48-18.48
		S698.14,544.65,687.94,544.65L687.94,544.65z"/>
	<path class="st0" d="M696.42,1706.07c-13.55,0-24.54,10.99-24.54,24.54c0,13.55,10.99,24.54,24.54,24.54
		c13.55,0,24.54-10.98,24.54-24.54C720.96,1717.06,709.97,1706.07,696.42,1706.07L696.42,1706.07z"/>
	<path class="st0" d="M698.84,978.44c-13.55,0-24.54,10.99-24.54,24.54c0,13.55,10.99,24.54,24.54,24.54
		c13.55,0,24.54-10.98,24.54-24.54C723.38,989.43,712.4,978.44,698.84,978.44L698.84,978.44z"/>
	<path class="st0" d="M694.6,436.81c-10.21,0-18.48,8.27-18.48,18.48c0,10.21,8.27,18.48,18.48,18.48
		c10.21,0,18.48-8.27,18.48-18.48C713.08,445.09,704.81,436.81,694.6,436.81L694.6,436.81z"/>
	<path class="st0" d="M703.08,1486.15c-13.55,0-24.54,10.99-24.54,24.54c0,13.55,10.99,24.54,24.54,24.54
		c13.55,0,24.54-10.98,24.54-24.54C727.62,1497.13,716.64,1486.15,703.08,1486.15L703.08,1486.15z"/>
	<path class="st0" d="M697.63,1443.13c-10.21,0-18.48,8.27-18.48,18.48c0,10.21,8.27,18.48,18.48,18.48s18.48-8.27,18.48-18.48
		C716.11,1451.4,707.84,1443.13,697.63,1443.13L697.63,1443.13z"/>
	<path class="st0" d="M706.72,1090.53c-13.55,0-24.54,10.99-24.54,24.54c0,13.55,10.99,24.54,24.54,24.54
		c13.55,0,24.54-10.98,24.54-24.54C731.26,1101.51,720.27,1090.53,706.72,1090.53L706.72,1090.53z"/>
	<path class="st0" d="M706.72,1581.26c-13.55,0-24.54,10.99-24.54,24.54c0,13.55,10.99,24.54,24.54,24.54
		c13.55,0,24.54-10.98,24.54-24.54C731.26,1592.25,720.27,1581.26,706.72,1581.26L706.72,1581.26z"/>
	<path class="st0" d="M702.48,1401.33c-10.21,0-18.48,8.27-18.48,18.48c0,10.21,8.27,18.48,18.48,18.48s18.48-8.27,18.48-18.48
		C720.96,1409.6,712.68,1401.33,702.48,1401.33L702.48,1401.33z"/>
	<path class="st0" d="M702.48,2010.21c-10.21,0-18.48,8.27-18.48,18.48c0,10.21,8.27,18.48,18.48,18.48s18.48-8.27,18.48-18.48
		C720.96,2018.48,712.68,2010.21,702.48,2010.21L702.48,2010.21z"/>
	<path class="st0" d="M709.14,1637c-13.55,0-24.54,10.99-24.54,24.54s10.99,24.54,24.54,24.54c13.55,0,24.54-10.98,24.54-24.54
		S722.69,1637,709.14,1637L709.14,1637z"/>
	<path class="st0" d="M710.96,780.94c-13.55,0-24.54,10.99-24.54,24.54s10.99,24.54,24.54,24.54c13.55,0,24.54-10.98,24.54-24.54
		S724.51,780.94,710.96,780.94L710.96,780.94z"/>
	<path class="st0" d="M710.96,889.38c-13.55,0-24.54,10.99-24.54,24.54c0,13.55,10.99,24.54,24.54,24.54
		c13.55,0,24.54-10.98,24.54-24.54C735.5,900.37,724.51,889.38,710.96,889.38L710.96,889.38z"/>
	<path class="st0" d="M711.57,1032.36c-13.55,0-24.54,10.99-24.54,24.54s10.99,24.54,24.54,24.54c13.55,0,24.54-10.98,24.54-24.54
		S725.12,1032.36,711.57,1032.36L711.57,1032.36z"/>
	<path class="st0" d="M707.33,1359.52c-10.21,0-18.48,8.27-18.48,18.48s8.27,18.48,18.48,18.48s18.48-8.27,18.48-18.48
		S717.53,1359.52,707.33,1359.52L707.33,1359.52z"/>
	<path class="st0" d="M713.99,834.86c-13.55,0-24.54,10.99-24.54,24.54s10.99,24.54,24.54,24.54c13.55,0,24.54-10.98,24.54-24.54
		S727.54,834.86,713.99,834.86L713.99,834.86z"/>
	<path class="st0" d="M718.84,2310.1c-10.21,0-18.48,8.27-18.48,18.48c0,10.21,8.27,18.48,18.48,18.48s18.48-8.27,18.48-18.48
		C737.31,2318.38,729.04,2310.1,718.84,2310.1L718.84,2310.1z"/>
	<path class="st0" d="M725.5,2431.27c-13.55,0-24.54,10.99-24.54,24.54s10.99,24.54,24.54,24.54c13.55,0,24.54-10.98,24.54-24.54
		S739.05,2431.27,725.5,2431.27L725.5,2431.27z"/>
	<path class="st0" d="M726.71,1872.07c-13.55,0-24.54,10.99-24.54,24.54s10.99,24.54,24.54,24.54c13.55,0,24.54-10.98,24.54-24.54
		S740.26,1872.07,726.71,1872.07L726.71,1872.07z"/>
	<path class="st0" d="M720.65,2084.12c-10.21,0-18.48,8.27-18.48,18.48c0,10.21,8.27,18.48,18.48,18.48
		c10.21,0,18.48-8.27,18.48-18.48C739.13,2092.39,730.86,2084.12,720.65,2084.12L720.65,2084.12z"/>
	<path class="st0" d="M721.87,1255.92c-10.21,0-18.48,8.27-18.48,18.48c0,10.21,8.27,18.48,18.48,18.48s18.48-8.27,18.48-18.48
		C740.34,1264.2,732.07,1255.92,721.87,1255.92L721.87,1255.92z"/>
	<path class="st0" d="M730.35,1789.07c-13.55,0-24.54,10.99-24.54,24.54s10.99,24.54,24.54,24.54c13.55,0,24.54-10.98,24.54-24.54
		S743.9,1789.07,730.35,1789.07L730.35,1789.07z"/>
	<path class="st0" d="M730.95,2125.32c-13.55,0-24.54,10.99-24.54,24.54s10.99,24.54,24.54,24.54c13.55,0,24.54-10.98,24.54-24.54
		S744.51,2125.32,730.95,2125.32L730.95,2125.32z"/>
	<path class="st0" d="M731.56,1303.18c-13.55,0-24.54,10.99-24.54,24.54s10.99,24.54,24.54,24.54c13.55,0,24.54-10.98,24.54-24.54
		S745.11,1303.18,731.56,1303.18L731.56,1303.18z"/>
	<path class="st0" d="M726.11,942.7c-10.21,0-18.48,8.27-18.48,18.48s8.27,18.48,18.48,18.48c10.21,0,18.48-8.27,18.48-18.48
		S736.31,942.7,726.11,942.7L726.11,942.7z"/>
	<path class="st0" d="M732.17,1747.87c-10.21,0-18.48,8.27-18.48,18.48c0,10.21,8.27,18.48,18.48,18.48s18.48-8.27,18.48-18.48
		C750.64,1756.15,742.37,1747.87,732.17,1747.87L732.17,1747.87z"/>
	<path class="st0" d="M740.65,1950.83c-13.55,0-24.54,10.99-24.54,24.54c0,13.55,10.99,24.54,24.54,24.54s24.54-10.98,24.54-24.54
		C765.18,1961.82,754.2,1950.83,740.65,1950.83L740.65,1950.83z"/>
	<path class="st0" d="M741.86,2199.84c-13.55,0-24.54,10.99-24.54,24.54c0,13.55,10.99,24.54,24.54,24.54s24.54-10.98,24.54-24.54
		C766.4,2210.82,755.41,2199.84,741.86,2199.84L741.86,2199.84z"/>
	<path class="st0" d="M735.8,2361.6c-10.21,0-18.48,8.27-18.48,18.48c0,10.21,8.27,18.48,18.48,18.48s18.48-8.27,18.48-18.48
		C754.28,2369.87,746.01,2361.6,735.8,2361.6L735.8,2361.6z"/>
	<path class="st0" d="M750.34,1183.83c-13.55,0-24.54,10.99-24.54,24.54s10.99,24.54,24.54,24.54c13.55,0,24.54-10.98,24.54-24.54
		S763.89,1183.83,750.34,1183.83L750.34,1183.83z"/>
	<path class="st0" d="M751.55,2038.08c-13.55,0-24.54,10.99-24.54,24.54s10.99,24.54,24.54,24.54c13.55,0,24.54-10.98,24.54-24.54
		S765.1,2038.08,751.55,2038.08L751.55,2038.08z"/>
	<path class="st0" d="M752.76,1446.77c-13.55,0-24.54,10.99-24.54,24.54c0,13.55,10.99,24.54,24.54,24.54
		c13.55,0,24.54-10.98,24.54-24.54C777.3,1457.75,766.32,1446.77,752.76,1446.77L752.76,1446.77z"/>
	<path class="st0" d="M748.52,1674.57c-10.21,0-18.48,8.27-18.48,18.48c0,10.21,8.27,18.48,18.48,18.48
		c10.21,0,18.48-8.27,18.48-18.48C767,1682.84,758.73,1674.57,748.52,1674.57L748.52,1674.57z"/>
	<path class="st0" d="M757.61,1511.59c-13.55,0-24.54,10.99-24.54,24.54s10.99,24.54,24.54,24.54c13.55,0,24.54-10.98,24.54-24.54
		S771.16,1511.59,757.61,1511.59L757.61,1511.59z"/>
	<path class="st0" d="M756.4,1838.14c-10.21,0-18.48,8.27-18.48,18.48s8.27,18.48,18.48,18.48s18.48-8.27,18.48-18.48
		S766.6,1838.14,756.4,1838.14L756.4,1838.14z"/>
	<path class="st0" d="M764.88,1379.52c-13.55,0-24.54,10.99-24.54,24.54c0,13.55,10.99,24.54,24.54,24.54
		c13.55,0,24.54-10.98,24.54-24.54C789.42,1390.5,778.43,1379.52,764.88,1379.52L764.88,1379.52z"/>
	<path class="st0" d="M760.03,859.7c-10.21,0-18.48,8.27-18.48,18.48c0,10.21,8.27,18.48,18.48,18.48
		c10.21,0,18.48-8.27,18.48-18.48C778.51,867.97,770.24,859.7,760.03,859.7L760.03,859.7z"/>
	<path class="st0" d="M762.46,2092.6c-10.21,0-18.48,8.27-18.48,18.48s8.27,18.48,18.48,18.48s18.48-8.27,18.48-18.48
		S772.66,2092.6,762.46,2092.6L762.46,2092.6z"/>
	<path class="st0" d="M763.06,1567.94c-10.21,0-18.48,8.27-18.48,18.48c0,10.21,8.27,18.48,18.48,18.48s18.48-8.27,18.48-18.48
		C781.54,1576.21,773.27,1567.94,763.06,1567.94L763.06,1567.94z"/>
	<path class="st0" d="M772.15,957.84c-13.55,0-24.54,10.99-24.54,24.54c0,13.55,10.99,24.54,24.54,24.54
		c13.55,0,24.54-10.98,24.54-24.54C796.69,968.83,785.7,957.84,772.15,957.84L772.15,957.84z"/>
	<path class="st0" d="M775.18,2247.7c-13.55,0-24.54,10.99-24.54,24.54s10.99,24.54,24.54,24.54c13.55,0,24.54-10.98,24.54-24.54
		S788.73,2247.7,775.18,2247.7L775.18,2247.7z"/>
	<path class="st0" d="M769.73,2164.09c-10.21,0-18.48,8.27-18.48,18.48c0,10.21,8.27,18.48,18.48,18.48s18.48-8.27,18.48-18.48
		C788.21,2172.37,779.93,2164.09,769.73,2164.09L769.73,2164.09z"/>
	<path class="st0" d="M775.79,2388.86c-13.55,0-24.54,10.99-24.54,24.54s10.99,24.54,24.54,24.54c13.55,0,24.54-10.98,24.54-24.54
		S789.34,2388.86,775.79,2388.86L775.79,2388.86z"/>
	<path class="st0" d="M772.15,1765.44c-10.21,0-18.48,8.27-18.48,18.48c0,10.21,8.27,18.48,18.48,18.48
		c10.21,0,18.48-8.27,18.48-18.48C790.63,1773.72,782.36,1765.44,772.15,1765.44L772.15,1765.44z"/>
	<path class="st0" d="M773.36,2450.05c-10.21,0-18.48,8.27-18.48,18.48c0,10.21,8.27,18.48,18.48,18.48s18.48-8.27,18.48-18.48
		C791.84,2458.33,783.57,2450.05,773.36,2450.05L773.36,2450.05z"/>
	<path class="st0" d="M773.36,1337.71c-10.21,0-18.48,8.27-18.48,18.48c0,10.21,8.27,18.48,18.48,18.48s18.48-8.27,18.48-18.48
		C791.84,1345.99,783.57,1337.71,773.36,1337.71L773.36,1337.71z"/>
	<path class="st0" d="M783.06,1257.13c-13.55,0-24.54,10.99-24.54,24.54c0,13.55,10.99,24.54,24.54,24.54
		c13.55,0,24.54-10.98,24.54-24.54C807.59,1268.12,796.61,1257.13,783.06,1257.13L783.06,1257.13z"/>
	<path class="st0" d="M783.66,783.36c-13.55,0-24.54,10.99-24.54,24.54s10.99,24.54,24.54,24.54c13.55,0,24.54-10.98,24.54-24.54
		S797.21,783.36,783.66,783.36L783.66,783.36z"/>
	<path class="st0" d="M786.69,1710.92c-13.55,0-24.54,10.99-24.54,24.54c0,13.55,10.99,24.54,24.54,24.54
		c13.55,0,24.54-10.98,24.54-24.54C811.23,1721.9,800.24,1710.92,786.69,1710.92L786.69,1710.92z"/>
	<path class="st0" d="M787.9,2319.8c-13.55,0-24.54,10.99-24.54,24.54s10.99,24.54,24.54,24.54c13.55,0,24.54-10.98,24.54-24.54
		S801.46,2319.8,787.9,2319.8L787.9,2319.8z"/>
	<path class="st0" d="M788.51,1604.29c-13.55,0-24.54,10.99-24.54,24.54c0,13.55,10.99,24.54,24.54,24.54
		c13.55,0,24.54-10.98,24.54-24.54C813.05,1615.27,802.06,1604.29,788.51,1604.29L788.51,1604.29z"/>
	<path class="st0" d="M786.09,1987.18c-10.21,0-18.48,8.27-18.48,18.48c0,10.21,8.27,18.48,18.48,18.48s18.48-8.27,18.48-18.48
		C804.56,1995.46,796.29,1987.18,786.09,1987.18L786.09,1987.18z"/>
	<path class="st0" d="M791.54,1669.11c-10.21,0-18.48,8.27-18.48,18.48s8.27,18.48,18.48,18.48c10.21,0,18.48-8.27,18.48-18.48
		S801.74,1669.11,791.54,1669.11L791.54,1669.11z"/>
	<path class="st0" d="M800.02,1893.88c-13.55,0-24.54,10.99-24.54,24.54c0,13.55,10.99,24.54,24.54,24.54
		c13.55,0,24.54-10.98,24.54-24.54C824.56,1904.87,813.57,1893.88,800.02,1893.88L800.02,1893.88z"/>
	<path class="st0" d="M802.44,891.81c-13.55,0-24.54,10.99-24.54,24.54c0,13.55,10.99,24.54,24.54,24.54
		c13.55,0,24.54-10.98,24.54-24.54C826.98,902.79,816,891.81,802.44,891.81L802.44,891.81z"/>
	<path class="st0" d="M798.81,2028.38c-10.21,0-18.48,8.27-18.48,18.48c0,10.21,8.27,18.48,18.48,18.48
		c10.21,0,18.48-8.27,18.48-18.48C817.29,2036.66,809.01,2028.38,798.81,2028.38L798.81,2028.38z"/>
	<path class="st0" d="M800.02,1210.48c-10.21,0-18.48,8.27-18.48,18.48c0,10.21,8.27,18.48,18.48,18.48
		c10.21,0,18.48-8.27,18.48-18.48C818.5,1218.76,810.23,1210.48,800.02,1210.48L800.02,1210.48z"/>
	<path class="st0" d="M806.08,1812.09c-13.55,0-24.54,10.99-24.54,24.54c0,13.55,10.99,24.54,24.54,24.54
		c13.55,0,24.54-10.98,24.54-24.54C830.62,1823.08,819.63,1812.09,806.08,1812.09L806.08,1812.09z"/>
	<path class="st0" d="M810.32,1484.93c-13.55,0-24.54,10.99-24.54,24.54s10.99,24.54,24.54,24.54c13.55,0,24.54-10.98,24.54-24.54
		C834.86,1495.92,823.87,1484.93,810.32,1484.93L810.32,1484.93z"/>
	<path class="st0" d="M807.9,2101.69c-10.21,0-18.48,8.27-18.48,18.48c0,10.21,8.27,18.48,18.48,18.48s18.48-8.27,18.48-18.48
		C826.37,2109.96,818.1,2101.69,807.9,2101.69L807.9,2101.69z"/>
	<path class="st0" d="M817.59,2142.89c-13.55,0-24.54,10.99-24.54,24.54s10.99,24.54,24.54,24.54c13.55,0,24.54-10.98,24.54-24.54
		S831.14,2142.89,817.59,2142.89L817.59,2142.89z"/>
	<path class="st0" d="M820.01,1429.8c-13.55,0-24.54,10.99-24.54,24.54s10.99,24.54,24.54,24.54c13.55,0,24.54-10.98,24.54-24.54
		S833.57,1429.8,820.01,1429.8L820.01,1429.8z"/>
	<path class="st0" d="M823.04,835.46c-13.55,0-24.54,10.99-24.54,24.54c0,13.55,10.99,24.54,24.54,24.54
		c13.55,0,24.54-10.98,24.54-24.54C847.58,846.45,836.59,835.46,823.04,835.46L823.04,835.46z"/>
	<path class="st0" d="M823.04,1352.25c-13.55,0-24.54,10.99-24.54,24.54c0,13.55,10.99,24.54,24.54,24.54
		c13.55,0,24.54-10.98,24.54-24.54C847.58,1363.24,836.59,1352.25,823.04,1352.25L823.04,1352.25z"/>
	<path class="st0" d="M823.65,1541.28c-13.55,0-24.54,10.99-24.54,24.54s10.99,24.54,24.54,24.54c13.55,0,24.54-10.98,24.54-24.54
		C848.18,1552.26,837.2,1541.28,823.65,1541.28L823.65,1541.28z"/>
	<path class="st0" d="M827.28,2207.11c-13.55,0-24.54,10.99-24.54,24.54s10.99,24.54,24.54,24.54c13.55,0,24.54-10.98,24.54-24.54
		S840.84,2207.11,827.28,2207.11L827.28,2207.11z"/>
	<path class="st0" d="M828.5,2410.07c-13.55,0-24.54,10.99-24.54,24.54s10.99,24.54,24.54,24.54c13.55,0,24.54-10.98,24.54-24.54
		S842.05,2410.07,828.5,2410.07L828.5,2410.07z"/>
	<path class="st0" d="M833.95,1975.67c-13.55,0-24.54,10.99-24.54,24.54c0,13.55,10.99,24.54,24.54,24.54
		c13.55,0,24.54-10.98,24.54-24.54C858.48,1986.66,847.5,1975.67,833.95,1975.67L833.95,1975.67z"/>
	<path class="st0" d="M834.55,2276.78c-13.55,0-24.54,10.99-24.54,24.54s10.99,24.54,24.54,24.54c13.55,0,24.54-10.98,24.54-24.54
		S848.11,2276.78,834.55,2276.78L834.55,2276.78z"/>
	<path class="st0" d="M836.98,1269.86c-13.55,0-24.54,10.99-24.54,24.54c0,13.55,10.99,24.54,24.54,24.54
		c13.55,0,24.54-10.98,24.54-24.54C861.51,1280.84,850.53,1269.86,836.98,1269.86L836.98,1269.86z"/>
	<path class="st0" d="M836.98,1643.06c-13.55,0-24.54,10.99-24.54,24.54c0,13.55,10.99,24.54,24.54,24.54
		c13.55,0,24.54-10.98,24.54-24.54C861.51,1654.05,850.53,1643.06,836.98,1643.06L836.98,1643.06z"/>
	<path class="st0" d="M831.52,779.72c-10.21,0-18.48,8.27-18.48,18.48s8.27,18.48,18.48,18.48S850,808.41,850,798.2
		S841.73,779.72,831.52,779.72L831.52,779.72z"/>
	<path class="st0" d="M831.52,2365.84c-10.21,0-18.48,8.27-18.48,18.48c0,10.21,8.27,18.48,18.48,18.48s18.48-8.27,18.48-18.48
		C850,2374.11,841.73,2365.84,831.52,2365.84L831.52,2365.84z"/>
	<path class="st0" d="M832.13,1697.59c-10.21,0-18.48,8.27-18.48,18.48s8.27,18.48,18.48,18.48c10.21,0,18.48-8.27,18.48-18.48
		S842.34,1697.59,832.13,1697.59L832.13,1697.59z"/>
	<path class="st0" d="M838.19,1753.93c-13.55,0-24.54,10.99-24.54,24.54s10.99,24.54,24.54,24.54c13.55,0,24.54-10.98,24.54-24.54
		S851.74,1753.93,838.19,1753.93L838.19,1753.93z"/>
	<path class="st0" d="M836.98,1934.47c-10.21,0-18.48,8.27-18.48,18.48s8.27,18.48,18.48,18.48c10.21,0,18.48-8.27,18.48-18.48
		S847.18,1934.47,836.98,1934.47L836.98,1934.47z"/>
	<path class="st0" d="M849.7,2046.56c-13.55,0-24.54,10.99-24.54,24.54s10.99,24.54,24.54,24.54c13.55,0,24.54-10.98,24.54-24.54
		S863.25,2046.56,849.7,2046.56L849.7,2046.56z"/>
	<path class="st0" d="M855.15,1858.74c-13.55,0-24.54,10.99-24.54,24.54c0,13.55,10.99,24.54,24.54,24.54
		c13.55,0,24.54-10.98,24.54-24.54C879.69,1869.73,868.7,1858.74,855.15,1858.74L855.15,1858.74z"/>
	<path class="st0" d="M853.94,1808.46c-10.21,0-18.48,8.27-18.48,18.48c0,10.21,8.27,18.48,18.48,18.48
		c10.21,0,18.48-8.27,18.48-18.48C872.42,1816.73,864.15,1808.46,853.94,1808.46L853.94,1808.46z"/>
	<path class="st0" d="M861.21,1320.14c-10.21,0-18.48,8.27-18.48,18.48s8.27,18.48,18.48,18.48c10.21,0,18.48-8.27,18.48-18.48
		S871.42,1320.14,861.21,1320.14L861.21,1320.14z"/>
	<path class="st0" d="M861.82,1580.66c-10.21,0-18.48,8.27-18.48,18.48c0,10.21,8.27,18.48,18.48,18.48s18.48-8.27,18.48-18.48
		C880.3,1588.93,872.02,1580.66,861.82,1580.66L861.82,1580.66z"/>
	<path class="st0" d="M863.03,2128.95c-10.21,0-18.48,8.27-18.48,18.48s8.27,18.48,18.48,18.48s18.48-8.27,18.48-18.48
		S873.23,2128.95,863.03,2128.95L863.03,2128.95z"/>
	<path class="st0" d="M870.3,1383.15c-13.55,0-24.54,10.99-24.54,24.54s10.99,24.54,24.54,24.54c13.55,0,24.54-10.98,24.54-24.54
		S883.85,1383.15,870.3,1383.15L870.3,1383.15z"/>
	<path class="st0" d="M872.72,2393.71c-10.21,0-18.48,8.27-18.48,18.48c0,10.21,8.27,18.48,18.48,18.48s18.48-8.27,18.48-18.48
		C891.2,2401.98,882.93,2393.71,872.72,2393.71L872.72,2393.71z"/>
	<path class="st0" d="M877.57,1492.81c-10.21,0-18.48,8.27-18.48,18.48s8.27,18.48,18.48,18.48s18.48-8.27,18.48-18.48
		S887.77,1492.81,877.57,1492.81L877.57,1492.81z"/>
	<path class="st0" d="M884.23,2173.79c-13.55,0-24.54,10.99-24.54,24.54s10.99,24.54,24.54,24.54c13.55,0,24.54-10.98,24.54-24.54
		S897.79,2173.79,884.23,2173.79L884.23,2173.79z"/>
	<path class="st0" d="M884.23,2339.18c-13.55,0-24.54,10.99-24.54,24.54s10.99,24.54,24.54,24.54c13.55,0,24.54-10.98,24.54-24.54
		S897.79,2339.18,884.23,2339.18L884.23,2339.18z"/>
	<path class="st0" d="M887.87,1438.28c-13.55,0-24.54,10.99-24.54,24.54c0,13.55,10.99,24.54,24.54,24.54
		c13.55,0,24.54-10.98,24.54-24.54C912.41,1449.27,901.42,1438.28,887.87,1438.28L887.87,1438.28z"/>
	<path class="st0" d="M888.47,1925.39c-13.55,0-24.54,10.99-24.54,24.54s10.99,24.54,24.54,24.54c13.55,0,24.54-10.98,24.54-24.54
		S902.03,1925.39,888.47,1925.39L888.47,1925.39z"/>
	<path class="st0" d="M882.42,1979.91c-10.21,0-18.48,8.27-18.48,18.48c0,10.21,8.27,18.48,18.48,18.48s18.48-8.27,18.48-18.48
		C900.89,1988.19,892.62,1979.91,882.42,1979.91L882.42,1979.91z"/>
	<path class="st0" d="M892.72,1533.4c-13.55,0-24.54,10.99-24.54,24.54c0,13.55,10.99,24.54,24.54,24.54
		c13.55,0,24.54-10.98,24.54-24.54C917.25,1544.39,906.27,1533.4,892.72,1533.4L892.72,1533.4z"/>
	<path class="st0" d="M892.72,1680.02c-13.55,0-24.54,10.99-24.54,24.54s10.99,24.54,24.54,24.54c13.55,0,24.54-10.98,24.54-24.54
		S906.27,1680.02,892.72,1680.02L892.72,1680.02z"/>
	<path class="st0" d="M890.29,2450.66c-10.21,0-18.48,8.27-18.48,18.48c0,10.21,8.27,18.48,18.48,18.48s18.48-8.27,18.48-18.48
		C908.77,2458.93,900.5,2450.66,890.29,2450.66L890.29,2450.66z"/>
	<path class="st0" d="M896.96,1768.47c-13.55,0-24.54,10.99-24.54,24.54s10.99,24.54,24.54,24.54c13.55,0,24.54-10.98,24.54-24.54
		S910.51,1768.47,896.96,1768.47L896.96,1768.47z"/>
	<path class="st0" d="M904.23,2256.18c-13.55,0-24.54,10.99-24.54,24.54s10.99,24.54,24.54,24.54c13.55,0,24.54-10.98,24.54-24.54
		S917.78,2256.18,904.23,2256.18L904.23,2256.18z"/>
	<path class="st0" d="M905.44,1831.48c-13.55,0-24.54,10.99-24.54,24.54s10.99,24.54,24.54,24.54c13.55,0,24.54-10.98,24.54-24.54
		C929.97,1842.47,918.99,1831.48,905.44,1831.48L905.44,1831.48z"/>
	<path class="st0" d="M907.26,2016.87c-13.55,0-24.54,10.99-24.54,24.54s10.99,24.54,24.54,24.54c13.55,0,24.54-10.98,24.54-24.54
		S920.81,2016.87,907.26,2016.87L907.26,2016.87z"/>
	<path class="st0" d="M907.26,1886.01c-10.21,0-18.48,8.27-18.48,18.48c0,10.21,8.27,18.48,18.48,18.48s18.48-8.27,18.48-18.48
		C925.73,1894.28,917.46,1886.01,907.26,1886.01L907.26,1886.01z"/>
	<path class="st0" d="M922.4,1616.4c-13.55,0-24.54,10.99-24.54,24.54c0,13.55,10.99,24.54,24.54,24.54
		c13.55,0,24.54-10.98,24.54-24.54C946.94,1627.39,935.95,1616.4,922.4,1616.4L922.4,1616.4z"/>
	<path class="st0" d="M927.25,2102.9c-13.55,0-24.54,10.99-24.54,24.54s10.99,24.54,24.54,24.54c13.55,0,24.54-10.98,24.54-24.54
		S940.8,2102.9,927.25,2102.9L927.25,2102.9z"/>
	<path class="st0" d="M931.49,1963.56c-13.55,0-24.54,10.99-24.54,24.54s10.99,24.54,24.54,24.54c13.55,0,24.54-10.98,24.54-24.54
		S945.04,1963.56,931.49,1963.56L931.49,1963.56z"/>
	<path class="st0" d="M933.31,2372.5c-13.55,0-24.54,10.99-24.54,24.54s10.99,24.54,24.54,24.54c13.55,0,24.54-10.98,24.54-24.54
		S946.86,2372.5,933.31,2372.5L933.31,2372.5z"/>
	<path class="st0" d="M928.46,2157.43c-10.21,0-18.48,8.27-18.48,18.48c0,10.21,8.27,18.48,18.48,18.48
		c10.21,0,18.48-8.27,18.48-18.48C946.94,2165.7,938.67,2157.43,928.46,2157.43L928.46,2157.43z"/>
	<path class="st0" d="M936.34,1920.54c-10.21,0-18.48,8.27-18.48,18.48c0,10.21,8.27,18.48,18.48,18.48
		c10.21,0,18.48-8.27,18.48-18.48C954.81,1928.81,946.54,1920.54,936.34,1920.54L936.34,1920.54z"/>
	<path class="st0" d="M936.94,133.28c-10.21,0-18.48,8.27-18.48,18.48c0,10.21,8.27,18.48,18.48,18.48
		c10.21,0,18.48-8.27,18.48-18.48C955.42,141.56,947.15,133.28,936.94,133.28L936.94,133.28z"/>
	<path class="st0" d="M938.15,2331.31c-10.21,0-18.48,8.27-18.48,18.48c0,10.21,8.27,18.48,18.48,18.48
		c10.21,0,18.48-8.27,18.48-18.48C956.63,2339.58,948.36,2331.31,938.15,2331.31L938.15,2331.31z"/>
	<path class="st0" d="M939.97,2061.7c-10.21,0-18.48,8.27-18.48,18.48c0,10.21,8.27,18.48,18.48,18.48s18.48-8.27,18.48-18.48
		C958.45,2069.98,950.18,2061.7,939.97,2061.7L939.97,2061.7z"/>
	<path class="st0" d="M946.64,1523.71c-13.55,0-24.54,10.99-24.54,24.54c0,13.55,10.99,24.54,24.54,24.54
		c13.55,0,24.54-10.98,24.54-24.54C971.17,1534.69,960.19,1523.71,946.64,1523.71L946.64,1523.71z"/>
	<path class="st0" d="M943,1677.59c-10.21,0-18.48,8.27-18.48,18.48s8.27,18.48,18.48,18.48s18.48-8.27,18.48-18.48
		S953.21,1677.59,943,1677.59L943,1677.59z"/>
	<path class="st0" d="M944.82,1578.23c-10.21,0-18.48,8.27-18.48,18.48c0,10.21,8.27,18.48,18.48,18.48s18.48-8.27,18.48-18.48
		C963.3,1586.51,955.02,1578.23,944.82,1578.23L944.82,1578.23z"/>
	<path class="st0" d="M956.94,2227.1c-13.55,0-24.54,10.99-24.54,24.54s10.99,24.54,24.54,24.54c13.55,0,24.54-10.98,24.54-24.54
		S970.49,2227.1,956.94,2227.1L956.94,2227.1z"/>
	<path class="st0" d="M959.36,1727.27c-13.55,0-24.54,10.99-24.54,24.54c0,13.55,10.99,24.54,24.54,24.54
		c13.55,0,24.54-10.98,24.54-24.54C983.9,1738.26,972.91,1727.27,959.36,1727.27L959.36,1727.27z"/>
	<path class="st0" d="M961.18,1819.36c-13.55,0-24.54,10.99-24.54,24.54s10.99,24.54,24.54,24.54c13.55,0,24.54-10.98,24.54-24.54
		S974.73,1819.36,961.18,1819.36L961.18,1819.36z"/>
	<path class="st0" d="M978.75,1635.79c-13.55,0-24.54,10.99-24.54,24.54c0,13.55,10.99,24.54,24.54,24.54
		c13.55,0,24.54-10.98,24.54-24.54C1003.28,1646.78,992.3,1635.79,978.75,1635.79L978.75,1635.79z"/>
	<path class="st0" d="M973.29,2090.78c-10.21,0-18.48,8.27-18.48,18.48c0,10.21,8.27,18.48,18.48,18.48s18.48-8.27,18.48-18.48
		C991.77,2099.06,983.5,2090.78,973.29,2090.78L973.29,2090.78z"/>
	<path class="st0" d="M973.9,1943.56c-10.21,0-18.48,8.27-18.48,18.48c0,10.21,8.27,18.48,18.48,18.48
		c10.21,0,18.48-8.27,18.48-18.48C992.38,1951.84,984.11,1943.56,973.9,1943.56L973.9,1943.56z"/>
	<path class="st0" d="M979.96,2404.01c-13.55,0-24.54,10.99-24.54,24.54c0,13.55,10.99,24.54,24.54,24.54
		c13.55,0,24.54-10.98,24.54-24.54C1004.49,2415,993.51,2404.01,979.96,2404.01L979.96,2404.01z"/>
	<path class="st0" d="M983.59,1884.19c-13.55,0-24.54,10.99-24.54,24.54s10.99,24.54,24.54,24.54c13.55,0,24.54-10.98,24.54-24.54
		S997.14,1884.19,983.59,1884.19L983.59,1884.19z"/>
	<path class="st0" d="M978.75,2296.17c-10.21,0-18.48,8.27-18.48,18.48c0,10.21,8.27,18.48,18.48,18.48
		c10.21,0,18.48-8.27,18.48-18.48C997.22,2304.44,988.95,2296.17,978.75,2296.17L978.75,2296.17z"/>
	<path class="st0" d="M991.47,1998.09c-13.55,0-24.54,10.99-24.54,24.54s10.99,24.54,24.54,24.54c13.55,0,24.54-10.98,24.54-24.54
		S1005.02,1998.09,991.47,1998.09L991.47,1998.09z"/>
	<path class="st0" d="M993.29,2336.76c-13.55,0-24.54,10.99-24.54,24.54s10.99,24.54,24.54,24.54c13.55,0,24.54-10.98,24.54-24.54
		S1006.84,2336.76,993.29,2336.76L993.29,2336.76z"/>
	<path class="st0" d="M994.5,1552.79c-13.55,0-24.54,10.99-24.54,24.54c0,13.55,10.99,24.54,24.54,24.54
		c13.55,0,24.54-10.98,24.54-24.54C1019.03,1563.78,1008.05,1552.79,994.5,1552.79L994.5,1552.79z"/>
	<path class="st0" d="M997.53,2146.52c-13.55,0-24.54,10.99-24.54,24.54c0,13.55,10.99,24.54,24.54,24.54
		c13.55,0,24.54-10.98,24.54-24.54C1022.06,2157.51,1011.08,2146.52,997.53,2146.52L997.53,2146.52z"/>
	<path class="st0" d="M995.1,1689.11c-10.21,0-18.48,8.27-18.48,18.48s8.27,18.48,18.48,18.48c10.21,0,18.48-8.27,18.48-18.48
		S1005.31,1689.11,995.1,1689.11L995.1,1689.11z"/>
	<path class="st0" d="M995.1,2052.62c-10.21,0-18.48,8.27-18.48,18.48c0,10.21,8.27,18.48,18.48,18.48
		c10.21,0,18.48-8.27,18.48-18.48C1013.58,2060.89,1005.31,2052.62,995.1,2052.62L995.1,2052.62z"/>
	<path class="st0" d="M1002.98,1773.32c-13.55,0-24.54,10.99-24.54,24.54s10.99,24.54,24.54,24.54c13.55,0,24.54-10.98,24.54-24.54
		S1016.53,1773.32,1002.98,1773.32L1002.98,1773.32z"/>
	<path class="st0" d="M1022.37,1926.6c-13.55,0-24.54,10.99-24.54,24.54c0,13.55,10.99,24.54,24.54,24.54
		c13.55,0,24.54-10.98,24.54-24.54C1046.9,1937.59,1035.92,1926.6,1022.37,1926.6L1022.37,1926.6z"/>
	<path class="st0" d="M1022.97,2216.8c-13.55,0-24.54,10.99-24.54,24.54s10.99,24.54,24.54,24.54c13.55,0,24.54-10.98,24.54-24.54
		S1036.53,2216.8,1022.97,2216.8L1022.97,2216.8z"/>
	<path class="st0" d="M1030.24,1720c-13.55,0-24.54,10.99-24.54,24.54s10.99,24.54,24.54,24.54c13.55,0,24.54-10.98,24.54-24.54
		S1043.8,1720,1030.24,1720L1030.24,1720z"/>
	<path class="st0" d="M1034.48,1819.97c-13.55,0-24.54,10.99-24.54,24.54c0,13.55,10.99,24.54,24.54,24.54s24.54-10.98,24.54-24.54
		C1059.02,1830.96,1048.04,1819.97,1034.48,1819.97L1034.48,1819.97z"/>
	<path class="st0" d="M1034.48,2084.12c-13.55,0-24.54,10.99-24.54,24.54c0,13.55,10.99,24.54,24.54,24.54s24.54-10.98,24.54-24.54
		C1059.02,2095.11,1048.04,2084.12,1034.48,2084.12L1034.48,2084.12z"/>
	<path class="st0" d="M1036.91,2042.92c-10.21,0-18.48,8.27-18.48,18.48c0,10.21,8.27,18.48,18.48,18.48s18.48-8.27,18.48-18.48
		C1055.39,2051.2,1047.11,2042.92,1036.91,2042.92L1036.91,2042.92z"/>
	<path class="st0" d="M1044.18,1635.79c-13.55,0-24.54,10.99-24.54,24.54c0,13.55,10.99,24.54,24.54,24.54
		c13.55,0,24.54-10.98,24.54-24.54C1068.71,1646.78,1057.73,1635.79,1044.18,1635.79L1044.18,1635.79z"/>
	<path class="st0" d="M1041.75,2176.21c-10.21,0-18.48,8.27-18.48,18.48c0,10.21,8.27,18.48,18.48,18.48s18.48-8.27,18.48-18.48
		C1060.23,2184.48,1051.96,2176.21,1041.75,2176.21L1041.75,2176.21z"/>
	<path class="st0" d="M1042.97,1874.5c-10.21,0-18.48,8.27-18.48,18.48c0,10.21,8.27,18.48,18.48,18.48
		c10.21,0,18.48-8.27,18.48-18.48C1061.44,1882.77,1053.17,1874.5,1042.97,1874.5L1042.97,1874.5z"/>
	<path class="st0" d="M1044.18,2343.42c-10.21,0-18.48,8.27-18.48,18.48c0,10.21,8.27,18.48,18.48,18.48
		c10.21,0,18.48-8.27,18.48-18.48C1062.66,2351.7,1054.38,2343.42,1044.18,2343.42L1044.18,2343.42z"/>
	<path class="st0" d="M1057.51,2391.89c-13.55,0-24.54,10.99-24.54,24.54s10.99,24.54,24.54,24.54c13.55,0,24.54-10.98,24.54-24.54
		S1071.06,2391.89,1057.51,2391.89L1057.51,2391.89z"/>
	<path class="st0" d="M1058.72,2268.9c-13.55,0-24.54,10.99-24.54,24.54c0,13.55,10.99,24.54,24.54,24.54
		c13.55,0,24.54-10.98,24.54-24.54C1083.26,2279.89,1072.27,2268.9,1058.72,2268.9L1058.72,2268.9z"/>
	<path class="st0" d="M1067.2,1763.63c-13.55,0-24.54,10.99-24.54,24.54c0,13.55,10.99,24.54,24.54,24.54s24.54-10.98,24.54-24.54
		C1091.74,1774.61,1080.75,1763.63,1067.2,1763.63L1067.2,1763.63z"/>
	<path class="st0" d="M1068.41,1989c-13.55,0-24.54,10.99-24.54,24.54c0,13.55,10.99,24.54,24.54,24.54
		c13.55,0,24.54-10.98,24.54-24.54C1092.95,1999.99,1081.96,1989,1068.41,1989L1068.41,1989z"/>
	<path class="st0" d="M1077.5,1712.73c-10.21,0-18.48,8.27-18.48,18.48c0,10.21,8.27,18.48,18.48,18.48
		c10.21,0,18.48-8.27,18.48-18.48C1095.98,1721.01,1087.71,1712.73,1077.5,1712.73L1077.5,1712.73z"/>
	<path class="st0" d="M1086.59,2061.7c-13.55,0-24.54,10.99-24.54,24.54s10.99,24.54,24.54,24.54s24.54-10.98,24.54-24.54
		S1100.14,2061.7,1086.59,2061.7L1086.59,2061.7z"/>
	<path class="st0" d="M1088.41,1815.12c-13.55,0-24.54,10.99-24.54,24.54c0,13.55,10.99,24.54,24.54,24.54
		c13.55,0,24.54-10.98,24.54-24.54C1112.94,1826.11,1101.96,1815.12,1088.41,1815.12L1088.41,1815.12z"/>
	<path class="st0" d="M1083.56,2213.77c-10.21,0-18.48,8.27-18.48,18.48s8.27,18.48,18.48,18.48c10.21,0,18.48-8.27,18.48-18.48
		S1093.76,2213.77,1083.56,2213.77L1083.56,2213.77z"/>
	<path class="st0" d="M1091.43,1887.82c-13.55,0-24.54,10.99-24.54,24.54s10.99,24.54,24.54,24.54c13.55,0,24.54-10.98,24.54-24.54
		C1115.97,1898.81,1104.99,1887.82,1091.43,1887.82L1091.43,1887.82z"/>
	<path class="st0" d="M1092.04,2338.58c-13.55,0-24.54,10.99-24.54,24.54c0,13.55,10.99,24.54,24.54,24.54s24.54-10.98,24.54-24.54
		C1116.58,2349.56,1105.59,2338.58,1092.04,2338.58L1092.04,2338.58z"/>
	<path class="st0" d="M1101.13,2161.06c-13.55,0-24.54,10.99-24.54,24.54s10.99,24.54,24.54,24.54s24.54-10.98,24.54-24.54
		S1114.68,2161.06,1101.13,2161.06L1101.13,2161.06z"/>
	<path class="st0" d="M1095.68,2116.23c-10.21,0-18.48,8.27-18.48,18.48c0,10.21,8.27,18.48,18.48,18.48
		c10.21,0,18.48-8.27,18.48-18.48C1114.15,2124.5,1105.88,2116.23,1095.68,2116.23L1095.68,2116.23z"/>
	<path class="st0" d="M1110.22,1945.38c-13.55,0-24.54,10.99-24.54,24.54s10.99,24.54,24.54,24.54c13.55,0,24.54-10.98,24.54-24.54
		C1134.75,1956.37,1123.77,1945.38,1110.22,1945.38L1110.22,1945.38z"/>
	<path class="st0" d="M1116.88,2267.69c-13.55,0-24.54,10.99-24.54,24.54c0,13.55,10.99,24.54,24.54,24.54
		c13.55,0,24.54-10.98,24.54-24.54C1141.42,2278.68,1130.43,2267.69,1116.88,2267.69L1116.88,2267.69z"/>
	<path class="st0" d="M1124.76,1856.32c-10.21,0-18.48,8.27-18.48,18.48c0,10.21,8.27,18.48,18.48,18.48
		c10.21,0,18.48-8.27,18.48-18.48C1143.23,1864.59,1134.96,1856.32,1124.76,1856.32L1124.76,1856.32z"/>
	<path class="st0" d="M1131.42,2090.18c-10.21,0-18.48,8.27-18.48,18.48s8.27,18.48,18.48,18.48s18.48-8.27,18.48-18.48
		S1141.63,2090.18,1131.42,2090.18L1131.42,2090.18z"/>
	<path class="st0" d="M1144.75,2211.35c-13.55,0-24.54,10.99-24.54,24.54s10.99,24.54,24.54,24.54s24.54-10.98,24.54-24.54
		S1158.3,2211.35,1144.75,2211.35L1144.75,2211.35z"/>
	<path class="st0" d="M1145.96,2339.79c-13.55,0-24.54,10.99-24.54,24.54s10.99,24.54,24.54,24.54s24.54-10.98,24.54-24.54
		S1159.51,2339.79,1145.96,2339.79L1145.96,2339.79z"/>
	<path class="st0" d="M1139.9,2404.01c-10.21,0-18.48,8.27-18.48,18.48c0,10.21,8.27,18.48,18.48,18.48
		c10.21,0,18.48-8.27,18.48-18.48C1158.38,2412.28,1150.11,2404.01,1139.9,2404.01L1139.9,2404.01z"/>
	<path class="st0" d="M1148.38,1999.3c-13.55,0-24.54,10.99-24.54,24.54c0,13.55,10.99,24.54,24.54,24.54s24.54-10.98,24.54-24.54
		C1172.92,2010.29,1161.94,1999.3,1148.38,1999.3L1148.38,1999.3z"/>
	<path class="st0" d="M1166.56,1946.59c-13.55,0-24.54,10.99-24.54,24.54s10.99,24.54,24.54,24.54c13.55,0,24.54-10.98,24.54-24.54
		C1191.1,1957.58,1180.11,1946.59,1166.56,1946.59L1166.56,1946.59z"/>
	<path class="st0" d="M1172.01,2122.89c-13.55,0-24.54,10.99-24.54,24.54s10.99,24.54,24.54,24.54s24.54-10.98,24.54-24.54
		S1185.56,2122.89,1172.01,2122.89L1172.01,2122.89z"/>
	<path class="st0" d="M1172.01,2286.47c-13.55,0-24.54,10.99-24.54,24.54s10.99,24.54,24.54,24.54s24.54-10.98,24.54-24.54
		S1185.56,2286.47,1172.01,2286.47L1172.01,2286.47z"/>
	<path class="st0" d="M1178.07,2047.16c-13.55,0-24.54,10.99-24.54,24.54s10.99,24.54,24.54,24.54c13.55,0,24.54-10.98,24.54-24.54
		S1191.62,2047.16,1178.07,2047.16L1178.07,2047.16z"/>
	<path class="st0" d="M1185.95,2379.78c-13.55,0-24.54,10.99-24.54,24.54s10.99,24.54,24.54,24.54c13.55,0,24.54-10.98,24.54-24.54
		S1199.5,2379.78,1185.95,2379.78L1185.95,2379.78z"/>
	<path class="st0" d="M1198.06,2335.55c-10.21,0-18.48,8.27-18.48,18.48c0,10.21,8.27,18.48,18.48,18.48s18.48-8.27,18.48-18.48
		C1216.54,2343.82,1208.27,2335.55,1198.06,2335.55L1198.06,2335.55z"/>
	<path class="st0" d="M1207.76,2189.54c-13.55,0-24.54,10.99-24.54,24.54s10.99,24.54,24.54,24.54c13.55,0,24.54-10.98,24.54-24.54
		S1221.31,2189.54,1207.76,2189.54L1207.76,2189.54z"/>
	<path class="st0" d="M1202.31,1988.4c-10.21,0-18.48,8.27-18.48,18.48c0,10.21,8.27,18.48,18.48,18.48s18.48-8.27,18.48-18.48
		C1220.78,1996.67,1212.51,1988.4,1202.31,1988.4L1202.31,1988.4z"/>
	<path class="st0" d="M1209.58,1927.81c-10.21,0-18.48,8.27-18.48,18.48c0,10.21,8.27,18.48,18.48,18.48
		c10.21,0,18.48-8.27,18.48-18.48C1228.05,1936.08,1219.78,1927.81,1209.58,1927.81L1209.58,1927.81z"/>
	<path class="st0" d="M1217.45,2109.57c-10.21,0-18.48,8.27-18.48,18.48s8.27,18.48,18.48,18.48c10.21,0,18.48-8.27,18.48-18.48
		S1227.66,2109.57,1217.45,2109.57L1217.45,2109.57z"/>
	<path class="st0" d="M1224.72,2025.96c-10.21,0-18.48,8.27-18.48,18.48c0,10.21,8.27,18.48,18.48,18.48s18.48-8.27,18.48-18.48
		C1243.2,2034.23,1234.93,2025.96,1224.72,2025.96L1224.72,2025.96z"/>
	<path class="st0" d="M1228.36,2067.76c-10.21,0-18.48,8.27-18.48,18.48s8.27,18.48,18.48,18.48c10.21,0,18.48-8.27,18.48-18.48
		S1238.56,2067.76,1228.36,2067.76L1228.36,2067.76z"/>
	<path class="st0" d="M1231.39,2364.63c-10.21,0-18.48,8.27-18.48,18.48c0,10.21,8.27,18.48,18.48,18.48
		c10.21,0,18.48-8.27,18.48-18.48C1249.86,2372.9,1241.59,2364.63,1231.39,2364.63L1231.39,2364.63z"/>
	<path class="st0" d="M1245.93,2304.65c-13.55,0-24.54,10.99-24.54,24.54s10.99,24.54,24.54,24.54s24.54-10.98,24.54-24.54
		S1259.48,2304.65,1245.93,2304.65L1245.93,2304.65z"/>
	<path class="st0" d="M1260.47,1921.15c-13.55,0-24.54,10.99-24.54,24.54c0,13.55,10.99,24.54,24.54,24.54
		c13.55,0,24.54-10.98,24.54-24.54C1285,1932.13,1274.02,1921.15,1260.47,1921.15L1260.47,1921.15z"/>
	<path class="st0" d="M1261.68,2140.46c-13.55,0-24.54,10.99-24.54,24.54s10.99,24.54,24.54,24.54s24.54-10.98,24.54-24.54
		S1275.23,2140.46,1261.68,2140.46L1261.68,2140.46z"/>
	<path class="st0" d="M1272.58,2084.73c-13.55,0-24.54,10.99-24.54,24.54s10.99,24.54,24.54,24.54c13.55,0,24.54-10.98,24.54-24.54
		S1286.14,2084.73,1272.58,2084.73L1272.58,2084.73z"/>
	<path class="st0" d="M1275.01,1984.15c-13.55,0-24.54,10.99-24.54,24.54c0,13.55,10.99,24.54,24.54,24.54s24.54-10.98,24.54-24.54
		C1299.54,1995.14,1288.56,1984.15,1275.01,1984.15L1275.01,1984.15z"/>
	<path class="st0" d="M1270.77,2038.68c-10.21,0-18.48,8.27-18.48,18.48c0,10.21,8.27,18.48,18.48,18.48
		c10.21,0,18.48-8.27,18.48-18.48C1289.24,2046.95,1280.97,2038.68,1270.77,2038.68L1270.77,2038.68z"/>
	<path class="st0" d="M1316.81,2050.19c-13.55,0-24.54,10.99-24.54,24.54s10.99,24.54,24.54,24.54c13.55,0,24.54-10.98,24.54-24.54
		S1330.36,2050.19,1316.81,2050.19L1316.81,2050.19z"/>
	<path class="st0" d="M1317.42,1955.07c-10.21,0-18.48,8.27-18.48,18.48c0,10.21,8.27,18.48,18.48,18.48
		c10.21,0,18.48-8.27,18.48-18.48C1335.89,1963.35,1327.62,1955.07,1317.42,1955.07L1317.42,1955.07z"/>
	<path class="st0" d="M1328.93,1996.27c-13.55,0-24.54,10.99-24.54,24.54s10.99,24.54,24.54,24.54c13.55,0,24.54-10.98,24.54-24.54
		S1342.48,1996.27,1328.93,1996.27L1328.93,1996.27z"/>
</g>
</svg>
